<?xml version="1.0" encoding="UTF-8" standalone="no"?>
<svg
   xmlns:dc="http://purl.org/dc/elements/1.1/"
   xmlns:cc="http://creativecommons.org/ns#"
   xmlns:rdf="http://www.w3.org/1999/02/22-rdf-syntax-ns#"
   xmlns:svg="http://www.w3.org/2000/svg"
   xmlns="http://www.w3.org/2000/svg"
   xmlns:sodipodi="http://sodipodi.sourceforge.net/DTD/sodipodi-0.dtd"
   xmlns:inkscape="http://www.inkscape.org/namespaces/inkscape"
   preserveAspectRatio="xMinYMin meet"
   viewBox="0 0 800 960"
   width="100%"
   height="100%"
   id="svg2"
   version="1.1"
   inkscape:version="0.48.4 r9939"
   sodipodi:docname="image3.svg">
  <defs
     id="defs4" />
  <sodipodi:namedview
     id="base"
     pagecolor="#ffffff"
     bordercolor="#666666"
     borderopacity="1.0"
     inkscape:pageopacity="0.0"
     inkscape:pageshadow="2"
     inkscape:zoom="0.7"
     inkscape:cx="492.75201"
     inkscape:cy="271.36617"
     inkscape:document-units="px"
     inkscape:current-layer="layer1"
     showgrid="false"
     inkscape:window-width="1366"
     inkscape:window-height="702"
     inkscape:window-x="0"
     inkscape:window-y="27"
     inkscape:window-maximized="1" />
  <metadata
     id="metadata7">
    <rdf:RDF>
      <cc:Work
         rdf:about="">
        <dc:format>image/svg+xml</dc:format>
        <dc:type
           rdf:resource="http://purl.org/dc/dcmitype/StillImage" />
        <dc:title />
      </cc:Work>
    </rdf:RDF>
  </metadata>
  <g
     inkscape:label="Layer 1"
     inkscape:groupmode="layer"
     id="layer1">
    <path
       sodipodi:type="arc"
       style="fill:#ffffff;stroke:#000000;stroke-width:8;stroke-miterlimit:4;stroke-opacity:1;stroke-dasharray:none"
       id="path2985"
       sodipodi:cx="199.00005"
       sodipodi:cy="436.16913"
       sodipodi:rx="85.862968"
       sodipodi:ry="80.812202"
       d="m 284.86301,436.16913 a 85.862968,80.812202 0 1 1 -171.72593,0 85.862968,80.812202 0 1 1 171.72593,0 z"
       transform="matrix(0.95775289,0.28759242,-0.28759242,0.95775289,176.62315,-79.501292)" />
    <path
       style="fill:#000000;stroke:#000000;stroke-width:8;stroke-miterlimit:4;stroke-opacity:1;stroke-dasharray:none"
       id="path3009"
       d="m 519.14722,814.98995 c -9.15911,-33.40742 -1.95025,-11.4556 -20.5896,-52.98194 -22.40196,-49.90897 -20.03746,-50.24392 -50.23567,-100.43186 -26.41172,-43.89495 -41.8304,-63.18653 -71.63183,-104.01142 -24.54491,-32.80296 -50.93711,-64.11973 -77.68113,-95.12426 0,0 0.95521,-0.54059 0.95521,-0.54059 l 0,0 c 26.39733,31.23203 52.47449,62.74223 76.87655,95.58113 29.44373,40.51731 45.30857,60.64619 71.6147,104.02308 31.01778,51.14606 27.584,49.47117 50.92615,100.06647 19.37857,42.00405 11.48152,19.02625 21.35137,52.67862 0,0 -1.58575,0.74077 -1.58575,0.74077 z"
       inkscape:connector-curvature="0" />
    <path
       style="fill:#000000;stroke:#000000;stroke-width:8;stroke-miterlimit:4;stroke-opacity:1;stroke-dasharray:none"
       id="path3017"
       d="m 430.77942,642.51795 c -2.60049,5.03833 -5.05422,10.49908 -6.37413,16.02957 -0.62582,2.62226 -0.87419,5.32047 -1.31128,7.98072 -0.83676,17.81153 6.37126,34.33196 15.1266,49.43228 4.18961,6.38359 8.18345,12.85801 12.11888,19.39846 1.16722,1.89885 0.74257,0.82909 1.14924,3.25605 0,0 -1.75837,0.87237 -1.75837,0.87237 l 0,0 c -0.37621,-2.35664 0.0256,-1.3036 -1.10838,-3.1945 -3.87736,-6.57442 -7.85287,-13.05579 -11.99677,-19.46781 -8.69339,-15.16477 -15.87348,-31.73365 -15.14606,-49.55935 0.41656,-2.66178 0.64511,-5.35987 1.24968,-7.98534 1.27187,-5.5234 3.69117,-10.95267 6.19812,-16.01616 0,0 1.85247,-0.74629 1.85247,-0.74629 z"
       inkscape:connector-curvature="0" />
    <path
       style="fill:#000000;stroke:#000000;stroke-width:8;stroke-miterlimit:4;stroke-opacity:1;stroke-dasharray:none"
       id="path3023"
       d="m 450.17156,743.38712 c -3.31264,14.45623 -10.76174,27.03813 -18.45777,39.5245 -7.95432,12.02679 -17.30456,23.06264 -27.77615,32.95333 -3.83247,3.46559 -7.80071,6.73981 -11.37802,10.48075 -0.30199,0.22943 -0.60399,0.45885 -0.90598,0.68828 0,0 -1.865,0.68216 -1.865,0.68216 l 0,0 c 0.30873,-0.21978 0.61746,-0.43954 0.92619,-0.65932 3.60337,-3.7543 7.58059,-7.05634 11.45183,-10.51973 10.54929,-9.89126 19.99601,-20.92242 27.99687,-32.98992 7.65806,-12.41379 15.08494,-24.91805 18.17944,-39.35407 0,0 1.82859,-0.80598 1.82859,-0.80598 z"
       inkscape:connector-curvature="0" />
    <path
       style="fill:#000000;stroke:#000000;stroke-width:8;stroke-miterlimit:4;stroke-opacity:1;stroke-dasharray:none"
       id="path3035"
       d="m 415.04386,822.50335 c 3.23836,7.21974 8.31743,13.20672 13.41092,19.15889 3.28768,3.39116 5.95833,7.22276 7.3602,11.74797 1.15505,4.14046 -5.35338,1.66801 -6.90743,1.23492 -4.47899,-1.52235 -9.22644,-2.38189 -13.53904,-4.35148 -3.52537,-1.90622 -6.74512,-4.58715 -9.43063,-7.56063 -2.22618,-3.04999 -4.1059,-6.34746 -6.1185,-9.54391 -1.15599,-1.6667 -2.01153,-3.53288 -3.40477,-5.02749 -0.73673,-0.79034 -1.16341,-0.8756 -1.02004,-0.93829 0.59397,-0.25974 1.26731,-0.27388 1.90097,-0.41082 0.50811,1.23263 1.42262,1.93432 2.5504,2.55704 1.30432,0.49908 1.9833,1.78835 3.04166,2.64387 1.40089,0.83984 2.84698,1.44783 4.18405,2.41794 2.10953,1.45906 4.42807,2.42182 6.50099,3.93639 1.06198,0.79679 2.11643,1.60475 3.13974,2.45093 0.56878,0.39635 1.40709,0.53772 2.05877,0.73808 1.99424,1.09761 3.91065,2.33321 5.87287,3.48962 0.60376,0.4025 1.2182,0.71462 1.9026,0.93986 0.4756,0.12089 0.60184,0.12559 0.84408,0.56339 0,0 -1.76927,0.95368 -1.76927,0.95368 l 0,0 c -0.18001,-0.33513 -0.41015,-0.32149 -0.76679,-0.43462 -0.6912,-0.23459 -1.30404,-0.57994 -1.91524,-0.98248 -1.93887,-1.16359 -3.83679,-2.40639 -5.84062,-3.45214 -0.68228,-0.19966 -1.54711,-0.33595 -2.12135,-0.79487 -1.00709,-0.85324 -2.05058,-1.66282 -3.1057,-2.45551 -2.07531,-1.50794 -4.40637,-2.46036 -6.50585,-3.9324 -1.34322,-0.96367 -2.82618,-1.53317 -4.20154,-2.4214 -1.04186,-0.85907 -1.72355,-2.12233 -3.02572,-2.61303 -1.16335,-0.66409 -2.09688,-1.4253 -2.62985,-2.69849 0.54138,-0.49989 1.00121,-1.10603 1.62414,-1.49966 0.11544,-0.0729 0.18958,0.19655 0.2876,0.29157 0.23655,0.2293 0.49579,0.43626 0.716,0.6813 1.36896,1.52337 2.22581,3.39274 3.37851,5.07004 2.00818,3.18761 3.94844,6.43176 6.13114,9.49849 2.66733,2.96114 5.8675,5.61791 9.38722,7.49272 4.30894,1.95113 9.03659,2.84202 13.51499,4.33005 1.0379,0.28201 2.68788,0.76138 3.7938,0.95552 0.31713,0.0557 0.98592,-0.24054 0.96256,0.0806 -0.1533,2.10811 -1.48424,0.51918 -1.25802,-0.30237 -1.33191,-4.52157 -3.9903,-8.33281 -7.23774,-11.72285 -5.09506,-5.9691 -10.16199,-11.97645 -13.5077,-19.15265 0,0 1.74259,-0.93775 1.74259,-0.93775 z"
       inkscape:connector-curvature="0" />
    <path
       style="fill:#000000;stroke:#000000;stroke-width:8;stroke-miterlimit:4;stroke-opacity:1;stroke-dasharray:none"
       id="path3037"
       d="m 412.44375,830.64864 c -0.84679,-0.478 -1.72441,-0.90541 -2.61406,-1.29931 -0.97595,-0.3202 -1.74844,-0.95442 -2.51598,-1.60792 -0.42423,-0.25288 -0.71333,-0.63427 -1.04965,-0.98037 -0.3706,-0.24728 -0.71741,-0.53147 -1.02857,-0.85065 -0.4839,-0.52447 -0.94429,-1.07201 -1.39397,-1.62837 -0.22445,-0.28447 -0.43804,-0.57414 -0.69415,-0.82837 -0.12911,-0.31804 0.47294,-0.17699 0.60814,-0.13046 0.45767,0.1416 0.7853,0.52576 1.07504,0.88628 0.8647,0.92569 1.39061,2.0979 1.98082,3.20323 0.74881,1.34244 1.42619,2.72716 2.28136,4.00665 0.26862,0.37585 0.14178,0.20468 0.37798,0.5154 0,0 -0.30488,0.17001 -0.30488,0.17001 l 0,0 c -0.2327,-0.31427 -0.10765,-0.14131 -0.37277,-0.5206 -0.84497,-1.28714 -1.51983,-2.6735 -2.27221,-4.01517 -0.5939,-1.10154 -1.12551,-2.26812 -1.99153,-3.19017 -0.2895,-0.3579 -0.61528,-0.73093 -1.07369,-0.86403 -0.23902,-0.0801 -0.34018,-0.06 -5.8e-4,-0.23833 0.25284,0.25832 0.46401,0.55045 0.68752,0.83632 0.44771,0.55708 0.9103,1.10167 1.3967,1.62304 0.31138,0.31968 0.661,0.60004 1.03051,0.84974 0.33247,0.34736 0.62074,0.72642 1.04128,0.98138 0.76213,0.65476 1.53482,1.27982 2.50528,1.6028 0.8935,0.39632 1.77548,0.82459 2.63021,1.29736 0,0 -0.3028,0.18154 -0.3028,0.18154 z"
       inkscape:connector-curvature="0" />
    <path
       style="fill:#000000;stroke:#000000;stroke-width:8;stroke-miterlimit:4;stroke-opacity:1;stroke-dasharray:none"
       id="path3039"
       d="m 406.88526,819.57516 c 0.10256,0.73554 0.51191,1.46532 0.8814,2.10553 0.50582,0.70606 1.04578,1.3861 1.65815,2.00272 0.5353,0.50629 0.89317,1.13747 1.25612,1.77006 0.37025,0.65969 0.62117,1.37522 0.77435,2.11401 0.19417,0.64816 0.23928,1.32909 0.31299,1.99879 0.12972,0.46822 0.13568,0.95462 0.25243,1.42389 0.0829,0.4089 0.23519,0.80109 0.33329,1.20739 0.13302,0.45456 0.30043,0.86619 0.63452,1.2072 0.0387,0.034 0.0773,0.0679 0.11604,0.10178 0,0 -0.3043,0.17779 -0.3043,0.17779 l 0,0 c -0.0388,-0.0348 -0.0776,-0.0698 -0.11641,-0.1046 -0.33485,-0.34803 -0.50653,-0.76447 -0.64209,-1.22436 -0.0981,-0.40614 -0.25203,-0.79788 -0.33416,-1.20674 -0.11633,-0.47143 -0.12254,-0.95892 -0.25235,-1.42923 -0.07,-0.66935 -0.1173,-1.34934 -0.30843,-1.99735 -0.14941,-0.73684 -0.40302,-1.44564 -0.77164,-2.10299 -0.36127,-0.62999 -0.71462,-1.25995 -1.24813,-1.7642 -0.61398,-0.61931 -1.15686,-1.30007 -1.66114,-2.01116 -0.37274,-0.64498 -0.78408,-1.37754 -0.89895,-2.11584 0,0 0.31832,-0.15271 0.31832,-0.15271 z"
       inkscape:connector-curvature="0" />
    <path
       style="fill:#000000;stroke:#000000;stroke-width:8;stroke-miterlimit:4;stroke-opacity:1;stroke-dasharray:none"
       id="path3041"
       d="m 408.88455,820.49746 c 0.32093,0.50837 0.69825,0.97846 1.03625,1.47556 0.33741,0.7716 0.78322,1.49825 1.1023,2.27594 0.41486,0.73405 0.37978,1.55571 0.4677,2.36403 0.0917,0.72877 0.23755,1.44583 0.46558,2.14381 0.0199,0.0561 0.0398,0.11228 0.0596,0.16839 0,0 -0.31231,0.16175 -0.31231,0.16175 l 0,0 c -0.0194,-0.0567 -0.039,-0.11329 -0.0584,-0.16995 -0.2239,-0.70226 -0.36932,-1.42146 -0.46331,-2.15283 -0.089,-0.80474 -0.0522,-1.62379 -0.46395,-2.35511 -0.31814,-0.77536 -0.76155,-1.50085 -1.09924,-2.26943 -0.33976,-0.49769 -0.71999,-0.96751 -1.04552,-1.47465 0,0 0.31127,-0.16751 0.31127,-0.16751 z"
       inkscape:connector-curvature="0" />
    <path
       style="fill:#000000;stroke:#000000;stroke-width:8;stroke-miterlimit:4;stroke-opacity:1;stroke-dasharray:none"
       id="path3043"
       d="m 409.17382,817.17791 c 0.30949,0.45983 0.6577,0.88563 0.95061,1.35747 0.17513,0.36375 0.34486,0.72938 0.55047,1.07963 0.15971,0.2901 0.35383,0.56278 0.46265,0.87681 0.20148,0.32199 0.26279,0.65021 0.26647,1.02423 0.0149,0.30007 0.065,0.6095 0.18399,0.88963 0.0952,0.18516 0.0576,0.0748 0.0798,0.34052 0,0 -0.31543,0.15313 -0.31543,0.15313 l 0,0 c -0.0174,-0.25313 0.017,-0.14578 -0.0761,-0.32963 -0.12018,-0.284 -0.17561,-0.59849 -0.1904,-0.90202 1.3e-4,-0.37175 -0.0597,-0.69441 -0.26081,-1.0142 -0.10686,-0.31206 -0.30224,-0.58219 -0.4601,-0.87039 -0.20236,-0.35132 -0.37433,-0.71583 -0.548,-1.07995 -0.28749,-0.46998 -0.63123,-0.89293 -0.946,-1.34371 0,0 0.30281,-0.18152 0.30281,-0.18152 z"
       inkscape:connector-curvature="0" />
    <path
       style="fill:#000000;stroke:#000000;stroke-width:8;stroke-miterlimit:4;stroke-opacity:1;stroke-dasharray:none"
       id="path3045"
       d="m 409.07111,817.51996 c 0.47541,0.25003 0.83188,0.62379 1.21369,0.99253 0.38646,0.49183 0.74889,1.00399 1.11827,1.50968 0.31809,0.35528 0.42649,0.76585 0.5624,1.20617 0.0634,0.20823 0.1625,0.39827 0.14654,0.61824 -0.0156,0.10916 -0.005,0.0502 -0.0347,0.17664 0,0 -0.32316,0.14455 -0.32316,0.14455 l 0,0 c 0.0306,-0.1227 0.019,-0.0654 0.0365,-0.17147 0.0211,-0.21573 -0.0765,-0.4025 -0.13732,-0.60772 -0.13363,-0.43691 -0.24044,-0.84413 -0.55536,-1.19684 -0.36509,-0.50614 -0.72838,-1.01528 -1.11395,-1.50514 -0.38084,-0.36827 -0.74064,-0.7366 -1.21565,-0.98508 0,0 0.30281,-0.18154 0.30281,-0.18154 z"
       inkscape:connector-curvature="0" />
    <path
       style="fill:#000000;stroke:#000000;stroke-width:8;stroke-miterlimit:4;stroke-opacity:1;stroke-dasharray:none"
       id="path3047"
       d="m 410.40947,816.53155 c 0.026,0.45843 0.14293,0.92153 0.34397,1.33397 0.40333,0.5728 0.83625,1.1266 1.31712,1.63636 0.40442,0.38997 0.60394,0.9384 0.83924,1.43823 0.14017,0.3222 0.25354,0.64934 0.4217,0.95958 0,0 -0.31044,0.16703 -0.31044,0.16703 l 0,0 c -0.16606,-0.31203 -0.28104,-0.63937 -0.41872,-0.96331 -0.2329,-0.49722 -0.43427,-1.03918 -0.83364,-1.42883 -0.48049,-0.51466 -0.91616,-1.07028 -1.32202,-1.64542 -0.20627,-0.41536 -0.3242,-0.88211 -0.35553,-1.34491 0,0 0.31832,-0.1527 0.31832,-0.1527 z"
       inkscape:connector-curvature="0" />
    <path
       style="fill:#000000;stroke:#000000;stroke-width:8;stroke-miterlimit:4;stroke-opacity:1;stroke-dasharray:none"
       id="path3049"
       d="m 409.52525,817.23482 c 0.40967,0.14787 0.80499,0.39403 1.147,0.66509 0.44705,0.29432 0.73955,0.72819 1.05425,1.14715 0.38708,0.44391 0.5198,0.95358 0.67997,1.49775 0.11427,0.3249 0.27889,0.61271 0.32971,0.95567 -0.008,0.69229 0.0459,1.38282 0.10166,2.0723 0.0153,0.29465 -0.003,0.58872 0.007,0.88333 0,0 -0.31586,0.15182 -0.31586,0.15182 l 0,0 c -0.0126,-0.2947 0.01,-0.58814 -0.004,-0.8831 -0.0514,-0.68854 -0.10868,-1.37798 -0.10315,-2.06897 -0.0489,-0.34136 -0.21764,-0.62669 -0.32652,-0.95172 -0.15894,-0.54035 -0.28486,-1.04806 -0.67464,-1.48648 -0.31125,-0.41829 -0.60325,-0.84813 -1.04928,-1.13937 -0.34225,-0.26639 -0.73202,-0.51323 -1.14289,-0.65218 0,0 0.29699,-0.19129 0.29699,-0.19129 z"
       inkscape:connector-curvature="0" />
    <path
       style="fill:#000000;stroke:#000000;stroke-width:8;stroke-miterlimit:4;stroke-opacity:1;stroke-dasharray:none"
       id="path3053"
       d="m 407.8831,813.90507 c 0.17359,0.36669 0.13825,0.78927 0.26741,1.16346 0.0413,0.40267 0.19621,0.77805 0.24813,1.17844 -0.007,0.69342 0.0402,1.37789 0.15126,2.06228 0.11469,0.75732 0.29266,1.48818 0.60625,2.18722 0.32942,0.55923 0.75473,1.04255 1.20533,1.50502 0.47589,0.5203 0.98958,0.99939 1.49612,1.48891 0.46555,0.32135 0.80994,0.75361 1.1057,1.23069 0.27164,0.38579 0.49708,0.79979 0.6726,1.23778 0.0791,0.15127 0.19149,0.27726 0.31499,0.39292 0,0 -0.3067,0.17777 -0.3067,0.17777 l 0,0 c -0.12495,-0.12105 -0.23901,-0.25201 -0.31989,-0.40766 -0.17152,-0.43761 -0.39743,-0.84894 -0.66762,-1.23339 -0.2942,-0.4749 -0.63824,-0.90225 -1.09998,-1.22403 -0.50554,-0.49061 -1.01905,-0.97015 -1.49432,-1.49106 -0.45487,-0.46429 -0.88445,-0.94965 -1.21324,-1.51459 -0.31484,-0.70201 -0.49239,-1.43672 -0.60601,-2.19734 -0.11396,-0.68283 -0.16791,-1.36713 -0.15966,-2.05958 -0.0491,-0.39862 -0.20564,-0.77088 -0.2459,-1.17136 -0.13065,-0.37435 -0.0902,-0.79828 -0.26809,-1.16461 0,0 0.31362,-0.16087 0.31362,-0.16087 z"
       inkscape:connector-curvature="0" />
    <path
       style="fill:#000000;stroke:#000000;stroke-width:8;stroke-miterlimit:4;stroke-opacity:1;stroke-dasharray:none"
       id="path3055"
       d="m 409.17883,813.17884 c -0.0305,0.35286 0.17845,0.65117 0.26002,0.97888 -0.0167,0.2176 0.0732,0.33236 0.16009,0.50897 0.0531,0.17569 0.19573,0.30373 0.33154,0.41979 0.0362,0.18823 0.0637,0.37296 0.12217,0.559 0.0682,0.12626 0.0716,0.26888 0.11637,0.3986 0.0763,0.22096 0.13438,0.41883 0.28163,0.60701 0.0842,0.22902 0.18532,0.44759 0.25827,0.6822 0.0377,0.28539 0.144,0.56626 0.28387,0.81763 0.16353,0.24224 0.1628,0.54477 0.21114,0.82499 0.0793,0.38095 0.11711,0.76798 0.1926,1.1489 0.0991,0.48188 0.20478,0.97015 0.23957,1.46308 0.0792,0.33373 0.15659,0.66496 0.19614,1.00641 0.0599,0.10036 0.0586,0.17726 0.1748,0.1001 0,0 -0.28518,0.21048 -0.28518,0.21048 l 0,0 c -0.13547,0.0172 -0.14864,-0.0373 -0.20753,-0.15493 -0.0357,-0.34294 -0.11225,-0.67506 -0.19307,-1.00953 -0.0322,-0.49188 -0.13879,-0.97841 -0.23759,-1.45898 -0.0775,-0.38069 -0.11607,-0.76776 -0.19469,-1.14889 -0.0482,-0.27633 -0.0483,-0.57416 -0.2064,-0.81417 -0.14004,-0.25312 -0.25175,-0.53641 -0.28823,-0.82365 -0.0704,-0.23139 -0.17188,-0.44485 -0.25262,-0.67074 -0.14747,-0.19203 -0.21042,-0.39265 -0.28726,-0.61656 -0.0481,-0.12871 -0.0479,-0.27249 -0.11641,-0.40026 -0.0563,-0.17961 -0.0965,-0.35588 -0.11419,-0.54108 -0.13693,-0.12078 -0.28258,-0.25373 -0.33749,-0.43265 -0.0883,-0.17944 -0.18342,-0.29591 -0.1626,-0.5164 -0.0785,-0.33055 -0.29057,-0.63102 -0.26327,-0.98548 0,0 0.31832,-0.15271 0.31832,-0.15271 z"
       inkscape:connector-curvature="0" />
    <path
       style="fill:#ffffff;stroke:#ffffff;stroke-width:8;stroke-miterlimit:4;stroke-opacity:1;stroke-dasharray:none"
       id="path3061"
       d="m 439.76181,644.8731 c 0.15462,1.00634 0.60217,1.91583 0.84178,2.90002 0.23859,0.88942 0.28383,1.82348 0.57798,2.69557 0.31146,1.0165 0.65709,2.01779 1.09349,2.98929 0.93155,1.84888 2.21048,3.4509 3.62825,4.94677 2.01334,1.78499 4.20775,3.35192 6.30269,5.03764 1.31606,1.05606 2.67514,2.0638 3.79719,3.33213 0.86271,1.02078 1.47468,2.21963 2.1069,3.38889 1.21368,1.70495 1.7894,3.7176 2.41555,5.68663 1.18853,2.78082 2.72704,5.39547 4.24004,8.00874 0.86303,1.40274 1.43571,2.95484 2.09698,4.45715 0.20149,0.4532 0.41023,0.90309 0.62017,1.35241 0,0 -0.62097,0.32927 -0.62097,0.32927 l 0,0 c -0.2059,-0.45186 -0.41109,-0.90406 -0.61189,-1.35822 -0.65955,-1.50061 -1.22711,-3.05192 -2.08226,-4.45668 -1.49799,-2.62742 -3.03195,-5.24809 -4.24233,-8.02379 -0.63007,-1.96269 -1.21066,-3.96881 -2.42167,-5.66889 -0.63424,-1.16239 -1.24892,-2.35268 -2.10343,-3.3729 -1.11919,-1.2649 -2.47093,-2.27177 -3.78147,-3.32791 -2.09249,-1.69217 -4.27981,-3.27084 -6.30111,-5.04891 -1.42801,-1.49767 -2.7125,-3.10565 -3.65443,-4.9584 -0.44536,-0.96988 -0.79246,-1.97282 -1.10358,-2.9917 -0.30084,-0.8739 -0.34252,-1.80906 -0.57703,-2.70293 -0.24463,-0.98692 -0.68553,-1.90249 -0.85748,-2.90875 0,0 0.63663,-0.30543 0.63663,-0.30543 z"
       inkscape:connector-curvature="0" />
    <path
       style="fill:#ffffff;stroke:#ffffff;stroke-width:8;stroke-miterlimit:4;stroke-opacity:1;stroke-dasharray:none"
       id="path3063"
       d="m 459.75066,690.84938 c 2.64792,1.80959 4.32057,4.66397 6.03771,7.29845 1.36744,2.23462 2.65124,4.49779 4.21085,6.60668 0.835,1.06357 1.5791,2.21049 2.54529,3.16159 1.39489,1.3358 2.88646,2.57218 4.35606,3.83392 2.25303,1.59753 3.6439,3.80089 4.65545,6.31745 0.78533,2.72214 0.94135,5.57076 1.29549,8.36957 0.23368,1.69064 0.59222,3.34098 1.04354,4.98341 0.21128,1.29752 0.22563,2.61904 0.32617,3.92906 0.46206,3.14427 1.49062,6.15403 2.77963,9.04705 1.34302,2.87026 2.80084,5.68744 4.22804,8.51753 1.04159,1.49594 1.81786,3.14958 2.60545,4.7869 0.2953,1.06024 0.80234,2.00116 1.35809,2.94201 0.75054,1.31635 1.74195,2.46867 2.81154,3.5331 2.06708,1.75676 4.25734,3.39155 6.54836,4.84739 1.47731,0.95982 3.1179,1.5956 4.61979,2.5053 1.14707,0.61266 1.92778,1.21938 2.1525,2.5383 0.0898,1.08215 -0.098,2.15248 -0.0808,3.2337 0,0 -0.63159,0.30196 -0.63159,0.30196 l 0,0 c -0.0187,-1.08012 0.16953,-2.14589 0.0911,-3.22714 -0.21489,-1.2951 -1.00521,-1.88375 -2.12514,-2.48521 -1.49921,-0.90648 -3.13031,-1.55575 -4.6007,-2.5187 -2.29377,-1.46265 -4.48844,-3.09993 -6.56561,-4.85414 -1.07674,-1.06777 -2.07784,-2.21816 -2.83205,-3.54177 -0.55764,-0.94328 -1.06907,-1.88275 -1.35769,-2.94903 -0.78491,-1.63818 -1.54843,-3.29747 -2.5903,-4.79359 -1.41998,-2.83515 -2.86379,-5.66049 -4.21045,-8.53035 -1.29325,-2.89674 -2.3352,-5.90741 -2.8174,-9.05357 -0.10444,-1.30437 -0.13295,-2.61812 -0.33149,-3.912 -0.44101,-1.65037 -0.79524,-3.30652 -1.02682,-5.00252 -0.3478,-2.79418 -0.50406,-5.637 -1.28638,-8.35469 -1.00921,-2.50785 -2.39334,-4.69894 -4.64164,-6.288 -1.47827,-1.25694 -2.97277,-2.49392 -4.37306,-3.8296 -0.96877,-0.95398 -1.71574,-2.10213 -2.54738,-3.1731 -1.54543,-2.1198 -2.82013,-4.38835 -4.18329,-6.6262 -1.70751,-2.62026 -3.3765,-5.48824 -6.05515,-7.23258 0,0 0.59179,-0.38118 0.59179,-0.38118 z"
       inkscape:connector-curvature="0" />
    <path
       style="fill:#ffffff;stroke:#ffffff;stroke-width:8;stroke-miterlimit:4;stroke-opacity:1;stroke-dasharray:none"
       id="path3065"
       d="m 518.23713,828.7264 c 2.12062,-2.42531 4.25232,-4.83532 6.40225,-7.23492 1.90086,-2.17371 3.90531,-4.27758 5.57118,-6.64356 1.15845,-2.16987 1.19543,-4.92156 1.29149,-7.33945 -0.0758,-3.198 -0.75803,-6.28959 -1.63343,-9.34832 -0.65008,-2.05626 -1.24046,-4.1313 -1.92093,-6.17686 -0.77764,-2.64605 -1.26216,-3.99259 -3.6471,-5.46751 -2.57293,-1.47573 -5.22816,-2.79079 -7.93688,-3.99608 -1.41105,-0.66982 -3.0435,-1.01183 -4.54697,-0.47608 -0.19566,0.10693 -0.41026,0.18482 -0.58697,0.32079 -0.0276,0.0213 0.0735,0.0623 0.0528,0.0903 -0.30033,0.40596 -0.71168,0.72033 -1.01898,1.12104 -0.46818,0.61047 -0.64147,0.94374 -1.03814,1.60603 -0.66002,1.36694 -1.4917,2.63939 -2.19558,3.98214 -0.8958,1.91241 -1.47746,3.95503 -2.10255,5.96719 -0.60253,1.93806 -1.29396,3.84989 -1.349,5.89513 0.11773,1.20897 0.76995,2.24575 1.21899,3.34955 0.53029,1.35095 1.58719,2.41915 2.528,3.50505 1.16809,1.28557 2.43069,2.49139 3.73602,3.63768 1.00199,0.91092 2.1633,1.61545 3.31163,2.32306 1.03825,0.70236 1.9561,1.55628 2.97956,2.27809 0.16157,0.11565 0.33036,0.22001 0.50085,0.32159 0,0 -0.60787,0.37111 -0.60787,0.37111 l 0,0 c -0.16857,-0.10595 -0.33589,-0.21383 -0.49698,-0.3311 -1.01245,-0.73007 -1.92389,-1.58506 -2.95918,-2.28492 -1.15285,-0.70975 -2.33256,-1.39924 -3.32691,-2.32768 -1.30061,-1.1555 -2.56224,-2.36403 -3.73528,-3.64867 -0.94812,-1.09001 -2.01256,-2.1623 -2.54688,-3.52072 -0.45081,-1.11393 -1.11059,-2.15723 -1.22614,-3.37783 0.049,-2.05446 0.74881,-3.97412 1.35676,-5.91929 0.62167,-2.01155 1.19599,-4.05455 2.07931,-5.97058 0.6979,-1.34934 1.54595,-2.61645 2.20206,-3.98911 0.96102,-1.62081 1.97682,-3.05104 3.78492,-3.81087 1.52729,-0.49128 3.14132,-0.16094 4.56098,0.52863 2.70404,1.2212 5.36118,2.53836 7.94279,4.00305 2.40093,1.48991 2.88311,2.84727 3.66488,5.51126 0.68842,2.04434 1.29659,4.11508 1.92011,6.18068 0.87318,3.06651 1.55391,6.16545 1.6387,9.36933 -0.0905,2.3672 -0.1319,5.24259 -1.25274,7.36509 -1.67442,2.37759 -3.7055,4.47895 -5.6106,6.66756 -2.13604,2.3868 -4.25008,4.78644 -6.34918,7.20541 0,0 -0.65496,0.26385 -0.65496,0.26385 z"
       inkscape:connector-curvature="0" />
    <path
       style="fill:#ffffff;stroke:#ffffff;stroke-width:8;stroke-miterlimit:4;stroke-opacity:1;stroke-dasharray:none"
       id="path3067"
       d="m 515.61777,801.86187 c -0.26838,-1.78866 -0.48899,-3.58117 -0.72991,-5.37386 -0.13484,-0.48867 -0.0745,-1.01216 -0.19073,-1.50393 -0.0209,-0.0886 -0.19414,-0.17397 -0.13102,-0.23951 0.0992,-0.10311 0.38769,-0.2035 0.42442,-0.0652 0.0779,0.29324 -0.21691,0.5833 -0.20627,0.88654 0.0254,0.72891 0.20856,1.44372 0.31283,2.16559 1.67764,5.62964 4.91901,10.5953 7.17029,15.99011 1.50617,3.6093 1.89356,5.16491 3.02744,8.83973 0.94909,2.89398 1.30412,5.93645 2.09592,8.86798 0.10808,0.40019 0.23684,0.7973 0.40873,1.17452 0.0811,0.17792 0.43568,0.30338 0.34324,0.47567 -0.0922,0.17172 -0.38936,-0.0179 -0.58407,-0.0268 -1.40934,-3.64368 -3.44828,-6.99232 -4.88007,-10.63553 -1.32074,-3.36062 -1.76158,-5.15599 -2.76807,-8.60308 -1.63561,-5.02706 -2.37341,-10.2921 -4.02466,-15.30753 -1.6364,-3.90531 -4.12992,-7.3585 -6.50021,-10.84108 1.21232,1.02267 -0.92074,-0.83919 -0.5935,-0.79379 0.43403,0.0602 0.95691,0.0556 1.26096,0.37133 1.32575,1.37474 2.61779,5.61373 3.03642,6.87282 0.64372,1.93607 1.20515,3.89852 1.80772,5.84778 3.61638,11.97236 7.19933,23.95827 11.38971,35.745 1.12346,2.65529 1.73325,5.53255 3.01101,8.12796 0.16571,0.3366 0.58956,0.577 0.60041,0.95202 0.005,0.191 -0.47887,0.15681 -0.57314,-0.009 -0.38444,-0.67772 -0.46513,-1.48729 -0.69769,-2.23094 -2.21018,-16.30941 -7.11076,-32.07421 -12.09826,-47.7081 -0.57087,-1.71744 -1.15583,-3.43025 -1.71261,-5.1523 -0.33284,-1.02943 -0.58592,-2.08509 -0.95612,-3.10168 -0.0581,-0.15966 -0.33868,-0.56681 -0.31837,-0.39811 0.0841,0.69863 0.42613,1.34898 0.51689,2.04678 0.19236,1.47878 0.17571,2.97829 0.32972,4.46155 0.19964,1.92267 0.48724,3.8352 0.73087,5.75279 1.3579,10.70155 3.70373,21.25971 6.37779,31.70268 -1.12182,1.28875 1.25787,2.2426 1.02663,3.40544 -0.0447,0.22452 -0.53925,0.36965 -0.66343,0.17735 -0.33116,-0.51281 -0.28277,-1.18888 -0.37906,-1.79169 -0.17299,-1.08299 -0.27541,-2.17616 -0.42822,-3.26218 -0.19299,-1.37161 -0.40609,-2.74031 -0.60914,-4.11046 -0.73992,-5.94359 -1.57471,-11.87406 -2.24595,-17.82595 -0.35961,-2.67707 -1.58117,-4.90826 -3.34724,-6.896 0.0404,-0.0622 -1.1252,-1.22303 -1.32154,-0.76589 -0.0443,0.10316 0.30946,-0.0715 0.33469,0.038 0.052,0.22533 -0.13839,0.44348 -0.1708,0.67244 -0.044,0.31241 -0.0381,0.62984 -0.0571,0.94476 0.20372,1.56021 0.17841,3.16558 0.54999,4.70055 0.28064,0.0419 0.13948,0.0134 -0.42923,0.0492 0,0 0.64494,-0.28437 0.64494,-0.28437 l 0,0 c -0.75014,0.66416 -0.43933,0.79205 -0.84366,0.55213 -0.35376,-1.54707 -0.32686,-3.15839 -0.54256,-4.72619 0.008,-0.17291 0.0131,-1.40245 0.19792,-1.6491 0.8806,-1.17508 1.48965,-0.68789 2.23336,0.12995 1.76019,2.00959 2.989,4.25193 3.34556,6.94362 0.63668,5.96287 1.41223,11.90866 2.17906,17.85602 0.37747,2.44399 0.66683,4.90214 1.09854,7.33714 0.10546,0.59481 0.46142,1.1599 0.42115,1.76264 -0.0162,0.24358 -0.37014,0.60091 -0.56965,0.46024 -0.97384,-0.68668 0.40847,-3.14301 -0.972,-3.44013 -2.57708,-10.47496 -4.90848,-21.0406 -6.31345,-31.74228 -0.25608,-1.91252 -0.54998,-3.82036 -0.76825,-5.73756 -0.34232,-3.00696 -0.83583,-4.4429 0.28614,-7.09852 0.0676,-0.15997 0.20137,0.28924 0.25446,0.45458 0.3318,1.03349 0.57626,2.09337 0.89655,3.13049 0.53489,1.73192 1.11244,3.45038 1.66866,5.17557 2.53295,8.12763 4.99874,16.26466 7.21101,24.48721 0.84516,3.1413 1.72514,6.27529 2.44929,9.44667 0.6223,2.72535 1.96704,10.37007 2.565,13.70807 0.25547,0.74395 0.7383,1.44577 0.76639,2.23186 0.0109,0.30471 -0.37027,0.71002 -0.66416,0.62889 -0.36451,-0.1011 -0.42232,-0.6311 -0.58353,-0.97331 -1.23455,-2.62071 -1.83267,-5.50031 -2.93689,-8.17011 -4.12625,-11.81172 -7.6856,-23.80632 -11.35423,-35.76554 -0.82186,-2.59773 -2.28594,-7.58941 -3.51345,-10.25867 -1.27889,-2.78097 -1.5549,-1.39347 -1.49375,-3.40192 0.002,-0.0687 0.0427,0.13067 0.0641,0.19603 0.16426,0.19981 0.32854,0.39964 0.4928,0.59945 2.33985,3.50941 4.82668,6.97002 6.48543,10.86948 1.66439,5.02028 2.34382,10.30041 3.96398,15.34113 1.00641,3.45755 1.43374,5.22748 2.77085,8.5929 1.44978,3.64897 3.50533,6.9937 5.00078,10.61419 -0.22142,0.21959 -0.35618,0.61045 -0.66426,0.65876 -0.17087,0.0268 -0.51552,-0.88265 -0.72175,-1.6957 -0.7475,-2.94718 -1.09784,-5.9911 -2.03111,-8.89535 -1.12966,-3.69402 -1.49878,-5.2127 -3.01174,-8.8393 -2.253,-5.40045 -5.50251,-10.35769 -7.25221,-15.96709 -0.0287,-0.1737 -0.65638,-2.42525 -0.18337,-3.08545 1.19307,-1.66523 1.07696,0.72399 1.16842,1.25232 0.23654,1.78751 0.45853,3.57397 0.74345,5.35434 0,0 -0.62725,0.32174 -0.62725,0.32174 z"
       inkscape:connector-curvature="0" />
    <path
       style="fill:#ffffff;stroke:#ffffff;stroke-width:8;stroke-miterlimit:4;stroke-opacity:1;stroke-dasharray:none"
       id="path3069"
       d="m 502.66605,762.96115 c -0.67798,2.20811 -1.34275,4.42024 -2.0058,6.63287 -0.47196,1.57869 -0.94296,3.15768 -1.41052,4.7377 -0.10265,0.3488 -0.0931,0.18544 -0.0643,0.48646 0,0 -0.63554,0.31131 -0.63554,0.31131 l 0,0 c -0.0417,-0.3283 -0.0517,-0.15592 0.0579,-0.5148 0.48248,-1.58243 0.96113,-3.16604 1.43845,-4.75004 0.66304,-2.20461 1.32503,-4.40955 1.97331,-6.61856 0,0 0.64651,-0.28495 0.64651,-0.28495 z"
       inkscape:connector-curvature="0" />
    <path
       style="fill:#ffffff;stroke:#ffffff;stroke-width:8;stroke-miterlimit:4;stroke-opacity:1;stroke-dasharray:none"
       id="path3071"
       d="m 507.97026,775.63014 c 0.11736,0.40798 0.71957,0.89305 0.55729,1.33818 -0.4843,0.55912 -0.93676,0.42635 -1.48874,0.25905 -0.89912,-0.33858 -1.86168,-0.39972 -2.8074,-0.52536 -0.56134,-0.0697 -1.12145,-0.14356 -1.67998,-0.23267 0,0 0.58269,-0.38648 0.58269,-0.38648 l 0,0 c 0.55632,0.0881 1.11399,0.16444 1.67282,0.23529 0.95184,0.12631 1.92037,0.18797 2.82671,0.52568 0.58869,0.16946 0.95926,-0.0543 0.16224,0.43409 -0.0237,0.0145 0.0502,-0.0238 0.0753,-0.0358 0.24833,-0.31567 -0.4482,-0.95952 -0.52342,-1.27705 0,0 0.62254,-0.33501 0.62254,-0.33501 z"
       inkscape:connector-curvature="0" />
    <path
       style="fill:#ffffff;stroke:#ffffff;stroke-width:8;stroke-miterlimit:4;stroke-opacity:1;stroke-dasharray:none"
       id="path3073"
       d="m 484.76759,726.2478 c 0.71127,1.83152 1.79219,3.48474 2.70002,5.21812 1.36483,2.00108 2.9401,3.83957 4.30615,5.83874 1.01878,1.59001 2.09818,3.16021 2.89381,4.87654 0.42262,0.89022 0.85833,1.77439 1.31511,2.64761 0.10643,0.98872 0.33153,2.00931 0.55862,2.99137 0.31944,2.09339 0.6147,4.19316 1.19178,6.2342 0.24912,0.72786 0.4924,1.47208 0.88322,2.13963 0.0132,0.0195 0.0264,0.0391 0.0396,0.0587 0.0854,0.0288 0.1705,0.0585 0.25588,0.0873 0,0 -0.59605,0.37744 -0.59605,0.37744 l 0,0 c -0.30695,-0.13153 -0.22865,-0.0348 -0.32426,-0.18486 -0.38162,-0.68005 -0.62418,-1.42969 -0.87054,-2.16572 -0.57203,-2.04339 -0.86438,-4.14383 -1.19296,-6.23668 -0.23904,-0.97171 -0.46473,-1.9843 -0.56965,-2.96671 -0.44475,-0.88069 -0.87584,-1.76824 -1.29856,-2.65971 -0.79219,-1.71397 -1.8684,-3.28137 -2.88289,-4.86967 -1.35946,-2.0071 -2.94047,-3.84474 -4.31027,-5.84543 -0.91015,-1.73736 -1.98334,-3.39599 -2.72627,-5.21892 0,0 0.62724,-0.32174 0.62724,-0.32174 z"
       inkscape:connector-curvature="0" />
    <path
       style="fill:#ffffff;stroke:#ffffff;stroke-width:8;stroke-miterlimit:4;stroke-opacity:1;stroke-dasharray:none"
       id="path3075"
       d="m 471.57984,698.41784 c 0.72042,2.5898 1.32713,5.20325 1.85572,7.83916 0.33767,2.18122 0.5723,4.37448 0.70106,6.57749 0.0327,0.14666 0.0654,0.29332 0.0981,0.43997 0,0 -0.62573,0.31478 -0.62573,0.31478 l 0,0 c -0.0331,-0.15075 -0.0662,-0.30147 -0.0993,-0.45221 -0.10549,-2.20495 -0.3355,-4.39902 -0.67128,-6.58115 -0.52452,-2.62774 -1.12282,-5.23342 -1.87793,-7.80477 0,0 0.61933,-0.33327 0.61933,-0.33327 z"
       inkscape:connector-curvature="0" />
    <path
       style="fill:#ffffff;stroke:#ffffff;stroke-width:8;stroke-miterlimit:4;stroke-opacity:1;stroke-dasharray:none"
       id="path3077"
       d="m 467.90012,690.51021 c 0.53559,1.38062 1.02635,2.80651 1.5977,4.18159 0.66892,1.05376 0.71591,2.19731 0.77226,3.41007 0.29377,2.49307 0.80447,4.97519 1.81557,7.28017 1.01488,2.25891 2.85157,3.86012 4.73147,5.39053 1.84318,1.87525 3.91506,3.5922 5.41353,5.77025 0.38208,0.79021 1.11024,1.43758 1.48746,2.22397 0.0824,0.17184 0.39714,1.34995 0.44166,1.51187 0.14697,1.0643 0.31587,2.1213 0.55674,3.16841 0,0 -0.62159,0.31305 -0.62159,0.31305 l 0,0 c -0.23274,-1.04801 -0.40072,-2.10523 -0.54974,-3.16832 -0.0391,-0.14159 -0.35729,-1.32416 -0.43556,-1.48624 -0.37978,-0.78647 -1.09879,-1.43861 -1.47922,-2.23143 -1.48388,-2.17891 -3.54531,-3.89948 -5.39094,-5.76068 -1.89128,-1.53726 -3.73741,-3.14061 -4.7562,-5.41361 -1.0041,-2.31459 -1.51516,-4.80299 -1.8335,-7.29891 -0.0622,-1.20201 -0.10999,-2.33824 -0.76542,-3.38699 -0.56606,-1.37496 -1.04623,-2.80006 -1.60676,-4.16873 0,0 0.62254,-0.335 0.62254,-0.335 z"
       inkscape:connector-curvature="0" />
    <path
       style="fill:#ffffff;stroke:#ffffff;stroke-width:8;stroke-miterlimit:4;stroke-opacity:1;stroke-dasharray:none"
       id="path3079"
       d="m 475.98363,700.5895 c -0.049,1.37357 0.41553,2.67593 0.98441,3.90289 0,0 -0.61142,0.32416 -0.61142,0.32416 l 0,0 c -0.5665,-1.23723 -1.03229,-2.54727 -1.00969,-3.92758 0,0 0.6367,-0.29947 0.6367,-0.29947 z"
       inkscape:connector-curvature="0" />
    <path
       style="fill:#ffffff;stroke:#ffffff;stroke-width:8;stroke-miterlimit:4;stroke-opacity:1;stroke-dasharray:none"
       id="path3081"
       d="m 476.14934,717.69359 c 0.4152,1.51585 0.8051,3.03975 1.13113,4.57761 0.0681,0.80872 0.26862,1.59441 0.49743,2.3698 0,0 -0.62404,0.31908 -0.62404,0.31908 l 0,0 c -0.22381,-0.77923 -0.42496,-1.56784 -0.49084,-2.37902 -0.32221,-1.53554 -0.70323,-3.05914 -1.14092,-4.56574 0,0 0.62724,-0.32173 0.62724,-0.32173 z"
       inkscape:connector-curvature="0" />
    <path
       style="fill:#ffffff;stroke:#ffffff;stroke-width:8;stroke-miterlimit:4;stroke-opacity:1;stroke-dasharray:none"
       id="path3083"
       d="m 446.48171,659.75299 c -0.30984,3.04841 1.00584,5.83839 2.44794,8.44024 1.26021,2.24564 2.81266,4.29899 4.35172,6.35523 0.93351,1.24612 1.86776,2.49171 2.80263,3.73681 0.27406,0.31062 0.56812,0.47512 0.71602,0.88186 0.27589,0.82753 0.94389,1.51312 1.51615,2.15714 0.63826,0.58383 1.09469,1.30842 1.57718,2.01874 0.19351,0.28573 0.38571,0.57235 0.57713,0.8595 0,0 -0.62177,0.34171 -0.62177,0.34171 l 0,0 c -0.18774,-0.28889 -0.37721,-0.57667 -0.56964,-0.86249 -0.47965,-0.70759 -0.93918,-1.42615 -1.56688,-2.0142 -0.57386,-0.65 -1.25738,-1.34685 -1.54212,-2.17359 -0.1392,-0.3987 -0.44802,-0.5486 -0.70105,-0.86624 -0.91769,-1.25619 -1.84416,-2.50597 -2.78007,-3.74865 -1.55821,-2.04581 -3.06951,-4.13123 -4.33701,-6.374 -1.44618,-2.60815 -2.77231,-5.40073 -2.50606,-8.45668 0,0 0.63583,-0.29538 0.63583,-0.29538 z"
       inkscape:connector-curvature="0" />
    <path
       style="fill:#ffffff;stroke:#ffffff;stroke-width:8;stroke-miterlimit:4;stroke-opacity:1;stroke-dasharray:none"
       id="path3085"
       d="m 444.29893,650.41149 c 1.33015,0.32518 2.41411,0.7155 3.54124,1.50062 0.71561,0.56851 1.43135,1.13193 2.20195,1.62476 0,0 -0.60487,0.36579 -0.60487,0.36579 l 0,0 c -0.76336,-0.5011 -1.47612,-1.06605 -2.18967,-1.63473 -1.09209,-0.75492 -2.24893,-1.17023 -3.54044,-1.47526 0,0 0.59179,-0.38118 0.59179,-0.38118 z"
       inkscape:connector-curvature="0" />
    <path
       style="fill:#ffffff;stroke:#ffffff;stroke-width:8;stroke-miterlimit:4;stroke-opacity:1;stroke-dasharray:none"
       id="path3087"
       d="m 436.24207,651.9725 c 0.30537,-0.99607 0.60116,-1.99503 0.90269,-2.99226 0.24145,-0.8006 0.47906,-1.60234 0.71955,-2.40322 0,0 0.64223,-0.28307 0.64223,-0.28307 l 0,0 c -0.24112,0.80193 -0.48453,1.60316 -0.7244,2.40546 -0.29707,0.99628 -0.59989,1.99084 -0.89313,2.98826 0,0 -0.64652,0.28496 -0.64652,0.28496 z"
       inkscape:connector-curvature="0" />
    <path
       style="fill:#000000;stroke:#000000;stroke-width:8;stroke-miterlimit:4;stroke-opacity:1;stroke-dasharray:none"
       id="path3091"
       d="m 436.00972,637.01669 c 5.88166,2.48778 11.34054,5.88393 16.74699,9.24495 8.52913,5.30229 13.20399,8.33614 21.35043,14.35368 3.41209,2.52042 6.70993,5.19194 10.06488,7.7879 3.00197,2.44806 6.02128,4.87499 9.00589,7.34416 7.06695,5.84644 8.06994,6.98981 15.1299,12.39851 5.2409,4.0151 10.70024,7.75252 16.14473,11.48322 3.26405,2.27719 6.63664,4.38236 10.1198,6.30424 0.80035,0.43443 1.61056,0.85018 2.42676,1.25386 0,0 -0.75529,0.65178 -0.75529,0.65178 l 0,0 c -0.81001,-0.41268 -1.61531,-0.83457 -2.41273,-1.27115 -3.47192,-1.92584 -6.79576,-4.09045 -10.03317,-6.38961 -5.40492,-3.77181 -10.83577,-7.53659 -16.053,-11.56674 -7.20887,-5.56863 -7.84133,-6.42176 -15.07461,-12.44523 -2.97455,-2.47705 -5.98598,-4.90947 -8.97897,-7.36421 -3.35055,-2.59844 -6.64047,-5.277 -10.05164,-7.79531 -8.06132,-5.95126 -12.93231,-9.10979 -21.42187,-14.28666 -5.45554,-3.32675 -10.9939,-6.64715 -16.92753,-9.06963 0,0 0.71943,-0.63376 0.71943,-0.63376 z"
       inkscape:connector-curvature="0" />
    <path
       style="fill:#000000;stroke:#000000;stroke-width:8;stroke-miterlimit:4;stroke-opacity:1;stroke-dasharray:none"
       id="path3097"
       d="m 541.05235,709.7918 c 2.07132,0.70394 4.23966,1.14683 6.25043,2.02706 0.8921,0.39051 3.45118,1.80039 4.26552,2.24128 1.79432,1.04856 3.53702,2.18223 5.24874,3.35987 0.23769,0.16357 1.80441,1.26349 1.8081,1.28683 0.12228,0.7761 -0.19936,1.55866 -0.29903,2.33799 -0.44203,1.37995 -0.79345,2.79227 -1.32601,4.13986 -2.28883,5.79206 -5.56217,11.17593 -8.36073,16.72062 -2.35441,4.66473 -5.66464,11.69424 -7.85961,16.30408 -6.05009,12.7681 -11.85159,25.6533 -18.02666,38.36224 0,0 -0.7508,0.46655 -0.7508,0.46655 l 0,0 c 6.23778,-12.73031 12.13078,-25.62393 18.16833,-38.44938 1.93845,-4.09395 5.66869,-12.04181 7.78614,-16.262 2.77398,-5.52869 6.0453,-10.88936 8.30339,-16.66709 0.52054,-1.33189 0.85568,-2.72898 1.28347,-4.09347 0.10914,-0.74347 0.43828,-1.48738 0.3274,-2.23039 -0.004,-0.0263 -1.55381,-1.13526 -1.78818,-1.29918 -1.69822,-1.18771 -3.43185,-2.32604 -5.22395,-3.36804 -0.84144,-0.45307 -3.34298,-1.82581 -4.26411,-2.22416 -2.02065,-0.87384 -4.19752,-1.3143 -6.28472,-1.98928 0,0 0.74228,-0.66336 0.74228,-0.66336 z"
       inkscape:connector-curvature="0" />
    <path
       style="fill:#000000;stroke:#000000;stroke-width:8;stroke-miterlimit:4;stroke-opacity:1;stroke-dasharray:none"
       id="path3117"
       d="m 525.18352,801.19051 c 0.67068,2.89309 0.81416,5.87673 1.08252,8.82629 0.259,4.21718 0.69862,8.43687 0.71127,12.66531 0.0429,1.53234 -0.006,3.06545 -0.25003,4.57968 -0.13474,0.94052 -0.19678,1.09557 -0.99845,1.6088 -0.77519,0.001 -1.55041,-0.3116 -2.28796,-0.53388 -1.58659,-0.57195 -2.85798,-1.71583 -4.13186,-2.78441 -1.8649,-1.50941 -3.31361,-3.29857 -4.40513,-5.42479 -0.81218,-1.87623 -0.7022,-3.91669 -0.51553,-5.90519 0.20776,-1.2152 0.35445,-2.43167 0.40896,-3.66335 0.13395,-0.97095 0.077,-1.95219 0.0633,-2.92841 0.0561,-1.21887 0.1293,-2.43794 0.21213,-3.65571 0.13337,-1.2301 0.27162,-2.46323 0.52964,-3.67443 0.0195,-0.2832 0.0511,-0.58428 -0.0143,-0.86563 -0.0113,-0.0489 -0.13164,-0.0865 -0.093,-0.11854 0.10474,-0.0866 0.22752,-0.14864 0.34128,-0.22296 0,0 -0.43579,0.24962 -0.43579,0.24962 l 0,0 c 0.1593,-0.1175 0.30577,-0.25474 0.47791,-0.35249 0.25794,-0.14648 0.0588,1.24287 0.13573,1.03999 -0.2635,1.21095 -0.41378,2.44361 -0.54345,3.67516 -0.0808,1.21518 -0.14377,2.43175 -0.20698,3.64752 0.011,0.97597 0.0763,1.95738 -0.0576,2.92811 -0.0624,1.23562 -0.20679,2.4568 -0.42249,3.67528 -0.1918,1.98004 -0.3043,4.01453 0.49606,5.88598 1.08545,2.12362 2.52815,3.90822 4.39375,5.40974 1.27155,1.06391 2.54686,2.19445 4.13028,2.76001 0.72975,0.21495 1.50869,0.53927 2.27615,0.50297 -0.0735,0.0812 -0.15594,0.15528 -0.2208,0.24362 -0.0339,0.0462 0.0847,-0.0773 0.12701,-0.11593 0.0396,-0.0584 0.0907,-0.1104 0.11858,-0.17515 0.12517,-0.29065 0.12485,-0.63486 0.21352,-0.93502 0.25536,-1.51554 0.31139,-3.05167 0.27524,-4.58728 0.0124,-4.23435 -0.39918,-8.4629 -0.6765,-12.68436 -0.2808,-2.93626 -0.42959,-5.91597 -1.14433,-8.78685 0,0 0.41083,-0.28373 0.41083,-0.28373 z"
       inkscape:connector-curvature="0" />
    <path
       style="fill:#ffffff;stroke:#ffffff;stroke-width:8;stroke-miterlimit:4;stroke-opacity:1;stroke-dasharray:none"
       id="path3119"
       d="m 499.95795,772.97829 c 0.30116,1.07636 0.41939,2.1981 0.57189,3.30378 0.17434,0.71201 -0.0467,1.39044 -0.13377,2.09232 -0.13555,0.87301 -0.19644,1.72367 -0.13599,2.60308 -0.0309,0.4522 0.12956,0.87337 0.17221,1.31319 0.0136,0.37471 -0.004,0.75014 -0.0421,1.12294 0.0563,0.0834 0.0211,0.0446 0.10961,0.11279 0,0 -0.38696,0.32008 -0.38696,0.32008 l 0,0 c -0.1067,-0.0878 -0.0597,-0.037 -0.14013,-0.15321 0.0447,-0.37063 0.0634,-0.74462 0.0525,-1.11785 -0.0369,-0.44108 -0.21226,-0.86063 -0.17133,-1.31518 -0.0584,-0.88268 -0.003,-1.73617 0.1335,-2.61252 0.0807,-0.69818 0.30753,-1.37391 0.14141,-2.0825 -0.14415,-1.09987 -0.26119,-2.21632 -0.56857,-3.28411 0,0 0.39773,-0.30283 0.39773,-0.30283 z"
       inkscape:connector-curvature="0" />
    <path
       style="fill:#ffffff;stroke:#ffffff;stroke-width:8;stroke-miterlimit:4;stroke-opacity:1;stroke-dasharray:none"
       id="path3121"
       d="m 504.79398,779.704 c 0.22875,0.49263 0.64336,0.82975 1.08139,1.1283 0.35398,0.14535 0.60898,0.33981 0.77971,0.68356 0,0 -0.40055,0.30237 -0.40055,0.30237 l 0,0 c -0.1616,-0.34044 -0.41756,-0.5185 -0.76078,-0.66566 -0.44128,-0.30628 -0.86067,-0.64978 -1.0975,-1.14573 0,0 0.39773,-0.30284 0.39773,-0.30284 z"
       inkscape:connector-curvature="0" />
    <path
       style="fill:#ffffff;stroke:#ffffff;stroke-width:8;stroke-miterlimit:4;stroke-opacity:1;stroke-dasharray:none"
       id="path3123"
       d="m 537.19476,822.27328 c -1.02732,1.43665 -1.64729,3.10965 -2.27447,4.74688 -0.55994,1.49964 -1.05267,3.02295 -1.52296,4.55266 -0.11342,0.37076 -0.22325,0.74258 -0.33066,1.11511 0,0 -0.42026,0.27111 -0.42026,0.27111 l 0,0 c 0.11143,-0.37454 0.22461,-0.74856 0.34002,-1.1219 0.4758,-1.53344 0.97513,-3.06002 1.53601,-4.56475 0.62266,-1.63155 1.23294,-3.30355 2.24768,-4.74 0,0 0.42475,-0.25908 0.42475,-0.25908 z"
       inkscape:connector-curvature="0" />
    <path
       style="fill:#ffffff;stroke:#ffffff;stroke-width:8;stroke-miterlimit:4;stroke-opacity:1;stroke-dasharray:none"
       id="path3125"
       d="m 515.69493,786.75037 c -0.62398,0.69158 -1.284,1.34982 -1.96463,1.98645 -0.89003,0.95047 -1.78838,1.9013 -2.7834,2.7432 -0.75155,0.62905 -1.45848,1.29489 -2.23808,1.88853 0.69161,-0.46028 -0.94863,0.80482 -1.14934,0.95547 -0.47124,0.22815 -0.26617,0.29594 -1.08806,0.70063 0,0 0.34645,-0.36015 0.34645,-0.36015 l 0,0 c 0.11465,-0.0581 0.36062,-0.31034 0.33905,-0.18364 -0.0147,0.0865 -0.26446,0.2307 -0.19483,0.17723 0.31478,-0.24173 0.58985,-0.50629 0.93706,-0.69726 -0.65214,0.58572 0.97837,-0.82513 1.14823,-0.9556 -0.0526,0.0468 -0.21537,0.18056 -0.15763,0.14036 0.58789,-0.40925 1.02791,-1.029 1.63157,-1.42512 0.99942,-0.8373 1.90082,-1.7868 2.7863,-2.74192 0.67794,-0.63343 1.33083,-1.28958 1.95908,-1.97146 0,0 0.42823,-0.25672 0.42823,-0.25672 z"
       inkscape:connector-curvature="0" />
    <path
       style="fill:#ffffff;stroke:#ffffff;stroke-width:8;stroke-miterlimit:4;stroke-opacity:1;stroke-dasharray:none"
       id="path3127"
       d="m 515.64562,790.42704 c -0.58892,0.70833 -1.33488,1.11938 -2.18031,1.42594 -0.6857,0.2382 -1.33833,0.54546 -2.03646,0.74672 -0.66872,0.14103 -1.28925,0.36986 -1.89816,0.67744 -0.5357,0.40443 -1.217,0.48953 -1.79287,0.79513 0.4313,-0.33881 -0.99559,0.91997 -1.05933,0.97608 -0.32438,0.27154 -0.52206,0.42263 -0.89586,0.47735 -0.0729,0.0107 -0.26557,0.123 -0.20667,0.0787 0.10223,-0.0769 0.20506,-0.15298 0.30758,-0.22948 -0.0218,0.0245 -0.0434,0.049 -0.0652,0.0735 0,0 -0.43274,0.25455 -0.43274,0.25455 l 0,0 c 0.0208,-0.0263 0.0416,-0.0527 0.0625,-0.0791 0.18806,-0.15259 0.34919,-0.36613 0.58099,-0.43628 0.0813,-0.0246 0.1693,-0.0206 0.25097,-0.0438 0.057,-0.0162 0.18147,-0.11533 0.16815,-0.0576 -0.0221,0.0943 -0.13521,0.13873 -0.20286,0.20808 0.60784,-0.53221 1.18185,-1.10319 1.83586,-1.57964 0.58476,-0.28845 1.25138,-0.40005 1.79194,-0.79357 0.61084,-0.3043 1.23699,-0.52685 1.90489,-0.67146 0.69605,-0.20374 1.34766,-0.51432 2.03353,-0.74847 0.73877,-0.27102 0.96833,-0.3205 1.40587,-0.81738 0,0 0.42823,-0.25672 0.42823,-0.25672 z"
       inkscape:connector-curvature="0" />
    <path
       style="fill:#ffffff;stroke:#ffffff;stroke-width:8;stroke-miterlimit:4;stroke-opacity:1;stroke-dasharray:none"
       id="path3129"
       d="m 513.12273,793.36601 c -0.96442,0.5859 -2.05115,1.0046 -3.14241,1.31997 -0.7623,0.0853 -1.46374,0.40815 -2.21069,0.55148 -0.72009,0.13983 -1.39207,0.4344 -2.12218,0.55523 -0.32614,0.041 -0.17306,0.0246 -0.45904,0.0512 0,0 0.35904,-0.34663 0.35904,-0.34663 l 0,0 c 0.28259,-0.0265 0.13125,-0.0101 0.4538,-0.0512 0.72788,-0.12381 1.39863,-0.4235 2.12028,-0.55543 0.7427,-0.15243 1.44679,-0.46035 2.2054,-0.55222 0.36255,-0.10557 0.59904,-0.1667 0.95756,-0.30545 0.41006,-0.1587 0.99011,-0.57528 1.44548,-0.56484 0.0494,0.001 -0.0276,0.0952 -0.0418,0.14258 0,0 0.4342,-0.24482 0.4342,-0.24482 z"
       inkscape:connector-curvature="0" />
    <path
       style="fill:#ffffff;stroke:#ffffff;stroke-width:8;stroke-miterlimit:4;stroke-opacity:1;stroke-dasharray:none"
       id="path3131"
       d="m 516.08582,792.66298 c -0.31331,0.67392 -0.84376,1.093 -1.4167,1.53895 -0.0485,0.0322 -0.19229,0.13139 -0.14565,0.0965 0.0848,-0.0634 0.16171,-0.14369 0.26038,-0.18226 0.12312,-0.0481 -0.13977,0.23042 -0.24195,0.31428 -0.15597,0.12795 -0.32427,0.24008 -0.48641,0.36012 -0.30864,-0.008 -0.58615,0.0791 -0.86965,0.20252 -0.08,0.0355 -0.15734,0.0761 -0.22971,0.12512 0,0 0.3454,-0.36769 0.3454,-0.36769 l 0,0 c 0.076,-0.043 0.15363,-0.0826 0.23408,-0.11656 0.28236,-0.11652 0.56651,-0.18388 0.86753,-0.20519 -0.81248,0.7294 0.44694,-0.60405 0.60489,-0.59218 -0.64406,0.5322 0.64351,-0.60344 0.65778,-0.9031 0,0 0.42001,-0.27053 0.42001,-0.27053 z"
       inkscape:connector-curvature="0" />
    <path
       style="fill:#ffffff;stroke:#ffffff;stroke-width:8;stroke-miterlimit:4;stroke-opacity:1;stroke-dasharray:none"
       id="path3133"
       d="m 517.5682,789.48043 c -0.22875,0.75486 -0.45559,1.51028 -0.68243,2.26572 -0.19325,0.45128 -0.20086,1.00306 -0.47833,1.4142 -0.21265,0.21216 -0.44808,0.40602 -0.71373,0.54748 0,0 0.34621,-0.36322 0.34621,-0.36322 l 0,0 c 0.37889,-0.22161 -0.50428,0.41631 -0.0617,0.0716 0.31031,-0.38006 0.28933,-0.9669 0.49396,-1.40368 0.2262,-0.75409 0.453,-1.50799 0.67733,-2.26264 0,0 0.41846,-0.26953 0.41846,-0.26953 z"
       inkscape:connector-curvature="0" />
    <path
       style="fill:#ffffff;stroke:#ffffff;stroke-width:8;stroke-miterlimit:4;stroke-opacity:1;stroke-dasharray:none"
       id="path3135"
       d="m 508.33826,798.41002 c -1.57555,-0.9378 -3.13475,-1.90885 -4.62386,-2.97988 -0.41038,-0.31822 -0.22834,-0.16974 -0.54994,-0.44068 0,0 0.38378,-0.31529 0.38378,-0.31529 l 0,0 c 0.31473,0.27311 0.13625,0.1234 0.53946,0.44435 1.4755,1.08573 3.03396,2.05743 4.62213,2.96881 0,0 -0.37157,0.32269 -0.37157,0.32269 z"
       inkscape:connector-curvature="0" />
    <path
       style="fill:#000000;stroke:#000000;stroke-width:8;stroke-miterlimit:4;stroke-opacity:1;stroke-dasharray:none"
       id="path3137"
       d="m 521.28882,806.94567 c -0.21924,0.69881 -0.47401,1.36577 -0.42784,2.10537 0.0981,0.55953 0.0439,1.19689 0.3856,1.67639 0.20758,0.31312 0.14263,0.68173 0.29353,1.01414 0,0 -0.39982,0.30037 -0.39982,0.30037 l 0,0 c -0.15333,-0.33254 -0.0939,-0.68921 -0.28744,-1.00696 -0.3471,-0.49093 -0.29835,-1.12889 -0.39621,-1.70236 -0.0565,-0.74582 0.19147,-1.41263 0.41371,-2.11741 0,0 0.41847,-0.26954 0.41847,-0.26954 z"
       inkscape:connector-curvature="0" />
    <path
       style="fill:#000000;stroke:#000000;stroke-width:8;stroke-miterlimit:4;stroke-opacity:1;stroke-dasharray:none"
       id="path3139"
       d="m 521.21801,816.34385 c 0.13508,0.72466 0.61156,1.29211 0.92425,1.93638 0.0643,0.23039 0.19414,0.42422 0.32843,0.61763 0,0 -0.39346,0.30656 -0.39346,0.30656 l 0,0 c -0.13502,-0.19609 -0.26869,-0.39154 -0.33079,-0.62563 -0.30903,-0.64811 -0.78795,-1.21712 -0.93091,-1.94085 0,0 0.40248,-0.29409 0.40248,-0.29409 z"
       inkscape:connector-curvature="0" />
    <path
       style="fill:#000000;stroke:#000000;stroke-width:8;stroke-miterlimit:4;stroke-opacity:1;stroke-dasharray:none"
       id="path3141"
       d="m 521.22844,805.8324 c 0.0588,-0.51718 -0.11329,-0.98696 -0.19429,-1.48539 -0.0427,-0.65605 -0.0375,-1.31641 -0.0611,-1.97454 0.003,-0.0943 0.006,-0.18853 0.008,-0.28281 0,0 0.41035,-0.27958 0.41035,-0.27958 l 0,0 c -0.004,0.0934 -0.007,0.18684 -0.0104,0.28023 0.02,0.65635 0.0211,1.31473 0.0579,1.9692 0.0779,0.50053 0.25959,0.96952 0.20003,1.48915 0,0 -0.41084,0.28372 -0.41084,0.28372 z"
       inkscape:connector-curvature="0" />
    <path
       style="fill:#ffffff;stroke:#ffffff;stroke-width:8;stroke-miterlimit:4;stroke-opacity:1;stroke-dasharray:none"
       id="path3147"
       d="m 431.63976,828.99212 c 0.29072,0.62463 0.60264,1.23983 0.87218,1.8739 1.91838,4.5128 1.77774,4.59047 3.79681,9.69799 1.93108,4.88491 3.67787,9.11468 5.9814,13.86366 1.19799,2.4698 2.51769,4.8787 3.77653,7.31806 4.26716,7.49509 8.74919,14.855 13.48006,22.06484 0,0 -0.28599,0.22153 -0.28599,0.22153 l 0,0 c -4.67384,-7.25176 -9.12203,-14.63749 -13.39765,-22.13191 -1.26165,-2.43778 -2.58214,-4.84599 -3.78497,-7.31332 -2.35271,-4.82609 -4.03428,-8.88346 -6.02679,-13.83191 -1.88909,-4.69161 -2.02234,-5.42949 -3.89295,-9.62234 -0.27742,-0.6218 -0.60303,-1.22096 -0.90453,-1.83146 0,0 0.3859,-0.30904 0.3859,-0.30904 z"
       inkscape:connector-curvature="0" />
    <path
       style="fill:#ffffff;stroke:#ffffff;stroke-width:8;stroke-miterlimit:4;stroke-opacity:1;stroke-dasharray:none"
       id="path3149"
       d="m 442.43366,853.53308 c -0.99773,3.17316 -1.87416,6.38395 -2.93946,9.53529 -0.73852,1.6083 -1.2706,3.40546 -2.4066,4.79533 -0.41365,0.36958 -0.77594,1.03565 -1.38607,1.00565 0,0 0.36169,-0.34195 0.36169,-0.34195 l 0,0 c 0.32056,-0.009 0.34287,-0.0613 -0.0272,0.23627 -0.42738,0.34368 0.99093,-0.9913 0.62745,-0.65023 1.16291,-1.37926 1.69623,-3.19121 2.44873,-4.8009 1.06909,-3.13875 1.95218,-6.33678 2.90612,-9.5119 0,0 0.41539,-0.26755 0.41539,-0.26755 z"
       inkscape:connector-curvature="0" />
    <path
       style="fill:#ffffff;stroke:#ffffff;stroke-width:8;stroke-miterlimit:4;stroke-opacity:1;stroke-dasharray:none"
       id="path3151"
       d="m 439.53634,856.16314 c -0.57222,1.90489 -1.61743,3.62088 -2.55438,5.3618 -0.79594,1.63891 -2.09709,2.67947 -3.73876,3.39017 -1.28905,0.57032 -2.6535,0.46131 -4.01016,0.26622 -1.77885,-0.32054 -3.51767,-0.8233 -5.25142,-1.32689 -0.82746,-0.24325 -1.65411,-0.48939 -2.4787,-0.74221 0,0 0.37142,-0.33148 0.37142,-0.33148 l 0,0 c 0.82098,0.25383 1.64089,0.51121 2.46555,0.75298 1.73056,0.5065 3.46735,1.00985 5.2454,1.32307 1.3539,0.18786 2.71225,0.28312 3.99526,-0.28879 0.39463,-0.17368 1.14308,-0.43864 1.46109,-0.71863 0.65186,-0.57389 1.10874,-1.33601 1.53874,-2.07715 0.93418,-1.73071 1.98347,-3.43762 2.53597,-5.33857 0,0 0.41999,-0.27053 0.41999,-0.27053 z"
       inkscape:connector-curvature="0" />
    <path
       style="fill:#ffffff;stroke:#ffffff;stroke-width:8;stroke-miterlimit:4;stroke-opacity:1;stroke-dasharray:none"
       id="path3153"
       d="m 427.70832,824.12253 c 1.30182,2.31039 2.94623,4.40569 4.26426,6.71066 0.43741,0.76492 0.83212,1.55347 1.24818,2.3302 1.87128,4.03395 3.52627,8.16607 5.22943,12.27345 0.52105,1.16148 0.887,2.38858 1.43213,3.5383 0.72707,1.65926 1.56774,3.26632 2.1961,4.96692 0.0936,0.37614 0.26281,0.71729 0.45192,1.05167 0,0 -0.39435,0.30134 -0.39435,0.30134 l 0,0 c -0.18824,-0.33883 -0.3588,-0.68332 -0.44821,-1.06436 -0.61395,-1.70438 -1.44579,-3.31431 -2.19484,-4.96163 -0.56815,-1.14259 -0.88307,-2.39532 -1.41075,-3.55803 -1.67617,-4.11958 -3.32288,-8.25748 -5.19961,-12.29022 -0.41701,-0.77496 -0.81225,-1.56203 -1.25103,-2.32488 -1.32399,-2.30188 -2.97779,-4.3853 -4.31889,-6.67215 0,0 0.39566,-0.30127 0.39566,-0.30127 z"
       inkscape:connector-curvature="0" />
    <path
       style="fill:#ffffff;stroke:#ffffff;stroke-width:8;stroke-miterlimit:4;stroke-opacity:1;stroke-dasharray:none"
       id="path3159"
       d="m 421.52438,811.44722 c 0.36065,0.44168 0.77148,0.84674 1.08194,1.32503 1.98212,3.05372 3.17083,6.58491 4.7559,9.84034 2.14509,4.4056 2.11583,4.09771 4.77631,8.31511 4.30756,5.79901 9.12197,11.21637 14.02894,16.51312 0,0 -0.32194,0.25808 -0.32194,0.25808 l 0,0 c -4.86692,-5.33563 -9.66114,-10.76876 -13.98851,-16.55374 -2.68805,-4.24573 -2.61908,-3.87728 -4.79318,-8.30844 -1.59008,-3.24082 -2.79576,-6.76224 -4.81262,-9.78277 -0.31624,-0.47359 -0.7339,-0.87095 -1.10085,-1.30643 0,0 0.37401,-0.3003 0.37401,-0.3003 z"
       inkscape:connector-curvature="0" />
    <path
       style="fill:#ffffff;stroke:#ffffff;stroke-width:8;stroke-miterlimit:4;stroke-opacity:1;stroke-dasharray:none"
       id="path3161"
       d="m 420.51626,814.17935 c 4.88083,8.06474 8.41461,16.85192 12.55066,25.30375 3.78427,7.73301 5.4516,10.79197 9.44074,18.41153 5.50494,10.12248 2.80739,5.38698 8.03532,14.239 0,0 -0.22647,0.17372 -0.22647,0.17372 l 0,0 c -5.16441,-8.9005 -2.4933,-4.14461 -7.96193,-14.29643 -3.96725,-7.57998 -5.66974,-10.72071 -9.45456,-18.40198 -1.43886,-2.92014 -2.82609,-5.86545 -4.23031,-8.80239 -2.64363,-5.52915 -5.09253,-11.21828 -8.53196,-16.322 0,0 0.37851,-0.3052 0.37851,-0.3052 z"
       inkscape:connector-curvature="0" />
    <path
       style="fill:#ffffff;stroke:#ffffff;stroke-width:8;stroke-miterlimit:4;stroke-opacity:1;stroke-dasharray:none"
       id="path3163"
       d="m 436.56103,859.11419 c 0.063,10.12132 -0.32528,20.24033 -1.06835,30.33273 0,0 -0.29094,0.19641 -0.29094,0.19641 l 0,0 c 0.79585,-10.06411 1.24936,-20.16713 0.98125,-30.26432 0,0 0.37804,-0.26482 0.37804,-0.26482 z"
       inkscape:connector-curvature="0" />
    <path
       style="fill:#ffffff;stroke:#ffffff;stroke-width:8;stroke-miterlimit:4;stroke-opacity:1;stroke-dasharray:none"
       id="path3165"
       d="m 439.94373,847.76708 c -2.98339,10.05087 -6.49016,19.93619 -10.16105,29.75353 0,0 -0.28254,0.17928 -0.28254,0.17928 l 0,0 c 3.69062,-9.76762 7.21118,-19.61056 10.03437,-29.66922 0,0 0.40922,-0.26359 0.40922,-0.26359 z"
       inkscape:connector-curvature="0" />
    <path
       style="fill:#ffffff;stroke:#ffffff;stroke-width:8;stroke-miterlimit:4;stroke-opacity:1;stroke-dasharray:none"
       id="path3167"
       d="m 438.13576,857.69241 c -1.44705,0.93271 -3.33869,0.94076 -4.99589,1.21447 -2.46382,0.39038 -4.89359,1.09806 -7.40331,1.16013 -0.60918,0.0151 -1.21836,-0.0294 -1.82755,-0.0441 -3.54237,-0.35548 -7.03729,-1.0965 -10.53017,-1.77478 -1.18731,-0.3821 -2.67888,-0.25235 -3.70738,-1.01134 0,0 0.37679,-0.31413 0.37679,-0.31413 l 0,0 c 1.01933,0.75055 2.50134,0.62381 3.67402,1.01239 3.48616,0.68591 6.97322,1.44758 10.51384,1.77926 0.60955,0.0122 1.21923,0.0537 1.82866,0.0366 2.51036,-0.0706 4.94102,-0.77799 7.40633,-1.16844 1.66976,-0.27888 3.5555,-0.30175 5.01012,-1.25143 0,0 -0.34545,0.36133 -0.34545,0.36133 z"
       inkscape:connector-curvature="0" />
    <path
       style="fill:#ffffff;stroke:#ffffff;stroke-width:8;stroke-miterlimit:4;stroke-opacity:1;stroke-dasharray:none"
       id="path3171"
       d="m 417.66109,860.43847 c -1.36932,-0.21211 -2.82344,-0.3689 -4.05529,-1.05589 -0.55192,-0.30781 -1.06126,-0.68645 -1.59187,-1.02967 -5.68649,-4.70795 -10.22119,-10.5855 -15.16519,-16.02558 -2.23599,-2.65204 -4.92564,-4.91744 -6.97685,-7.73101 -0.85588,-1.17397 -1.63808,-2.4057 -2.33281,-3.68167 -1.39776,-2.5672 -2.55887,-5.71138 -3.63818,-8.41814 -1.48494,-3.9124 -2.74182,-7.89875 -3.96021,-11.89941 0,0 0.35468,-0.25889 0.35468,-0.25889 l 0,0 c 1.18727,4.01683 2.41895,8.01802 3.90002,11.93934 1.08561,2.72629 2.22436,5.82645 3.63888,8.40892 2.46005,4.49127 5.93519,7.66503 9.3294,11.38879 4.92285,5.45464 9.44174,11.35477 15.19216,15.9887 0.53423,0.33679 1.04811,0.70826 1.60268,1.01036 1.23761,0.67418 2.69264,0.83402 4.06532,1.02363 0,0 -0.36274,0.34052 -0.36274,0.34052 z"
       inkscape:connector-curvature="0" />
    <path
       style="fill:#ffffff;stroke:#ffffff;stroke-width:8;stroke-miterlimit:4;stroke-opacity:1;stroke-dasharray:none"
       id="path3173"
       d="m 422.32764,859.13753 c -4.94157,-1.74329 -9.55138,-4.34442 -14.2093,-6.71889 -5.52952,-3.05948 -11.69675,-5.75976 -16.29761,-10.22173 -2.11621,-2.05233 -2.67923,-3.25831 -4.22234,-5.70306 0,0 0.31645,-0.24439 0.31645,-0.24439 l 0,0 c 1.52637,2.42674 2.10966,3.6631 4.19912,5.70573 4.61164,4.5083 10.70781,7.17503 16.27898,10.22666 4.68212,2.35804 9.31805,4.96533 14.30721,6.62278 0,0 -0.37251,0.3329 -0.37251,0.3329 z"
       inkscape:connector-curvature="0" />
    <path
       style="fill:#ffffff;stroke:#ffffff;stroke-width:8;stroke-miterlimit:4;stroke-opacity:1;stroke-dasharray:none"
       id="path3175"
       d="m 405.45834,850.31285 c -2.35062,-1.60438 -4.66294,-3.28531 -6.61951,-5.37371 -1.45982,-1.55821 -2.80729,-3.21802 -4.21093,-4.82702 -6.58599,-8.44591 -12.8546,-17.17553 -18.62154,-26.20449 -4.78688,-7.49453 -9.07227,-15.29921 -13.32792,-23.10141 -1.86696,-3.46259 -3.57573,-7.00434 -5.218,-10.57725 0,0 0.34037,-0.25544 0.34037,-0.25544 l 0,0 c 1.59628,3.60253 3.26554,7.17195 5.10842,10.65691 4.19643,7.84164 8.437,15.67512 13.22218,23.18004 5.75798,9.03064 12.04839,17.74849 18.73948,26.1076 1.42666,1.58891 2.80063,3.22676 4.27999,4.76673 1.98635,2.06773 4.30529,3.74205 6.69026,5.30749 0,0 -0.3828,0.32055 -0.3828,0.32055 z"
       inkscape:connector-curvature="0" />
    <path
       style="fill:#ffffff;stroke:#ffffff;stroke-width:8;stroke-miterlimit:4;stroke-opacity:1;stroke-dasharray:none"
       id="path3177"
       d="m 405.96627,851.51994 c -1.4296,-0.836 -2.87271,-1.79588 -3.81738,-3.20644 -0.90548,-1.35205 -1.52033,-2.87846 -2.33462,-4.28732 -1.33221,-2.30502 -2.71134,-4.58288 -4.10361,-6.85212 -1.71405,-2.7937 -3.47661,-5.55734 -5.2149,-8.33601 -7.16494,-11.03055 -13.27143,-22.69472 -18.28441,-34.85038 -1.98089,-4.80331 -2.68256,-6.93627 -4.33811,-11.597 -0.46295,-1.26205 -0.92589,-2.52409 -1.38885,-3.78614 0,0 0.30786,-0.22733 0.30786,-0.22733 l 0,0 c 0.45206,1.27022 0.90412,2.54044 1.3562,3.81066 1.62215,4.69703 2.29332,6.81437 4.25892,11.65326 4.95005,12.18593 11.05608,23.85567 18.25236,34.87029 2.79181,4.40688 6.70186,10.49726 9.43871,15.09787 0.8283,1.39236 1.46397,2.90186 2.38334,4.23585 0.96278,1.39698 2.41284,2.34364 3.85818,3.1518 0,0 -0.37369,0.32301 -0.37369,0.32301 z"
       inkscape:connector-curvature="0" />
    <path
       style="fill:#000000;stroke:#000000;stroke-width:8;stroke-miterlimit:4;stroke-opacity:1;stroke-dasharray:none"
       id="path3179"
       d="m 425.12491,858.39461 c -4.64478,-1.54164 -9.07309,-3.66536 -13.4584,-5.81908 -1.5123,-0.8696 -3.09437,-1.62782 -4.53689,-2.60883 -4.22798,-2.87525 -6.6331,-5.41295 -10.29096,-9.13935 -3.90449,-3.97765 -9.37951,-9.84952 -12.97911,-14.03836 -2.0716,-2.41071 -4.03033,-4.91616 -6.04549,-7.37423 -6.37792,-8.41666 -3.42274,-4.36011 -8.90868,-12.13814 0,0 0.23699,-0.18487 0.23699,-0.18487 l 0,0 c 5.43212,7.81755 2.50058,3.74342 8.84109,12.18879 2.01238,2.45987 3.96476,4.97007 6.03714,7.37961 3.71286,4.31688 8.98891,9.92741 13.02879,13.9964 3.62221,3.64832 6.15574,6.26493 10.34369,9.08527 1.44874,0.97565 3.03662,1.72681 4.55493,2.5902 4.41261,2.13029 8.86314,4.26018 13.54804,5.73091 0,0 -0.37114,0.33168 -0.37114,0.33168 z"
       inkscape:connector-curvature="0" />
    <path
       style="fill:#000000;stroke:#000000;stroke-width:8;stroke-miterlimit:4;stroke-opacity:1;stroke-dasharray:none"
       id="path3181"
       d="m 344.79071,517.64514 c -16.18801,7.09445 -30.2134,17.96752 -43.26474,29.71213 -10.18292,9.52405 -19.29156,20.15794 -26.54727,32.09088 -4.33642,7.13179 -5.90422,10.83639 -9.52359,18.32923 -5.00338,11.00513 -9.18133,22.35711 -12.99827,33.81955 0,0 -1.65212,1.05698 -1.65212,1.05698 l 0,0 c 3.84853,-11.47809 8.04443,-22.84942 13.04947,-33.88075 3.58972,-7.44751 5.20734,-11.25861 9.50668,-18.34895 7.24762,-11.95253 16.35638,-22.60285 26.54009,-32.14384 14.20062,-12.34425 28.84367,-24.51063 46.27216,-32.062 0,0 -1.38241,1.42677 -1.38241,1.42677 z"
       inkscape:connector-curvature="0" />
    <path
       style="fill:#000000;stroke:#000000;stroke-width:8;stroke-miterlimit:4;stroke-opacity:1;stroke-dasharray:none"
       id="path3189"
       d="m 394.84985,421.6183 c 2.8565,22.1147 1.53031,44.52076 -0.24454,66.66929 -1.2752,11.41236 -3.12571,19.67254 -14.28111,24.62942 -5.56616,1.99416 -11.40249,3.0127 -17.16703,4.25126 -4.65015,1.19874 -9.47377,0.93974 -14.20147,0.46046 0,0 1.45687,-1.35304 1.45687,-1.35304 l 0,0 c 4.71577,0.46947 9.51663,0.70561 14.15229,-0.49928 5.75502,-1.24875 11.59166,-2.24523 17.13745,-4.28093 0.21551,-0.099 3.16679,-1.29371 3.86956,-1.9765 5.42866,-5.27438 6.72573,-12.93982 7.46126,-20.17122 1.8228,-22.11198 3.1947,-44.50097 0.21405,-66.57308 0,0 1.60267,-1.15638 1.60267,-1.15638 z"
       inkscape:connector-curvature="0" />
    <path
       style="fill:#ffffff;stroke:#ffffff;stroke-width:8;stroke-miterlimit:4;stroke-opacity:1;stroke-dasharray:none"
       id="path3191"
       d="m 360.2302,795.01853 c 1.22277,1.88155 2.39404,3.79529 3.5864,5.69636 0.55292,1.31379 1.53273,2.31969 2.37588,3.43204 0.38752,0.68174 0.88959,1.25897 1.42124,1.82783 1.99284,2.19574 3.31264,4.85485 4.55401,7.51975 1.25068,2.91128 2.55111,5.80082 4.03662,8.60057 0.61919,1.19731 1.17687,2.42474 1.63655,3.69153 0.0783,0.47766 0.29787,0.8569 0.51275,1.26745 0.0741,0.19016 0.0264,0.0991 0.14483,0.27224 0,0 -0.39678,0.309 -0.39678,0.309 l 0,0 c -0.12506,-0.18089 -0.0773,-0.0875 -0.14872,-0.27724 -0.21103,-0.41467 -0.44266,-0.79172 -0.5136,-1.27496 -0.45505,-1.26673 -1.01074,-2.4937 -1.62453,-3.69187 -1.48111,-2.8036 -2.78001,-5.69528 -4.03115,-8.60782 -1.23769,-2.66072 -2.55824,-5.31387 -4.55839,-7.49654 -0.53749,-0.56677 -1.03593,-1.14851 -1.42396,-1.83244 -0.84388,-1.11395 -1.82311,-2.12262 -2.37419,-3.43893 -1.18898,-1.90099 -2.35419,-3.81666 -3.58836,-5.68862 0,0 0.3914,-0.30835 0.3914,-0.30835 z"
       inkscape:connector-curvature="0" />
    <path
       style="fill:#ffffff;stroke:#ffffff;stroke-width:8;stroke-miterlimit:4;stroke-opacity:1;stroke-dasharray:none"
       id="path3193"
       d="m 363.49921,799.89417 c 1.05605,0.3192 2.11296,0.63552 3.16994,0.95167 0.93044,0.18583 1.66923,0.73717 2.48214,1.20311 1.9507,1.0038 3.733,2.24822 5.36534,3.70775 0.63502,0.5361 1.27395,1.13055 1.65453,1.88017 0.15438,0.41873 0.28679,0.84524 0.41837,1.27158 0.21712,0.96666 0.14499,1.98443 0.16366,2.97077 0.008,1.09452 -0.15183,2.17854 -0.0532,3.27155 0.0637,0.80886 0.2785,1.58361 0.47226,2.36649 0.33355,1.06647 0.90518,2.09745 1.56534,2.99993 1.15268,1.44956 2.05646,3.04745 2.92469,4.67546 0.79891,1.56463 1.02401,3.31901 1.37393,5.01953 0,0 -0.40512,0.29013 -0.40512,0.29013 l 0,0 c -0.34273,-1.69839 -0.56417,-3.45017 -1.35898,-5.01278 -0.86817,-1.62533 -1.77265,-3.21971 -2.92503,-4.66634 -0.66566,-0.90581 -1.23959,-1.9431 -1.57991,-3.01332 -0.19298,-0.78545 -0.4134,-1.56147 -0.47582,-2.37311 -0.10417,-1.09467 0.0568,-2.17981 0.0534,-3.2761 -0.0182,-0.98127 0.0517,-1.99329 -0.16156,-2.95522 -0.12886,-0.42465 -0.26161,-0.84833 -0.41147,-1.26611 -0.3724,-0.74701 -1.01304,-1.33304 -1.6396,-1.86824 -1.62413,-1.46367 -3.40344,-2.70627 -5.3538,-3.70368 -0.81146,-0.46074 -1.55734,-0.99801 -2.48191,-1.18841 -1.05598,-0.31918 -2.11254,-0.63644 -3.16962,-0.95197 0,0 0.37248,-0.33286 0.37248,-0.33286 z"
       inkscape:connector-curvature="0" />
    <path
       style="fill:#ffffff;stroke:#ffffff;stroke-width:8;stroke-miterlimit:4;stroke-opacity:1;stroke-dasharray:none"
       id="path3195"
       d="m 377.94452,818.66541 c 3.5377,2.32345 6.94554,5.00221 9.73863,8.19924 1.5861,1.77367 2.0164,3.98113 2.32795,6.25564 0.16214,1.17392 0.48363,2.30409 0.97206,3.38097 0.22374,0.72281 1.00263,1.04402 1.34816,1.6519 0.2421,0.6622 0.80087,1.02507 1.29572,1.49011 0.83337,0.84308 1.33074,1.89225 1.84147,2.94077 0.29356,0.59047 0.60787,1.17028 0.92844,1.74645 0,0 -0.39947,0.30491 -0.39947,0.30491 l 0,0 c -0.3188,-0.57841 -0.6341,-1.15897 -0.92619,-1.75147 -0.50764,-1.04351 -0.99949,-2.0885 -1.83113,-2.92575 -0.49963,-0.46651 -1.06358,-0.8337 -1.30738,-1.50047 -0.33742,-0.61036 -1.13286,-0.93085 -1.34847,-1.65696 -0.49243,-1.08117 -0.81355,-2.21674 -0.97571,-3.39618 -0.30701,-2.26642 -0.72696,-4.46749 -2.30366,-6.23836 -2.78269,-3.19868 -6.18047,-5.88851 -9.73343,-8.17967 0,0 0.37301,-0.32113 0.37301,-0.32113 z"
       inkscape:connector-curvature="0" />
    <path
       style="fill:#ffffff;stroke:#ffffff;stroke-width:8;stroke-miterlimit:4;stroke-opacity:1;stroke-dasharray:none"
       id="path3197"
       d="m 381.21131,827.75863 c -0.066,2.71663 0.30704,5.44211 0.79637,8.11066 0.14445,1.23066 0.61245,2.30239 1.2977,3.31731 0.17778,0.24643 0.32797,0.50194 0.61725,0.61258 0.5895,0.3066 1.18486,0.61698 1.78633,0.9068 0.35592,0.26151 0.66255,0.58227 0.9978,0.87027 0.0902,0.0832 0.43895,0.0141 -0.16898,0.18981 -0.008,0.003 0.0655,-0.0752 0.13431,-0.25706 0,0 0.42453,-0.27109 0.42453,-0.27109 l 0,0 c -0.0934,0.30075 -0.46335,0.92963 -0.77892,0.6577 -0.33041,-0.28655 -0.63379,-0.60472 -0.98691,-0.86226 -0.6002,-0.291 -1.19286,-0.60294 -1.78653,-0.9018 -0.2951,-0.12119 -0.45237,-0.38321 -0.63378,-0.63804 -0.68608,-1.02347 -1.16261,-2.09962 -1.30173,-3.33973 -0.48361,-2.66992 -0.85542,-5.39445 -0.80889,-8.11096 0,0 0.41149,-0.28418 0.41149,-0.28418 z"
       inkscape:connector-curvature="0" />
    <path
       style="fill:#ffffff;stroke:#ffffff;stroke-width:8;stroke-miterlimit:4;stroke-opacity:1;stroke-dasharray:none"
       id="path3199"
       d="m 388.12574,831.70884 c 4.62446,7.89091 9.86211,15.40517 15.62163,22.50551 3.30695,3.8867 7.2995,7.12383 11.48668,10.01388 0.93721,0.60695 1.86606,1.24286 2.89574,1.68463 0,0 -0.37744,0.32939 -0.37744,0.32939 l 0,0 c -1.02703,-0.45079 -1.95404,-1.09062 -2.88962,-1.70261 -4.17884,-2.90581 -8.16967,-6.14941 -11.47109,-10.04379 -5.74539,-7.11317 -10.96385,-14.63662 -15.6473,-22.49219 0,0 0.3814,-0.29482 0.3814,-0.29482 z"
       inkscape:connector-curvature="0" />
    <path
       style="fill:#ffffff;stroke:#ffffff;stroke-width:8;stroke-miterlimit:4;stroke-opacity:1;stroke-dasharray:none"
       id="path3201"
       d="m 387.91834,828.64922 c 1.16785,2.16113 1.97694,4.49116 3.01556,6.71134 0.40197,0.85927 0.85032,1.69606 1.27548,2.54409 2.57473,5.09869 5.83305,9.80965 9.34691,14.29862 0.86386,1.06395 1.78686,2.07771 2.7823,3.01924 0,0 -0.38635,0.31395 -0.38635,0.31395 l 0,0 c -0.99043,-0.94949 -1.91022,-1.96866 -2.77183,-3.03683 -3.50082,-4.5028 -6.75908,-9.2161 -9.34398,-14.31264 -0.42751,-0.84744 -0.87814,-1.68361 -1.28254,-2.54232 -1.04367,-2.21612 -1.85678,-4.54385 -3.03669,-6.69697 0,0 0.40114,-0.29848 0.40114,-0.29848 z"
       inkscape:connector-curvature="0" />
    <path
       style="fill:#ffffff;stroke:#ffffff;stroke-width:8;stroke-miterlimit:4;stroke-opacity:1;stroke-dasharray:none"
       id="path3203"
       d="m 390.01984,832.77358 c 2.32043,1.94877 3.74583,4.69527 5.18434,7.30608 2.45597,4.79291 5.29454,9.3756 8.24875,13.87357 0.84858,1.26527 1.55713,2.61588 2.37381,3.90009 0,0 -0.39265,0.30338 -0.39265,0.30338 l 0,0 c -0.81126,-1.28819 -1.51237,-2.64335 -2.35857,-3.91094 -2.94354,-4.50634 -5.78049,-9.09059 -8.24816,-13.87851 -1.44046,-2.59814 -2.8647,-5.34169 -5.18895,-7.27144 0,0 0.38143,-0.32223 0.38143,-0.32223 z"
       inkscape:connector-curvature="0" />
    <path
       style="fill:#ffffff;stroke:#ffffff;stroke-width:8;stroke-miterlimit:4;stroke-opacity:1;stroke-dasharray:none"
       id="path3207"
       d="m 385.75541,834.91579 c 3.65576,5.17577 7.03264,10.53627 10.63312,15.7509 2.21309,3.00476 4.27787,6.24159 7.19614,8.63593 1.18498,0.97223 2.15604,1.49877 3.45771,2.28803 2.85137,1.58229 5.91621,2.70321 9.01129,3.69834 2.99393,0.99872 6.03843,1.77363 9.17664,2.11569 1.06913,0.23552 2.213,-0.0367 3.27346,0.1971 0,0 -0.37072,0.33685 -0.37072,0.33685 l 0,0 c -1.06062,-0.21605 -2.19317,0.0248 -3.25994,-0.20285 -3.13897,-0.35065 -6.18678,-1.12774 -9.18371,-2.12254 -3.09656,-0.99727 -6.1591,-2.12943 -9.01157,-3.71309 -1.30546,-0.79317 -2.27453,-1.31911 -3.46205,-2.29699 -2.91646,-2.40164 -4.97395,-5.64792 -7.18409,-8.6585 -3.59626,-5.21514 -6.97415,-10.57493 -10.66752,-15.72212 0,0 0.39124,-0.30675 0.39124,-0.30675 z"
       inkscape:connector-curvature="0" />
    <path
       style="fill:#ffffff;stroke:#ffffff;stroke-width:8;stroke-miterlimit:4;stroke-opacity:1;stroke-dasharray:none"
       id="path3209"
       d="m 396.7326,845.33668 c 3.61122,2.35863 6.55279,5.56717 9.65959,8.51871 1.00085,0.95084 2.03517,1.86583 3.05275,2.79873 5.2585,3.9555 10.89362,7.58599 16.98317,10.14315 2.97615,1.24976 4.18321,1.47529 7.20063,2.2897 3.61568,0.80202 7.29385,1.08743 10.92937,0.32259 0,0 -0.35183,0.3473 -0.35183,0.3473 l 0,0 c -3.63581,0.74207 -7.30886,0.44698 -10.91898,-0.36311 -3.01551,-0.82112 -4.22184,-1.04974 -7.19588,-2.3047 -6.08889,-2.56932 -11.72326,-6.20644 -16.99575,-10.14995 -1.0201,-0.93163 -2.05728,-1.8449 -3.06029,-2.79489 -3.1106,-2.94621 -6.05243,-6.16015 -9.68617,-8.48647 0,0 0.38339,-0.32106 0.38339,-0.32106 z"
       inkscape:connector-curvature="0" />
    <path
       style="fill:#ffffff;stroke:#ffffff;stroke-width:8;stroke-miterlimit:4;stroke-opacity:1;stroke-dasharray:none"
       id="path3211"
       d="m 387.43351,833.38261 c 0.20293,3.46127 0.52589,6.89445 1.28557,10.28319 0.45618,1.43662 0.58275,2.20889 1.48297,3.47497 2.32382,3.26818 5.87306,5.47572 9.21581,7.53405 4.8865,2.60374 10.10168,4.59666 15.48285,5.91292 2.52877,0.61856 4.7816,0.90822 7.33866,1.29789 5.18072,0.66372 10.37245,0.94934 15.57877,0.51535 1.70497,-0.29483 3.4272,-0.61465 4.9768,-1.41065 0,0 -0.3448,0.35893 -0.3448,0.35893 l 0,0 c -1.55398,0.78048 -3.274,1.09797 -4.97779,1.38481 -5.20423,0.42278 -10.39383,0.13113 -15.57086,-0.53789 -2.55789,-0.39386 -4.80632,-0.68675 -7.33613,-1.3081 -5.38456,-1.3225 -10.60464,-3.31615 -15.49905,-5.91516 -3.34927,-2.06069 -6.91114,-4.27326 -9.24564,-7.54175 -0.90706,-1.26996 -1.03301,-2.04283 -1.4914,-3.48504 -0.37775,-1.68417 -0.50732,-2.08386 -0.73109,-3.81577 -0.23378,-1.80927 -0.31883,-3.62584 -0.45268,-5.44161 -0.0253,-0.34296 -0.0827,-0.68279 -0.12407,-1.02419 0,0 0.41208,-0.28195 0.41208,-0.28195 z"
       inkscape:connector-curvature="0" />
    <path
       style="fill:#ffffff;stroke:#ffffff;stroke-width:8;stroke-miterlimit:4;stroke-opacity:1;stroke-dasharray:none"
       id="path3213"
       d="m 390.84362,832.36304 c -0.32194,2.44962 -0.56176,4.96831 -0.0237,7.41256 0.10871,0.49381 0.30046,0.9656 0.45069,1.44839 0.25666,0.47391 0.46624,0.97652 0.76999,1.42173 0.74526,1.09233 1.80263,2.10099 2.74439,3.00641 1.69084,1.62555 3.4806,3.02618 5.3657,4.41676 5.61924,3.37099 11.83605,5.76825 17.94835,8.09598 2.90545,1.07143 5.92438,1.82751 9.0128,2.11123 1.33159,0.12232 2.55863,0.10637 3.88866,0.11651 1.92224,-0.10107 3.84375,-0.35538 5.618,-1.13053 0,0 -0.34839,0.35815 -0.34839,0.35815 l 0,0 c -1.77886,0.75829 -3.69821,1.00933 -5.61926,1.10313 -1.33517,-0.013 -2.55138,3.8e-4 -3.88866,-0.12456 -3.08965,-0.28866 -6.11005,-1.04437 -9.01458,-2.12445 -5.17226,-1.98006 -10.53978,-4.0244 -15.43416,-6.61745 -0.86313,-0.45729 -1.68414,-0.99 -2.52621,-1.485 -1.88831,-1.39105 -3.67859,-2.79396 -5.37278,-4.42 -0.94484,-0.90682 -2.00969,-1.91915 -2.7587,-3.01295 -0.30624,-0.4472 -0.5178,-0.95233 -0.7767,-1.42849 -0.1516,-0.48515 -0.3451,-0.95912 -0.45481,-1.45542 -0.5405,-2.44511 -0.30146,-4.96401 0.004,-7.41676 0,0 0.41587,-0.27524 0.41587,-0.27524 z"
       inkscape:connector-curvature="0" />
    <path
       style="fill:#ffffff;stroke:#ffffff;stroke-width:8;stroke-miterlimit:4;stroke-opacity:1;stroke-dasharray:none"
       id="path3215"
       d="m 391.62411,832.1289 c 0.4929,5.22409 1.73564,10.40212 3.61698,15.30183 0.38802,1.01054 0.85097,1.9907 1.27645,2.98605 1.66447,3.28528 3.88754,6.25996 6.87581,8.45654 1.70643,1.25434 3.08397,1.89437 4.96011,2.89179 4.04025,2.00675 8.20454,3.74694 12.32769,5.57391 0.68548,0.36544 1.41717,0.59343 2.16548,0.78068 0,0 -0.36979,0.3333 -0.36979,0.3333 l 0,0 c -0.74729,-0.19338 -1.47847,-0.42651 -2.16325,-0.79381 -4.11532,-1.83978 -8.2743,-3.58635 -12.3135,-5.59056 -1.88227,-0.99948 -3.2591,-1.63748 -4.97022,-2.89629 -2.99338,-2.20213 -5.21895,-5.18511 -6.88282,-8.47872 -0.42481,-0.99719 -0.88678,-1.97936 -1.27446,-2.99157 -1.8763,-4.8989 -3.11951,-10.07025 -3.65491,-15.28662 0,0 0.40643,-0.28653 0.40643,-0.28653 z"
       inkscape:connector-curvature="0" />
    <path
       style="fill:#ffffff;stroke:#ffffff;stroke-width:8;stroke-miterlimit:4;stroke-opacity:1;stroke-dasharray:none"
       id="path3217"
       d="m 393.25417,832.75474 c 0.35956,0.3446 0.74085,0.66786 1.07868,1.0338 1.83208,1.98453 2.86255,3.45993 4.64559,5.68145 1.34017,1.66976 2.69419,3.32836 4.04915,4.98613 1.57746,1.92999 3.16538,3.85141 4.74807,5.7771 1.59733,1.95785 3.19466,3.9157 4.79199,5.87355 4.20653,5.20713 8.5191,10.3254 12.94271,15.34885 0,0 -0.36121,0.28816 -0.36121,0.28816 l 0,0 c -4.40084,-5.04324 -8.69708,-10.175 -12.89956,-15.3851 -4.52769,-5.54758 -9.11482,-11.04739 -13.62103,-16.61237 -1.7694,-2.18513 -2.84254,-3.6975 -4.67247,-5.65153 -0.33958,-0.36259 -0.72343,-0.68102 -1.08515,-1.02153 0,0 0.38323,-0.31851 0.38323,-0.31851 z"
       inkscape:connector-curvature="0" />
    <path
       style="fill:#ffffff;stroke:#ffffff;stroke-width:8;stroke-miterlimit:4;stroke-opacity:1;stroke-dasharray:none"
       id="path3219"
       d="m 405.42396,855.98593 c 6.52713,2.906 13.24735,5.46892 20.14448,7.35855 1.86832,0.51184 3.76208,0.92575 5.64313,1.38863 7.33596,1.56919 14.84047,2.69117 22.35564,2.2078 1.28999,-0.0725 2.55343,-0.3035 3.74477,-0.8024 0,0 -0.34812,0.35669 -0.34812,0.35669 l 0,0 c -1.1937,0.48408 -2.45515,0.70926 -3.74212,0.77717 -7.50859,0.45261 -15.00144,-0.67769 -22.32853,-2.25185 -1.88167,-0.46332 -3.77581,-0.87864 -5.645,-1.38995 -6.91062,-1.89037 -13.64197,-4.44847 -20.19608,-7.32597 0,0 0.37183,-0.31867 0.37183,-0.31867 z"
       inkscape:connector-curvature="0" />
    <path
       style="fill:#ffffff;stroke:#ffffff;stroke-width:8;stroke-miterlimit:4;stroke-opacity:1;stroke-dasharray:none"
       id="path3221"
       d="m 403.89262,851.37341 c 2.4589,3.01487 6.21656,4.00902 9.75298,5.27972 3.37754,1.08343 6.82126,2.30885 10.39322,2.54492 1.56224,0.10324 2.47568,-0.0221 4.04547,-0.13858 4.31354,-0.36854 8.60191,-0.96205 12.89528,-1.5054 0.98822,-0.10035 1.99397,-0.22437 2.92053,-0.60179 0,0 -0.35103,0.35878 -0.35103,0.35878 l 0,0 c -0.93059,0.36068 -1.93128,0.48548 -2.91859,0.58217 -4.2924,0.53555 -8.57976,1.12089 -12.89045,1.49728 -1.58741,0.11629 -2.47291,0.24023 -4.05129,0.13137 -3.57108,-0.2463 -7.01118,-1.48012 -10.38888,-2.56302 -2.55119,-0.91331 -5.23907,-1.74134 -7.56126,-3.1837 -0.87972,-0.5464 -1.55679,-1.33624 -2.24015,-2.09593 0,0 0.39417,-0.30582 0.39417,-0.30582 z"
       inkscape:connector-curvature="0" />
    <path
       style="fill:none;stroke:#000000;stroke-width:8;stroke-linecap:butt;stroke-linejoin:miter;stroke-opacity:1"
       d="m 377.65511,378.60109 41.43837,85.53078"
       id="path3227"
       inkscape:connector-curvature="0" />
    <path
       sodipodi:type="arc"
       style="fill:#ffffff;stroke:#000000;stroke-width:8;stroke-miterlimit:4;stroke-opacity:1;stroke-dasharray:none"
       id="path3229"
       sodipodi:cx="371.42856"
       sodipodi:cy="323.79074"
       sodipodi:rx="40"
       sodipodi:ry="12.857142"
       d="m 411.42856,323.79074 a 40,12.857142 0 1 1 -80,0 40,12.857142 0 1 1 80,0 z"
       transform="matrix(0.48795854,0.8728668,-0.8728668,0.48795854,461.88826,-132.91691)" />
    <path
       style="fill:none;stroke:#000000;stroke-width:3;stroke-linecap:butt;stroke-linejoin:miter;stroke-opacity:1"
       d="m 360.83326,345.2097 31.20147,-14.49626"
       id="path3231"
       inkscape:connector-curvature="0" />
    <path
       style="fill:none;stroke:#000000;stroke-width:3;stroke-linecap:butt;stroke-linejoin:miter;stroke-opacity:1"
       d="m 403.0099,325.95448 32.98054,-15.45363"
       id="path3233"
       inkscape:connector-curvature="0" />
    <path
       style="fill:none;stroke:#000000;stroke-width:3;stroke-linecap:butt;stroke-linejoin:miter;stroke-opacity:1"
       d="m 447.77297,305.53685 32.98054,-15.45364"
       id="path3233-2"
       inkscape:connector-curvature="0" />
  </g>
</svg>
