<svg
   preserveAspectRatio="xMinYMin meet" viewBox="0 0 800 960"
   xmlns:dc="http://purl.org/dc/elements/1.1/"
   xmlns:cc="http://creativecommons.org/ns#"
   xmlns:rdf="http://www.w3.org/1999/02/22-rdf-syntax-ns#"
   xmlns:svg="http://www.w3.org/2000/svg"
   xmlns="http://www.w3.org/2000/svg"
   xmlns:sodipodi="http://sodipodi.sourceforge.net/DTD/sodipodi-0.dtd"
   xmlns:inkscape="http://www.inkscape.org/namespaces/inkscape"
   width="100%"
   height="100%"
   id="svg2"
   version="1.1"
   inkscape:version="0.48.4 r9939"
   sodipodi:docname="New document 1">
  <defs
     id="defs4" />
  <sodipodi:namedview
     id="base"
     pagecolor="#ffffff"
     bordercolor="#666666"
     borderopacity="1.0"
     inkscape:pageopacity="0.0"
     inkscape:pageshadow="2"
     inkscape:zoom="0.7"
     inkscape:cx="549.89487"
     inkscape:cy="505.5401"
     inkscape:document-units="px"
     inkscape:current-layer="layer1"
     showgrid="false"
     inkscape:window-width="1366"
     inkscape:window-height="718"
     inkscape:window-x="0"
     inkscape:window-y="27"
     inkscape:window-maximized="1" />
  <metadata
     id="metadata7">
    <rdf:RDF>
      <cc:Work
         rdf:about="">
        <dc:format>image/svg+xml</dc:format>
        <dc:type
           rdf:resource="http://purl.org/dc/dcmitype/StillImage" />
        <dc:title></dc:title>
      </cc:Work>
    </rdf:RDF>
  </metadata>
  <g
     inkscape:label="Layer 1"
     inkscape:groupmode="layer"
     id="layer1">
    <path
       sodipodi:type="arc"
       style="fill:#ffffff;stroke:#000000;stroke-width:8;stroke-miterlimit:4;stroke-opacity:1;stroke-dasharray:none"
       id="path2985"
       sodipodi:cx="199.00005"
       sodipodi:cy="436.16913"
       sodipodi:rx="85.862968"
       sodipodi:ry="80.812202"
       d="m 284.86301,436.16913 a 85.862968,80.812202 0 1 1 -171.72593,0 85.862968,80.812202 0 1 1 171.72593,0 z" />
    <path
       style="fill:#000000;stroke:#000000;stroke-width:8;stroke-miterlimit:4;stroke-opacity:1;stroke-dasharray:none"
       id="path3009"
       d="m 585.30231,758.19425 c -18.37988,-29.36196 -5.1624,-10.41076 -34.95695,-44.82219 -35.80898,-41.35783 -33.6407,-42.35864 -76.9968,-81.74151 -37.91975,-34.44471 -58.23515,-48.48698 -98.51849,-79.01647 -32.94184,-24.3582 -67.22551,-46.76173 -101.75634,-68.76503 0,0 0.75939,-0.79246 0.75939,-0.79246 l 0,0 c 34.26421,22.32089 68.30178,45.00029 101.11714,69.43399 39.85229,30.33778 60.8358,45.05366 98.50544,79.03256 44.41659,40.06481 40.64619,39.44821 77.55302,81.19298 30.63993,34.65637 16.46827,14.92044 35.59931,44.31261 0,0 -1.30572,1.16552 -1.30572,1.16552 z"
       inkscape:connector-curvature="0" />
    <path
       style="fill:#000000;stroke:#000000;stroke-width:8;stroke-miterlimit:4;stroke-opacity:1;stroke-dasharray:none"
       id="path3017"
       d="m 451.06616,618.4226 c -1.04164,5.57336 -1.82124,11.50908 -1.49486,17.18552 0.15476,2.69146 0.69287,5.34711 1.03931,8.02067 4.32105,17.29969 15.97571,31.04921 28.7039,42.99361 5.84848,4.90901 11.53559,9.9613 17.18574,15.09364 1.664,1.48295 0.94964,0.5805 2.0371,2.78798 0,0 -1.43319,1.34121 -1.43319,1.34121 l 0,0 c -1.03807,-2.14889 -0.35035,-1.25591 -1.98027,-2.74078 -5.60431,-5.18157 -11.27586,-10.2458 -17.08874,-15.19517 -12.68739,-12.02395 -24.32923,-25.82791 -28.75907,-43.10972 -0.36655,-2.66913 -0.9236,-5.31896 -1.09964,-8.00739 -0.37035,-5.65583 0.38532,-11.5515 1.33014,-17.12205 0,0 1.55958,-1.24752 1.55958,-1.24752 z"
       inkscape:connector-curvature="0" />
    <path
       style="fill:#000000;stroke:#000000;stroke-width:8;stroke-miterlimit:4;stroke-opacity:1;stroke-dasharray:none"
       id="path3023"
       d="m 498.64825,709.45331 c 0.98481,14.79818 -2.53113,28.99084 -6.31104,43.16302 -4.15946,13.80629 -9.94085,27.06497 -17.12556,39.54935 -2.67388,4.42137 -5.53284,8.6985 -7.88315,13.31021 -0.22325,0.30658 -0.44651,0.61316 -0.66976,0.91975 0,0 -1.59002,1.1897 -1.59002,1.1897 l 0,0 c 0.23248,-0.29928 0.46496,-0.59855 0.69744,-0.89783 2.37143,-4.63199 5.23098,-8.93835 7.94263,-13.36876 7.25896,-12.50728 13.13411,-25.78921 17.32643,-39.64788 3.76442,-14.09174 7.28141,-28.20365 6.09348,-42.91974 0,0 1.51955,-1.29782 1.51955,-1.29782 z"
       inkscape:connector-curvature="0" />
    <path
       style="fill:#000000;stroke:#000000;stroke-width:8;stroke-miterlimit:4;stroke-opacity:1;stroke-dasharray:none"
       id="path3035"
       d="m 487.75782,795.32957 c 5.17789,5.9834 11.76419,10.25674 18.3543,14.4926 4.12405,2.30238 7.78382,5.20405 10.42788,9.13491 2.29701,3.63336 -4.64751,3.13714 -6.26046,3.16928 -4.72758,-0.16992 -9.52166,0.37219 -14.21851,-0.27392 -3.92465,-0.81182 -7.77939,-2.45351 -11.20659,-4.52904 -3.00928,-2.2809 -5.75792,-4.89847 -8.60477,-7.38107 -1.58648,-1.26383 -2.94258,-2.80512 -4.7068,-3.83591 -0.9329,-0.54507 -1.36607,-0.50402 -1.24679,-0.60529 0.49418,-0.41959 1.13501,-0.62678 1.70252,-0.94017 0.84113,1.03443 1.91881,1.44347 3.17803,1.71554 1.39275,0.10288 2.41383,1.14241 3.67352,1.65741 1.58324,0.40148 3.14309,0.56789 4.70267,1.11249 2.44002,0.79073 4.93749,1.04603 7.35841,1.90045 1.24627,0.45771 2.48853,0.92829 3.71197,1.44442 0.65874,0.21603 1.50229,0.11034 2.18406,0.11481 2.22565,0.47772 4.41645,1.10997 6.62834,1.65321 0.69401,0.21186 1.37226,0.33408 2.09252,0.35298 0.49028,-0.021 0.61253,-0.0528 0.97045,0.29683 0,0 -1.42026,1.42222 -1.42026,1.42222 l 0,0 c -0.26878,-0.2692 -0.48528,-0.18995 -0.85938,-0.19573 -0.72947,-0.0259 -1.41574,-0.18041 -2.11688,-0.39017 -2.1916,-0.55683 -4.36676,-1.20129 -6.58668,-1.62658 -0.71088,0.005 -1.57837,0.12318 -2.26033,-0.1512 -1.20993,-0.52756 -2.44217,-1.00284 -3.68068,-1.4586 -2.42131,-0.84739 -4.9278,-1.08918 -7.36193,-1.89523 -1.56361,-0.53666 -3.14771,-0.65561 -4.72041,-1.11077 -1.24491,-0.52315 -2.2611,-1.53699 -3.64938,-1.63247 -1.30519,-0.30146 -2.4182,-0.76204 -3.29481,-1.82816 0.37474,-0.63447 0.64083,-1.34724 1.12423,-1.90339 0.0896,-0.10304 0.2381,0.13372 0.35931,0.19654 0.2925,0.15158 0.60031,0.27524 0.88168,0.4466 1.74924,1.06531 3.10751,2.60928 4.69389,3.88421 2.84007,2.4754 5.63135,5.0245 8.60381,7.33394 3.40624,2.06893 7.23528,3.69312 11.14548,4.47648 4.68803,0.62948 9.47217,0.1231 14.18931,0.26031 1.07516,-0.0284 2.7933,-0.0438 3.90833,-0.17592 0.31974,-0.0379 0.87509,-0.51392 0.94507,-0.19965 0.45945,2.06314 -1.27223,0.92411 -1.29184,0.0722 -2.57601,-3.9475 -6.21817,-6.83319 -10.30336,-9.14607 -6.59648,-4.25162 -13.17702,-8.54797 -18.4452,-14.4588 0,0 1.39928,-1.39928 1.39928,-1.39928 z"
       inkscape:connector-curvature="0" />
    <path
       style="fill:#000000;stroke:#000000;stroke-width:8;stroke-miterlimit:4;stroke-opacity:1;stroke-dasharray:none"
       id="path3037"
       d="m 487.61008,803.87851 c -0.94849,-0.21427 -1.91195,-0.37123 -2.8773,-0.49263 -1.0268,-0.026 -1.94905,-0.41126 -2.87211,-0.81641 -0.47903,-0.1202 -0.86561,-0.40233 -1.28725,-0.63709 -0.42606,-0.13025 -0.83995,-0.30269 -1.22976,-0.5189 -0.61429,-0.36314 -1.2127,-0.75515 -1.80338,-1.15868 -0.29678,-0.2079 -0.58466,-0.42391 -0.90306,-0.59374 -0.21512,-0.26747 0.40206,-0.30553 0.54493,-0.29985 0.47906,0.004 0.90333,0.27771 1.28451,0.53967 1.09439,0.6379 1.9352,1.60934 2.81836,2.49823 1.10325,1.07038 2.15025,2.20179 3.33726,3.18128 0.36536,0.28272 0.19465,0.15526 0.51024,0.38492 0,0 -0.24311,0.25051 -0.24311,0.25051 l 0,0 c -0.31325,-0.23407 -0.14374,-0.10438 -0.50674,-0.3914 -1.17945,-0.98975 -2.2245,-2.12346 -3.33095,-3.19207 -0.8856,-0.8842 -1.73026,-1.84861 -2.82486,-2.48264 -0.3802,-0.25953 -0.7995,-0.5231 -1.27682,-0.51875 -0.25197,-0.008 -0.34306,0.0404 -0.0691,-0.22809 0.31645,0.17469 0.60271,0.39375 0.899,0.60326 0.589,0.40479 1.18867,0.79333 1.80446,1.15279 0.39017,0.21663 0.80564,0.38459 1.23136,0.51748 0.41832,0.23706 0.80343,0.51721 1.27952,0.64045 0.91824,0.40792 1.83805,0.78435 2.86039,0.81459 0.96973,0.12261 1.93762,0.27914 2.89221,0.48612 0,0 -0.2378,0.26095 -0.2378,0.26095 z"
       inkscape:connector-curvature="0" />
    <path
       style="fill:#000000;stroke:#000000;stroke-width:8;stroke-miterlimit:4;stroke-opacity:1;stroke-dasharray:none"
       id="path3039"
       d="m 479.10177,794.87144 c 0.30976,0.67497 0.9117,1.25619 1.4497,1.76309 0.68751,0.53076 1.40023,1.02678 2.16406,1.44124 0.65829,0.33095 1.18257,0.83254 1.71211,1.33403 0.54433,0.52534 0.99043,1.13848 1.34961,1.802 0.37237,0.56494 0.61141,1.20412 0.8746,1.82433 0.2589,0.41114 0.40449,0.87527 0.65127,1.29114 0.197,0.36778 0.45564,0.69961 0.66645,1.06053 0.25812,0.3971 0.53684,0.7432 0.95489,0.97372 0.0468,0.0214 0.0936,0.0428 0.14041,0.0641 0,0 -0.24031,0.2578 -0.24031,0.2578 l 0,0 c -0.0472,-0.0222 -0.0944,-0.0445 -0.14158,-0.0667 -0.42079,-0.23703 -0.70498,-0.5865 -0.96708,-0.98798 -0.21077,-0.36076 -0.47085,-0.69169 -0.66709,-1.05965 -0.24699,-0.41806 -0.39314,-0.88317 -0.65273,-1.29628 -0.25954,-0.62094 -0.5004,-1.2586 -0.86982,-1.82427 -0.35501,-0.66274 -0.80175,-1.26866 -1.34384,-1.79222 -0.52719,-0.49948 -1.04678,-1.00121 -1.70277,-1.33072 -0.76615,-0.41657 -1.48188,-0.91244 -2.16936,-1.44846 -0.54248,-0.51054 -1.14712,-1.09385 -1.46947,-1.76792 0,0 0.26095,-0.23781 0.26095,-0.23781 z"
       inkscape:connector-curvature="0" />
    <path
       style="fill:#000000;stroke:#000000;stroke-width:8;stroke-miterlimit:4;stroke-opacity:1;stroke-dasharray:none"
       id="path3041"
       d="m 481.28184,795.17979 c 0.45358,0.3946 0.95015,0.73631 1.41683,1.11521 0.54506,0.64196 1.18102,1.2097 1.71028,1.86277 0.60844,0.58373 0.81114,1.38076 1.12782,2.12965 0.29738,0.67162 0.64332,1.31643 1.06245,1.91934 0.0352,0.048 0.0704,0.0961 0.10553,0.14413 0,0 -0.2526,0.24474 -0.2526,0.24474 l 0,0 c -0.0349,-0.0487 -0.0699,-0.0973 -0.1048,-0.14598 -0.4164,-0.6082 -0.76252,-1.25519 -1.06287,-1.92864 -0.31667,-0.74514 -0.51698,-1.54018 -1.12166,-2.12218 -0.52769,-0.65111 -1.16101,-1.21843 -1.70547,-1.85742 -0.46854,-0.37895 -0.96783,-0.71957 -1.42545,-1.11167 0,0 0.24994,-0.24995 0.24994,-0.24995 z"
       inkscape:connector-curvature="0" />
    <path
       style="fill:#000000;stroke:#000000;stroke-width:8;stroke-miterlimit:4;stroke-opacity:1;stroke-dasharray:none"
       id="path3043"
       d="m 480.60421,791.91729 c 0.42866,0.3514 0.88462,0.65907 1.30085,1.02673 0.27234,0.29802 0.54006,0.59939 0.83771,0.87571 0.23639,0.23191 0.50073,0.43725 0.69527,0.70671 0.28557,0.25044 0.43868,0.54717 0.54977,0.90433 0.10056,0.28311 0.23752,0.56506 0.43207,0.79913 0.1444,0.14997 0.0767,0.0551 0.17438,0.30318 0,0 -0.25807,0.23737 -0.25807,0.23737 l 0,0 c -0.0895,-0.23742 -0.0256,-0.14452 -0.16766,-0.29382 -0.19678,-0.23744 -0.34031,-0.5227 -0.44177,-0.80916 -0.10679,-0.35608 -0.2569,-0.6479 -0.54147,-0.89634 -0.19209,-0.26815 -0.4569,-0.47067 -0.69098,-0.7013 -0.29485,-0.27828 -0.56438,-0.57793 -0.83543,-0.87672 -0.41051,-0.36745 -0.86137,-0.67367 -1.29248,-1.01488 0,0 0.23781,-0.26094 0.23781,-0.26094 z"
       inkscape:connector-curvature="0" />
    <path
       style="fill:#000000;stroke:#000000;stroke-width:8;stroke-miterlimit:4;stroke-opacity:1;stroke-dasharray:none"
       id="path3045"
       d="m 480.60421,792.27443 c 0.52724,0.10274 0.97614,0.35819 1.44786,0.60155 0.51158,0.35991 1.006,0.7462 1.5052,1.12429 0.40683,0.24879 0.62873,0.61084 0.88553,0.99347 0.12062,0.1812 0.27017,0.33471 0.31815,0.54998 0.0165,0.10902 0.01,0.0494 0.0176,0.17915 0,0 -0.26793,0.23138 -0.26793,0.23138 l 0,0 c -0.006,-0.12631 -6.2e-4,-0.0681 -0.0144,-0.17471 -0.0418,-0.2127 -0.18903,-0.3635 -0.30629,-0.54256 -0.25364,-0.38002 -0.47305,-0.73932 -0.8761,-0.98656 -0.49523,-0.37976 -0.9896,-0.76291 -1.49976,-1.12118 -0.47066,-0.24319 -0.92119,-0.49248 -1.44759,-0.59386 0,0 0.23781,-0.26095 0.23781,-0.26095 z"
       inkscape:connector-curvature="0" />
    <path
       style="fill:#000000;stroke:#000000;stroke-width:8;stroke-miterlimit:4;stroke-opacity:1;stroke-dasharray:none"
       id="path3047"
       d="m 481.60177,790.94287 c 0.15677,0.43158 0.40192,0.8415 0.71308,1.17869 0.55102,0.43261 1.12492,0.83851 1.73208,1.18844 0.49949,0.25718 0.8483,0.72507 1.21741,1.13611 0.22691,0.26828 0.42957,0.54899 0.67985,0.79776 0,0 -0.24929,0.24926 -0.24929,0.24926 l 0,0 c -0.24878,-0.25109 -0.45304,-0.53154 -0.67807,-0.8022 -0.36605,-0.40923 -0.71478,-0.87038 -1.20934,-1.12871 -0.6082,-0.35474 -1.18526,-0.76159 -1.73938,-1.19571 -0.31701,-0.33849 -0.56419,-0.7516 -0.72729,-1.18584 0,0 0.26095,-0.2378 0.26095,-0.2378 z"
       inkscape:connector-curvature="0" />
    <path
       style="fill:#000000;stroke:#000000;stroke-width:8;stroke-miterlimit:4;stroke-opacity:1;stroke-dasharray:none"
       id="path3049"
       d="m 480.95716,791.87073 c 0.43489,0.0238 0.8843,0.14587 1.28982,0.30712 0.51281,0.15332 0.91773,0.48474 1.33962,0.79549 0.4984,0.31384 0.77209,0.76381 1.08199,1.23892 0.20288,0.27831 0.44332,0.50662 0.59062,0.82048 0.19165,0.66528 0.44162,1.31121 0.69335,1.95551 0.0994,0.2778 0.16672,0.56463 0.26035,0.84412 0,0 -0.25886,0.23624 -0.25886,0.23624 l 0,0 c -0.0968,-0.27863 -0.15983,-0.56609 -0.25764,-0.84469 -0.2472,-0.64468 -0.50038,-1.28851 -0.69381,-1.95189 -0.14501,-0.31288 -0.38868,-0.53763 -0.58643,-0.81761 -0.30763,-0.47181 -0.57424,-0.92186 -1.07364,-1.22966 -0.4184,-0.31111 -0.82168,-0.63881 -1.33263,-0.78947 -0.4044,-0.15671 -0.84869,-0.28103 -1.28216,-0.29594 0,0 0.22942,-0.26862 0.22942,-0.26862 z"
       inkscape:connector-curvature="0" />
    <path
       style="fill:#000000;stroke:#000000;stroke-width:8;stroke-miterlimit:4;stroke-opacity:1;stroke-dasharray:none"
       id="path3053"
       d="m 478.42678,789.15392 c 0.27171,0.30128 0.3594,0.71616 0.59071,1.0374 0.15536,0.37378 0.41169,0.68875 0.57656,1.0573 0.19264,0.66616 0.4348,1.30811 0.73797,1.93165 0.32764,0.69234 0.70828,1.34114 1.20966,1.92046 0.47634,0.44087 1.02268,0.78145 1.58724,1.0948 0.60542,0.36145 1.23519,0.67257 1.86112,0.99573 0.5383,0.17389 0.99245,0.48884 1.41292,0.86071 0.37112,0.29137 0.70609,0.62304 1.00016,0.99205 0.1193,0.12212 0.26314,0.21048 0.41468,0.28573 0,0 -0.24261,0.25846 -0.24261,0.25846 l 0,0 c -0.15449,-0.08 -0.30139,-0.17262 -0.42362,-0.29843 -0.29013,-0.3698 -0.62479,-0.69878 -0.99413,-0.98928 -0.41834,-0.37023 -0.87075,-0.68058 -1.40553,-0.85598 -0.62528,-0.32449 -1.255,-0.63609 -1.86001,-0.99831 -0.56917,-0.31386 -1.12019,-0.65517 -1.59756,-1.10168 -0.50344,-0.58181 -0.88478,-1.23442 -1.21235,-1.93023 -0.30552,-0.62121 -0.55399,-1.26108 -0.74523,-1.92665 -0.16169,-0.36765 -0.41865,-0.67917 -0.57239,-1.05115 -0.23279,-0.32096 -0.31593,-0.73863 -0.5917,-1.03831 0,0 0.25411,-0.24427 0.25411,-0.24427 z"
       inkscape:connector-curvature="0" />
    <path
       style="fill:#000000;stroke:#000000;stroke-width:8;stroke-miterlimit:4;stroke-opacity:1;stroke-dasharray:none"
       id="path3055"
       d="m 479.45891,788.08573 c 0.0723,0.34671 0.35818,0.57234 0.53055,0.86274 0.0466,0.21321 0.16566,0.29728 0.29971,0.44143 0.10136,0.153 0.27481,0.23461 0.43826,0.30671 0.0888,0.16987 0.16827,0.33888 0.27777,0.50025 0.10162,0.10131 0.14587,0.23694 0.22609,0.34829 0.13662,0.18968 0.24915,0.36249 0.4443,0.50037 0.14646,0.19514 0.30622,0.37538 0.44356,0.5791 0.11817,0.2625 0.30077,0.50093 0.50702,0.70145 0.22629,0.18498 0.31259,0.47494 0.43948,0.72942 0.18546,0.34206 0.33303,0.70185 0.51488,1.04497 0.23345,0.43303 0.47513,0.87027 0.65022,1.33237 0.17185,0.29685 0.34121,0.59183 0.47729,0.90748 0.0862,0.0789 0.10713,0.15291 0.1962,0.0456 0,0 -0.2126,0.28361 -0.2126,0.28361 l 0,0 c -0.12481,0.0554 -0.15309,0.007 -0.24332,-0.0887 -0.13284,-0.31818 -0.30165,-0.61426 -0.47525,-0.91136 -0.1723,-0.46184 -0.41431,-0.89716 -0.64714,-1.32901 -0.18368,-0.34233 -0.33197,-0.70195 -0.51688,-1.04436 -0.12561,-0.2508 -0.21136,-0.53602 -0.43183,-0.72042 -0.20692,-0.20215 -0.39538,-0.44135 -0.51293,-0.70596 -0.13393,-0.20138 -0.29255,-0.37662 -0.43484,-0.56975 -0.19647,-0.14151 -0.31446,-0.31555 -0.45244,-0.5079 -0.0831,-0.10943 -0.12426,-0.2472 -0.22661,-0.34987 -0.10554,-0.15584 -0.19473,-0.31311 -0.26497,-0.48538 -0.16588,-0.0763 -0.34362,-0.16174 -0.44766,-0.31732 -0.13622,-0.14645 -0.26078,-0.23065 -0.30425,-0.44781 -0.17022,-0.29402 -0.45977,-0.5208 -0.53556,-0.86814 0,0 0.26095,-0.2378 0.26095,-0.2378 z"
       inkscape:connector-curvature="0" />
    <path
       style="fill:#ffffff;stroke:#ffffff;stroke-width:8;stroke-miterlimit:4;stroke-opacity:1;stroke-dasharray:none"
       id="path3061"
       d="m 460.34639,618.09499 c 0.43751,0.91935 1.12771,1.66171 1.64024,2.53541 0.48431,0.78323 0.79626,1.66482 1.32879,2.41547 0.59064,0.88398 1.20963,1.74357 1.90699,2.54852 1.42392,1.50286 3.10955,2.66939 4.89762,3.69433 2.44163,1.13055 4.99397,2.00019 7.48521,3.0122 1.56417,0.63296 3.15565,1.20726 4.59507,2.09932 1.11982,0.72954 2.05072,1.70175 2.9925,2.63979 1.65274,1.28387 2.78296,3.04592 3.94893,4.75169 1.93807,2.32153 4.16353,4.38325 6.36417,6.45099 1.22999,1.09528 2.22484,2.41711 3.29023,3.66577 0.32331,0.37611 0.65262,0.74696 0.98291,1.11692 0,0 -0.50004,0.49395 -0.50004,0.49395 l 0,0 c -0.32715,-0.37356 -0.65372,-0.74764 -0.97665,-1.12487 -1.06325,-1.24753 -2.05298,-2.57007 -3.276,-3.66955 -2.19033,-2.08561 -4.41317,-4.15441 -6.37069,-6.46475 -1.1679,-1.69857 -2.30091,-3.45296 -3.94969,-4.73294 -0.94174,-0.93088 -1.87277,-1.89411 -2.98458,-2.62548 -1.43569,-0.88959 -3.01989,-1.46517 -4.5788,-2.09979 -2.49074,-1.0189 -5.03967,-1.90181 -7.48693,-3.02346 -1.7984,-1.02371 -3.49107,-2.19435 -4.92604,-3.69793 -0.70548,-0.80082 -1.32635,-1.66157 -1.91735,-2.54793 -0.53946,-0.75046 -0.84832,-1.63412 -1.32999,-2.42279 -0.51813,-0.87487 -1.20371,-1.62496 -1.65779,-2.53926 0,0 0.52189,-0.47561 0.52189,-0.47561 z"
       inkscape:connector-curvature="0" />
    <path
       style="fill:#ffffff;stroke:#ffffff;stroke-width:8;stroke-miterlimit:4;stroke-opacity:1;stroke-dasharray:none"
       id="path3063"
       d="m 492.7132,656.38026 c 3.05648,0.97162 5.47936,3.22437 7.88161,5.25371 1.95233,1.74695 3.83277,3.5453 5.93299,5.11656 1.1056,0.7785 2.14811,1.66297 3.34701,2.29602 1.72012,0.8782 3.50425,1.63339 5.27463,2.41917 2.61729,0.88209 4.58307,2.59236 6.27563,4.71169 1.53501,2.38128 2.50368,5.06469 3.64778,7.6434 0.71002,1.55202 1.52804,3.02952 2.43264,4.47277 0.57551,1.18194 0.96932,2.4435 1.44236,3.66926 1.34681,2.87855 3.1975,5.46535 5.26406,7.86544 2.11175,2.36276 4.31818,4.64166 6.499,6.94173 1.4278,1.13319 2.64685,2.49372 3.87205,3.83537 0.58774,0.93052 1.34396,1.68587 2.14682,2.42714 1.0974,1.04488 2.37832,1.8634 3.70885,2.57526 2.48498,1.08806 5.05286,2.02388 7.66578,2.75934 1.69094,0.49441 3.44506,0.63151 5.14512,1.07084 1.27481,0.25689 2.19703,0.61345 2.79156,1.81202 0.39723,1.01061 0.52517,2.08973 0.85264,3.12031 0,0 -0.51806,0.47085 -0.51806,0.47085 l 0,0 c -0.32857,-1.02911 -0.45478,-2.10399 -0.8408,-3.11702 -0.57828,-1.17858 -1.5045,-1.51508 -2.75009,-1.76904 -1.69657,-0.43703 -3.44549,-0.58977 -5.13069,-1.08917 -2.61752,-0.74118 -5.19034,-1.67812 -7.68425,-2.76084 -1.33833,-0.713 -2.62798,-1.52688 -3.73099,-2.57767 -0.80536,-0.74306 -1.56537,-1.49575 -2.14845,-2.43398 -1.22288,-1.34324 -2.43134,-2.71285 -3.85947,-3.84612 -2.17535,-2.307 -4.37072,-4.59775 -6.48583,-6.95908 -2.0717,-2.40243 -3.93547,-4.98625 -5.30211,-7.86082 -0.47516,-1.21923 -0.88029,-2.46927 -1.44255,-3.65139 -0.89701,-1.45382 -1.71258,-2.93813 -2.42213,-4.49587 -1.13669,-2.57611 -2.10392,-5.2539 -3.63478,-7.63178 -1.68781,-2.11166 -3.64361,-3.81212 -6.25392,-4.68745 -1.77731,-0.7787 -3.56441,-1.53361 -5.28968,-2.41015 -1.2022,-0.63507 -2.24781,-1.51989 -3.35232,-2.30644 -2.08977,-1.58579 -3.96304,-3.39191 -5.9122,-5.14318 -2.38894,-2.0185 -4.81223,-4.28532 -7.87937,-5.18561 0,0 0.45716,-0.53527 0.45716,-0.53527 z"
       inkscape:connector-curvature="0" />
    <path
       style="fill:#ffffff;stroke:#ffffff;stroke-width:8;stroke-miterlimit:4;stroke-opacity:1;stroke-dasharray:none"
       id="path3065"
       d="m 588.38117,771.61211 c 1.33353,-2.93272 2.68207,-5.85398 4.05107,-8.77051 1.19541,-2.62854 2.51012,-5.22 3.42518,-7.96511 0.48547,-2.41136 -0.27048,-5.05744 -0.87385,-7.4008 -0.9923,-3.0411 -2.53484,-5.80587 -4.25293,-8.48362 -1.21398,-1.78243 -2.37618,-3.60002 -3.61619,-5.36346 -1.50577,-2.31062 -2.35708,-3.46093 -5.06544,-4.18765 -2.88864,-0.67343 -5.80989,-1.16931 -8.75081,-1.54467 -1.54407,-0.23571 -3.20591,-0.0938 -4.49179,0.85171 -0.15664,0.15868 -0.33977,0.295 -0.46991,0.47604 -0.0203,0.0283 0.0883,0.0385 0.0765,0.0713 -0.17089,0.47518 -0.47445,0.89457 -0.65353,1.36673 -0.27283,0.71933 -0.34295,1.08835 -0.5324,1.83674 -0.23901,1.49901 -0.6696,2.95689 -0.95758,4.44534 -0.30797,2.08924 -0.27761,4.21285 -0.29761,6.31977 -0.0197,2.02947 -0.13209,4.05938 0.40339,6.03404 0.46044,1.12404 1.38328,1.92944 2.13079,2.85747 0.89641,1.14137 2.21587,1.86049 3.42923,2.62994 1.48846,0.89532 3.0445,1.68709 4.62435,2.40955 1.22163,0.58427 2.5365,0.92505 3.83982,1.27251 1.19638,0.3741 2.32104,0.92798 3.50884,1.32495 0.18801,0.0643 0.37968,0.11571 0.57218,0.16397 0,0 -0.47546,0.53025 -0.47546,0.53025 l 0,0 c -0.19192,-0.053 -0.3832,-0.1082 -0.57121,-0.17419 -1.17964,-0.40805 -2.29846,-0.9648 -3.49129,-1.33735 -1.30826,-0.34821 -2.63642,-0.6693 -3.85578,-1.27255 -1.57797,-0.73264 -3.13386,-1.52727 -4.6268,-2.42028 -1.22154,-0.77129 -2.5494,-1.49215 -3.45182,-2.63952 -0.75212,-0.93722 -1.68407,-1.74669 -2.14577,-2.8825 -0.54394,-1.98175 -0.42575,-4.02157 -0.4029,-6.05941 0.0169,-2.10535 -0.0206,-4.22721 0.27437,-6.31633 0.28035,-1.49305 0.72816,-2.95052 0.96179,-4.45388 0.45428,-1.82872 1.01585,-3.49066 2.52904,-4.73839 1.32148,-0.90976 2.96232,-1.05756 4.52032,-0.8054 2.94101,0.39195 5.8647,0.88928 8.75848,1.54964 2.72798,0.73648 3.58016,1.89782 5.09505,4.22444 1.24727,1.75999 2.42527,3.56834 3.6165,5.36735 1.7182,2.68584 3.2614,5.45809 4.26402,8.50223 0.59407,2.29323 1.3814,5.05904 0.91833,7.41421 -0.9199,2.7587 -2.26084,5.3554 -3.45603,7.99944 -1.35937,2.90028 -2.69398,5.80652 -4.00873,8.72698 0,0 -0.5514,0.44107 -0.5514,0.44107 z"
       inkscape:connector-curvature="0" />
    <path
       style="fill:#ffffff;stroke:#ffffff;stroke-width:8;stroke-miterlimit:4;stroke-opacity:1;stroke-dasharray:none"
       id="path3067"
       d="m 578.14644,746.63584 c -0.77145,-1.63591 -1.49825,-3.28925 -2.24456,-4.93692 -0.26968,-0.42924 -0.36242,-0.94798 -0.61519,-1.38554 -0.0455,-0.0788 -0.23597,-0.11078 -0.19436,-0.19171 0.0654,-0.1273 0.31278,-0.3064 0.38775,-0.18447 0.15892,0.25846 -0.04,0.62104 0.0574,0.90841 0.234,0.6908 0.61495,1.32275 0.92242,1.98413 3.22581,4.90933 7.75833,8.73301 11.466,13.25246 2.48055,3.02365 3.29896,4.40213 5.44178,7.59561 1.74128,2.49876 2.9563,5.31059 4.55774,7.89056 0.21861,0.3522 0.45613,0.6955 0.72925,1.00735 0.12882,0.14709 0.50452,0.16526 0.46553,0.35686 -0.0389,0.19098 -0.37807,0.0948 -0.56711,0.14228 -2.39769,-3.08443 -5.31354,-5.70522 -7.7326,-8.78274 -2.23143,-2.83881 -3.16998,-4.43155 -5.1253,-7.44355 -3.01226,-4.34429 -5.23307,-9.17471 -8.25696,-13.50337 -2.69041,-3.2697 -6.0717,-5.85989 -9.34341,-8.51366 1.45521,0.63081 -1.12319,-0.53894 -0.79671,-0.58957 0.43299,-0.0672 0.93246,-0.22197 1.31448,-0.007 1.6651,0.93539 4.12166,4.62371 4.88471,5.70921 1.17332,1.66915 2.27542,3.38723 3.41312,5.08084 6.90676,10.42652 13.7854,20.87563 21.18852,30.95929 1.83964,2.22001 3.25114,4.80034 5.22134,6.91863 0.25552,0.27472 0.7306,0.38307 0.84884,0.73913 0.0602,0.18134 -0.41354,0.2879 -0.55163,0.15583 -0.5631,-0.53852 -0.87321,-1.29069 -1.30981,-1.93604 -6.80727,-14.98475 -16.03465,-28.67416 -25.30763,-42.2132 -1.04068,-1.4807 -2.09351,-2.95292 -3.12202,-4.4421 -0.61484,-0.89021 -1.16082,-1.82849 -1.80775,-2.69567 -0.1016,-0.13619 -0.48738,-0.44546 -0.41941,-0.28973 0.28149,0.64493 0.79608,1.16944 1.08369,1.81166 0.60952,1.36098 1.02482,2.80193 1.5989,4.17824 0.74415,1.78403 1.56963,3.53304 2.35445,5.29956 4.37822,9.85891 9.66139,19.29638 15.2258,28.52912 -0.70379,1.55694 1.84968,1.78611 1.96263,2.96633 0.0218,0.22787 -0.41016,0.50911 -0.58439,0.36065 -0.46465,-0.39591 -0.61274,-1.05733 -0.87833,-1.60698 -0.47714,-0.98749 -0.88962,-2.00502 -1.3483,-3.00121 -0.5793,-1.25816 -1.17703,-2.50775 -1.76555,-3.76162 -2.41799,-5.4797 -4.92307,-10.91954 -7.27767,-16.42694 -1.11432,-2.46055 -2.92595,-4.24617 -5.18906,-5.64202 0.0208,-0.0712 -1.4294,-0.84777 -1.48598,-0.35347 -0.0128,0.11155 0.27583,-0.15746 0.33147,-0.0599 0.11461,0.20086 -0.005,0.46454 0.0298,0.69315 0.0477,0.31187 0.14468,0.61418 0.21703,0.92127 0.64382,1.43571 1.08127,2.98053 1.8786,4.34379 0.28083,-0.0406 0.13743,-0.0273 -0.39695,0.17056 0,0 0.53591,-0.45784 0.53591,-0.45784 l 0,0 c -0.52744,0.85183 -0.19298,0.88493 -0.64923,0.77143 -0.78374,-1.37997 -1.22138,-2.93095 -1.87885,-4.37048 -0.0419,-0.16796 -0.39081,-1.34696 -0.28471,-1.63635 0.50545,-1.37869 1.22888,-1.08724 2.17637,-0.51784 2.26377,1.41847 4.08555,3.21269 5.20116,5.68811 2.32466,5.52786 4.7774,10.99941 7.22225,16.47498 1.0644,2.23218 2.04848,4.50326 3.16224,6.71123 0.27207,0.53935 0.7755,0.9782 0.91028,1.56706 0.0545,0.23796 -0.18169,0.68197 -0.41322,0.60462 -1.13019,-0.3776 -0.5127,-3.1277 -1.92029,-3.01525 -5.48073,-9.29128 -10.75223,-18.74006 -15.17557,-28.58556 -0.79529,-1.75808 -1.62545,-3.50079 -2.38587,-5.27423 -1.19264,-2.78147 -2.07826,-4.01482 -1.76743,-6.88092 0.0187,-0.17264 0.27605,0.21911 0.37444,0.3622 0.61501,0.8944 1.15395,1.8392 1.75898,2.74039 1.01038,1.50493 2.05775,2.98469 3.08662,4.47703 4.76339,7.0558 9.46515,14.13992 13.9487,21.37886 1.71287,2.76553 3.45698,5.51404 5.06261,8.34318 1.3798,2.43124 4.86629,9.36626 6.39897,12.39127 0.45863,0.63905 1.1229,1.17236 1.37588,1.91716 0.0981,0.28869 -0.15043,0.78651 -0.45524,0.79333 -0.37818,0.008 -0.58598,-0.48298 -0.83879,-0.76437 -1.93609,-2.15495 -3.3371,-4.74088 -5.16248,-6.98032 -7.34889,-10.12603 -14.20742,-20.59025 -21.16044,-30.98916 -1.53423,-2.25162 -4.37203,-6.61136 -6.31534,-8.81483 -2.02464,-2.29568 -1.88996,-0.88742 -2.40901,-2.82861 -0.0178,-0.0664 0.0785,0.11287 0.11779,0.16931 0.21479,0.14413 0.42959,0.28827 0.64438,0.4324 3.25028,2.68822 6.62729,5.28744 9.33742,8.54512 3.03787,4.32952 5.20712,9.19118 8.20851,13.553 1.95825,3.02204 2.87655,4.5943 5.12504,7.433 2.43794,3.07786 5.36857,5.69013 7.84207,8.72758 -0.14891,0.27399 -0.16557,0.6871 -0.44674,0.82197 -0.15595,0.0748 -0.74759,-0.6971 -1.17893,-1.4165 -1.56351,-2.60769 -2.77446,-5.42226 -4.50354,-7.93541 -2.14431,-3.21308 -2.93459,-4.56144 -5.42662,-7.59971 -3.71094,-4.52435 -8.24884,-8.33763 -11.53784,-13.20685 -0.0774,-0.15812 -1.32613,-2.13402 -1.06297,-2.90236 0.66376,-1.938 1.23968,0.38368 1.47921,0.86338 0.74063,1.64397 1.46701,3.29111 2.25191,4.91433 0,0 -0.50822,0.48854 -0.50822,0.48854 z"
       inkscape:connector-curvature="0" />
    <path
       style="fill:#ffffff;stroke:#ffffff;stroke-width:8;stroke-miterlimit:4;stroke-opacity:1;stroke-dasharray:none"
       id="path3069"
       d="m 554.55434,713.10337 c -0.0143,2.30981 -0.0148,4.61967 -0.0135,6.92951 0.002,1.64773 0.005,3.29547 0.0116,4.9432 0.002,0.36358 -0.0358,0.20437 0.0783,0.48441 0,0 -0.51916,0.48093 -0.51916,0.48093 l 0,0 c -0.13435,-0.30244 -0.0944,-0.13445 -0.0926,-0.5097 0.007,-1.65434 0.01,-3.3087 0.0116,-4.96305 0.001,-2.30216 9e-4,-4.60433 -0.0135,-6.90646 0,0 0.53725,-0.45884 0.53725,-0.45884 z"
       inkscape:connector-curvature="0" />
    <path
       style="fill:#ffffff;stroke:#ffffff;stroke-width:8;stroke-miterlimit:4;stroke-opacity:1;stroke-dasharray:none"
       id="path3071"
       d="m 563.27797,723.71169 c 0.22973,0.35699 0.946,0.64838 0.91859,1.12137 -0.30304,0.67478 -0.77457,0.67774 -1.35134,0.67626 -0.95851,-0.0657 -1.89799,0.15257 -2.83989,0.30422 -0.55766,0.0947 -1.11536,0.18502 -1.67592,0.26031 0,0 0.44693,-0.53773 0.44693,-0.53773 l 0,0 c 0.55816,-0.0756 1.11422,-0.16289 1.66982,-0.25574 0.94795,-0.15277 1.89329,-0.37226 2.85847,-0.30947 0.61255,-0.007 0.90311,-0.32789 0.28022,0.36909 -0.0185,0.0207 0.0412,-0.0372 0.0618,-0.0559 0.14705,-0.37375 -0.70522,-0.79009 -0.86858,-1.07257 0,0 0.49989,-0.49989 0.49989,-0.49989 z"
       inkscape:connector-curvature="0" />
    <path
       style="fill:#ffffff;stroke:#ffffff;stroke-width:8;stroke-miterlimit:4;stroke-opacity:1;stroke-dasharray:none"
       id="path3073"
       d="m 526.85356,683.08852 c 1.20795,1.54959 2.71866,2.8221 4.08664,4.22116 1.88267,1.52403 3.92012,2.83181 5.80341,4.35366 1.43301,1.22984 2.91839,2.42328 4.17401,3.83828 0.66078,0.73107 1.33236,1.45258 2.02098,2.15754 0.38628,0.91634 0.89539,1.82908 1.39531,2.70434 0.90799,1.91308 1.79466,3.83923 2.93434,5.62808 0.44792,0.62546 0.89496,1.26827 1.46125,1.79522 0.0183,0.0149 0.0365,0.0299 0.0548,0.0448 0.0901,0.003 0.18012,0.007 0.27017,0.01 0,0 -0.46232,0.53292 -0.46232,0.53292 l 0,0 c -0.33181,-0.0377 -0.22901,0.0324 -0.36373,-0.0838 -0.56107,-0.54157 -1.00897,-1.18978 -1.4566,-1.82386 -1.13553,-1.79256 -2.0196,-3.72018 -2.93619,-5.63012 -0.50839,-0.86191 -1.01576,-1.76681 -1.39878,-2.67755 -0.67924,-0.71557 -1.34737,-1.44165 -2.00861,-2.17388 -1.25165,-1.41374 -2.73317,-2.60541 -4.16158,-3.83485 -1.87925,-1.53133 -3.92196,-2.83665 -5.80928,-4.35887 -1.37135,-1.40221 -2.87621,-2.68213 -4.11201,-4.21438 0,0 0.50821,-0.48854 0.50821,-0.48854 z"
       inkscape:connector-curvature="0" />
    <path
       style="fill:#ffffff;stroke:#ffffff;stroke-width:8;stroke-miterlimit:4;stroke-opacity:1;stroke-dasharray:none"
       id="path3075"
       d="m 506.21926,660.22699 c 1.43479,2.2732 2.76748,4.60176 4.03181,6.97429 0.95071,1.99196 1.80619,4.02508 2.56308,6.09799 0.0735,0.13106 0.14701,0.26211 0.22051,0.39316 0,0 -0.50876,0.48144 -0.50876,0.48144 l 0,0 c -0.0751,-0.13485 -0.1501,-0.2697 -0.22516,-0.40455 -0.73516,-2.08146 -1.58645,-4.11669 -2.53561,-6.11006 -1.25808,-2.36588 -2.58047,-4.68941 -4.04318,-6.93496 0,0 0.49731,-0.49731 0.49731,-0.49731 z"
       inkscape:connector-curvature="0" />
    <path
       style="fill:#ffffff;stroke:#ffffff;stroke-width:8;stroke-miterlimit:4;stroke-opacity:1;stroke-dasharray:none"
       id="path3077"
       d="m 500.42083,653.71169 c 0.91002,1.16827 1.79012,2.39278 2.73279,3.54545 0.94372,0.81686 1.3176,1.89859 1.72035,3.04391 0.99835,2.30326 2.20131,4.53364 3.83259,6.45046 1.62165,1.8716 3.84124,2.87695 6.08185,3.80206 2.30462,1.26594 4.78275,2.3145 6.8443,3.96958 0.5932,0.64694 1.47678,1.05755 2.06422,1.70223 0.12837,0.14088 0.7686,1.17871 0.8578,1.32098 0.44685,0.97707 0.9126,1.94084 1.44443,2.87444 0,0 -0.50529,0.47859 -0.50529,0.47859 l 0,0 c -0.52431,-0.9368 -0.98924,-1.90105 -1.4377,-2.87637 -0.0782,-0.12435 -0.72302,-1.16546 -0.84459,-1.29818 -0.58992,-0.64402 -1.46611,-1.06183 -2.05847,-1.71175 -2.04783,-1.6601 -4.51699,-2.71513 -6.81992,-3.96691 -2.25348,-0.9284 -4.48273,-1.93308 -6.11218,-3.81705 -1.62734,-1.92804 -2.83245,-4.16433 -3.85515,-6.46326 -0.40521,-1.13335 -0.7778,-2.20782 -1.70715,-3.02377 -0.93758,-1.15407 -1.80731,-2.38088 -2.73778,-3.53052 0,0 0.4999,-0.49989 0.4999,-0.49989 z"
       inkscape:connector-curvature="0" />
    <path
       style="fill:#ffffff;stroke:#ffffff;stroke-width:8;stroke-miterlimit:4;stroke-opacity:1;stroke-dasharray:none"
       id="path3079"
       d="m 511.06156,661.04041 c 0.34809,1.32963 1.16755,2.44338 2.06526,3.4549 0,0 -0.49236,0.4863 -0.49236,0.4863 l 0,0 c -0.89839,-1.02204 -1.72126,-2.14278 -2.09657,-3.47127 0,0 0.52367,-0.46993 0.52367,-0.46993 z"
       inkscape:connector-curvature="0" />
    <path
       style="fill:#ffffff;stroke:#ffffff;stroke-width:8;stroke-miterlimit:4;stroke-opacity:1;stroke-dasharray:none"
       id="path3081"
       d="m 516.13928,677.37424 c 0.8336,1.33241 1.64529,2.67979 2.39983,4.05892 0.29775,0.75498 0.71581,1.44979 1.15795,2.12662 0,0 -0.50592,0.48507 -0.50592,0.48507 l 0,0 c -0.43845,-0.68194 -0.8579,-1.37938 -1.15429,-2.13735 -0.7502,-1.378 -1.5533,-2.72766 -2.40579,-4.04473 0,0 0.50822,-0.48853 0.50822,-0.48853 z"
       inkscape:connector-curvature="0" />
    <path
       style="fill:#ffffff;stroke:#ffffff;stroke-width:8;stroke-miterlimit:4;stroke-opacity:1;stroke-dasharray:none"
       id="path3083"
       d="m 471.06174,630.41365 c 0.57995,3.00873 2.64242,5.30247 4.77187,7.37966 1.8528,1.78834 3.93019,3.30847 5.99559,4.83521 1.25245,0.92501 2.50545,1.84929 3.7589,2.77293 0.35182,0.21868 0.68076,0.29166 0.93939,0.63868 0.50223,0.71323 1.33918,1.17774 2.07248,1.62998 0.7792,0.3756 1.42473,0.93831 2.09112,1.47986 0.26751,0.21801 0.53402,0.43725 0.79993,0.65722 0,0 -0.49723,0.50609 -0.49723,0.50609 l 0,0 c -0.26289,-0.2227 -0.52712,-0.44383 -0.79362,-0.66223 -0.66288,-0.53975 -1.30965,-1.0958 -2.07995,-1.47848 -0.73655,-0.45751 -1.5916,-0.92834 -2.10208,-1.63826 -0.24798,-0.34183 -0.58686,-0.39658 -0.92055,-0.62803 -1.24019,-0.9392 -2.48695,-1.86974 -3.74071,-2.79075 -2.08074,-1.51126 -4.12794,-3.07394 -5.9869,-4.85743 -2.13516,-2.08205 -4.20839,-4.37527 -4.83226,-7.37869 0,0 0.52402,-0.46576 0.52402,-0.46576 z"
       inkscape:connector-curvature="0" />
    <path
       style="fill:#ffffff;stroke:#ffffff;stroke-width:8;stroke-miterlimit:4;stroke-opacity:1;stroke-dasharray:none"
       id="path3085"
       d="m 466.28463,622.09455 c 1.36748,-0.0711 2.5179,-0.009 3.8232,0.41879 0.84888,0.33869 1.69642,0.67247 2.5762,0.92286 0,0 -0.47412,0.52429 -0.47412,0.52429 l 0,0 c -0.87522,-0.26039 -1.72035,-0.59649 -2.5673,-0.93594 -1.26306,-0.40895 -2.49047,-0.47401 -3.81514,-0.39473 0,0 0.45716,-0.53527 0.45716,-0.53527 z"
       inkscape:connector-curvature="0" />
    <path
       style="fill:#ffffff;stroke:#ffffff;stroke-width:8;stroke-miterlimit:4;stroke-opacity:1;stroke-dasharray:none"
       id="path3087"
       d="m 459.01709,625.90671 c 0.006,-1.04181 0.002,-2.08364 0.004,-3.12546 0.001,-0.83621 -0.002,-1.67242 -0.002,-2.50862 0,0 0.53369,-0.45581 0.53369,-0.45581 l 0,0 c -3e-4,0.83739 -0.003,1.67477 -0.002,2.51216 0.002,1.03963 -0.002,2.07926 0.004,3.11888 0,0 -0.53725,0.45885 -0.53725,0.45885 z"
       inkscape:connector-curvature="0" />
    <path
       style="fill:#000000;stroke:#000000;stroke-width:8;stroke-miterlimit:4;stroke-opacity:1;stroke-dasharray:none"
       id="path3091"
       d="m 454.49337,611.64956 c 6.34865,0.69116 12.55361,2.3739 18.69826,4.03807 9.6937,2.62537 15.04357,4.18659 24.57645,7.60706 3.99279,1.43264 7.91961,3.04287 11.87941,4.5643 3.57918,1.48129 7.1689,2.93736 10.73754,4.44386 8.44978,3.56705 9.73922,4.37366 18.05642,7.52347 6.1742,2.33823 12.47775,4.34769 18.76515,6.35498 3.78105,1.24227 7.61659,2.28857 11.50532,3.12753 0.89147,0.1859 1.78702,0.35108 2.68484,0.50297 0,0 -0.53594,0.84146 -0.53594,0.84146 l 0,0 c -0.89447,-0.1623 -1.78708,-0.33476 -2.67637,-0.52357 -3.8791,-0.84598 -7.68504,-1.96323 -11.4469,-3.2342 -6.26132,-2.05805 -12.54546,-4.10191 -18.70132,-6.46136 -8.50581,-3.26015 -9.3569,-3.89535 -18.0169,-7.58411 -3.56127,-1.51694 -7.14502,-2.98054 -10.71753,-4.47081 -3.95629,-1.52507 -7.87755,-3.14431 -11.86886,-4.5752 -9.43229,-3.38147 -15.00586,-5.0057 -24.62559,-7.52233 -6.18181,-1.61723 -12.44111,-3.20456 -18.82075,-3.81823 0,0 0.50677,-0.81389 0.50677,-0.81389 z"
       inkscape:connector-curvature="0" />
    <path
       style="fill:#000000;stroke:#000000;stroke-width:8;stroke-miterlimit:4;stroke-opacity:1;stroke-dasharray:none"
       id="path3097"
       d="m 576.02783,651.14067 c 2.18626,0.0785 4.39036,-0.12092 6.56933,0.14384 0.96672,0.11746 3.82316,0.7318 4.72989,0.91987 2.02007,0.48822 4.01518,1.07281 5.99327,1.70842 0.27469,0.0883 2.09155,0.69118 2.10179,0.71247 0.34032,0.70815 0.25733,1.55015 0.386,2.32522 -0.0265,1.44877 0.0431,2.90249 -0.0794,4.34631 -0.52638,6.20561 -2.11307,12.30342 -3.19879,18.41871 -0.9134,5.14476 -2.06215,12.82929 -2.83864,17.87564 -2.12248,13.96864 -3.9732,27.97795 -6.23239,41.92588 0,0 -0.58491,0.66276 -0.58491,0.66276 l 0,0 c 2.31311,-13.98643 4.24905,-28.03011 6.34302,-42.05008 0.67917,-4.47847 1.96607,-13.16335 2.78037,-17.81421 1.06678,-6.09289 2.65821,-12.1679 3.15927,-18.35095 0.11551,-1.42532 0.0347,-2.85977 0.052,-4.28965 -0.10929,-0.74344 -0.008,-1.55058 -0.32788,-2.23031 -0.0113,-0.0241 -1.81466,-0.64044 -2.08627,-0.73003 -1.96805,-0.64914 -3.95581,-1.2408 -5.97187,-1.72338 -0.93619,-0.19194 -3.72684,-0.78726 -4.72362,-0.90387 -2.18659,-0.2558 -4.39817,-0.0516 -6.59131,-0.0978 0,0 0.52015,-0.84881 0.52015,-0.84881 z"
       inkscape:connector-curvature="0" />
    <path
       style="fill:#000000;stroke:#000000;stroke-width:8;stroke-miterlimit:4;stroke-opacity:1;stroke-dasharray:none"
       id="path3117"
       d="m 587.11498,743.2418 c 1.47438,2.57798 2.46987,5.39431 3.57516,8.14208 1.46089,3.96453 3.09549,7.87952 4.32367,11.92568 0.48179,1.45527 0.87542,2.9378 1.07762,4.45811 0.14144,0.93954 0.12661,1.10588 -0.49359,1.82798 -0.74205,0.22426 -1.57453,0.14745 -2.34484,0.14668 -1.68405,-0.0915 -3.2307,-0.82141 -4.75808,-1.47849 -2.22021,-0.90931 -4.12226,-2.20625 -5.77915,-3.92873 -1.31746,-1.56338 -1.79895,-3.54927 -2.19204,-5.50745 -0.1505,-1.22361 -0.35985,-2.43087 -0.66187,-3.62619 -0.15095,-0.96846 -0.48765,-1.89187 -0.78157,-2.8229 -0.29679,-1.18351 -0.5773,-2.37213 -0.84819,-3.56227 -0.22603,-1.21649 -0.44826,-2.43728 -0.54947,-3.67152 -0.0628,-0.27683 -0.11912,-0.57428 -0.26261,-0.82496 -0.0249,-0.0436 -0.15096,-0.045 -0.12312,-0.0868 0.0754,-0.11308 0.17516,-0.20779 0.26274,-0.31169 0,0 -0.34559,0.36441 -0.34559,0.36441 l 0,0 c 0.11878,-0.15835 0.21959,-0.33192 0.35634,-0.47504 0.20492,-0.21448 0.41375,1.17345 0.42909,0.95702 0.0959,1.23557 0.30647,2.45937 0.53646,3.67618 0.27208,1.18709 0.56166,2.37037 0.85076,3.55295 0.29124,0.93157 0.63597,1.85276 0.78691,2.82098 0.29555,1.20138 0.5085,2.41248 0.65234,3.64152 0.38575,1.95155 0.86311,3.93244 2.16787,5.49465 1.65033,1.72173 3.54532,3.01603 5.76392,3.91758 1.52381,0.65328 3.07038,1.36929 4.74955,1.45557 0.76074,-0.004 1.60004,0.0826 2.32464,-0.17288 -0.0471,0.0989 -0.10469,0.19357 -0.14141,0.29683 -0.0192,0.054 0.0589,-0.0984 0.0883,-0.14756 0.0211,-0.0673 0.0551,-0.13181 0.0632,-0.20185 0.0363,-0.31437 -0.063,-0.64395 -0.0644,-0.95693 -0.19129,-1.52495 -0.57941,-3.0123 -1.05566,-4.47263 -1.20592,-4.05902 -2.81618,-7.99057 -4.29584,-11.95393 -1.11339,-2.73146 -2.11283,-5.54249 -3.62302,-8.08653 0,0 0.31187,-0.3899 0.31187,-0.3899 z"
       inkscape:connector-curvature="0" />
    <path
       style="fill:#ffffff;stroke:#ffffff;stroke-width:8;stroke-miterlimit:4;stroke-opacity:1;stroke-dasharray:none"
       id="path3119"
       d="m 554.8415,723.47615 c 0.59799,0.94428 1.03383,1.98462 1.49787,2.99973 0.37175,0.63179 0.35517,1.34513 0.47362,2.0424 0.12125,0.87511 0.30757,1.70734 0.61838,2.53222 0.10048,0.44197 0.37526,0.79921 0.5426,1.20818 0.12076,0.35498 0.21238,0.71946 0.28262,1.08761 0.0779,0.0637 0.033,0.0367 0.13741,0.0765 0,0 -0.27856,0.41785 -0.27856,0.41785 l 0,0 c -0.12744,-0.0534 -0.0678,-0.0183 -0.17827,-0.10644 -0.0638,-0.36782 -0.15347,-0.73138 -0.27119,-1.08573 -0.16218,-0.41183 -0.4508,-0.76322 -0.54233,-1.21034 -0.30983,-0.82858 -0.5019,-1.66204 -0.62348,-2.54054 -0.12354,-0.69188 -0.10059,-1.40431 -0.46348,-2.03519 -0.45437,-1.01195 -0.88755,-2.04757 -1.48903,-2.98185 0,0 0.29384,-0.40442 0.29384,-0.40442 z"
       inkscape:connector-curvature="0" />
    <path
       style="fill:#ffffff;stroke:#ffffff;stroke-width:8;stroke-miterlimit:4;stroke-opacity:1;stroke-dasharray:none"
       id="path3121"
       d="m 561.40749,728.52691 c 0.36076,0.40603 0.85481,0.60967 1.36019,0.76964 0.38083,0.0374 0.68098,0.15031 0.94336,0.43044 0,0 -0.29667,0.40479 -0.29667,0.40479 l 0,0 c -0.25268,-0.27958 -0.54904,-0.37651 -0.92008,-0.41874 -0.51072,-0.16644 -1.01118,-0.37481 -1.38064,-0.7817 0,0 0.29384,-0.40443 0.29384,-0.40443 z"
       inkscape:connector-curvature="0" />
    <path
       style="fill:#ffffff;stroke:#ffffff;stroke-width:8;stroke-miterlimit:4;stroke-opacity:1;stroke-dasharray:none"
       id="path3123"
       d="m 604.68203,759.97954 c -0.57075,1.67141 -0.68339,3.45203 -0.81322,5.20046 -0.10499,1.59732 -0.13881,3.19798 -0.1493,4.79832 -0.002,0.38771 -2.6e-4,0.77541 0.004,1.16309 0,0 -0.32453,0.38052 -0.32453,0.38052 l 0,0 c -0.001,-0.39076 -1.6e-4,-0.78153 0.003,-1.17229 0.0147,-1.60549 0.0539,-3.21118 0.15833,-4.81364 0.12714,-1.7417 0.23078,-3.51857 0.78954,-5.18617 0,0 0.33229,-0.37029 0.33229,-0.37029 z"
       inkscape:connector-curvature="0" />
    <path
       style="fill:#ffffff;stroke:#ffffff;stroke-width:8;stroke-miterlimit:4;stroke-opacity:1;stroke-dasharray:none"
       id="path3125"
       d="m 573.87438,732.14056 c -0.39872,0.84182 -0.84155,1.66206 -1.31034,2.46754 -0.57908,1.16629 -1.16602,2.3353 -1.87688,3.42779 -0.53889,0.81862 -1.02447,1.65964 -1.6004,2.45241 0.53001,-0.63974 -0.6771,1.04363 -0.826,1.24564 -0.38572,0.35404 -0.16982,0.35999 -0.8406,0.98395 0,0 0.22824,-0.44457 0.22824,-0.44457 l 0,0 c 0.0931,-0.0886 0.25613,-0.40094 0.27191,-0.27339 0.0108,0.0871 -0.18694,0.29701 -0.13563,0.22577 0.23197,-0.32204 0.41933,-0.65454 0.69695,-0.93729 -0.45614,0.74852 0.69973,-1.07164 0.8249,-1.24545 -0.0369,0.0599 -0.15435,0.23487 -0.11061,0.17976 0.44536,-0.56103 0.68855,-1.28115 1.15279,-1.83414 0.7164,-1.08935 1.30664,-2.25797 1.88003,-3.4274 0.46713,-0.80164 0.90373,-1.61783 1.30934,-2.45159 0,0 0.3363,-0.36903 0.3363,-0.36903 z"
       inkscape:connector-curvature="0" />
    <path
       style="fill:#ffffff;stroke:#ffffff;stroke-width:8;stroke-miterlimit:4;stroke-opacity:1;stroke-dasharray:none"
       id="path3127"
       d="m 574.88454,735.67609 c -0.36033,0.84777 -0.95656,1.45599 -1.67811,1.99273 -0.58823,0.42534 -1.12492,0.90731 -1.73567,1.30085 -0.59991,0.32739 -1.12842,0.72501 -1.62314,1.19471 -0.39676,0.54141 -1.0248,0.81885 -1.48846,1.27716 0.31564,-0.44854 -0.68895,1.16743 -0.73386,1.2395 -0.23258,0.35335 -0.37846,0.55491 -0.72073,0.71482 -0.0668,0.0312 -0.21898,0.19418 -0.17531,0.13479 0.0758,-0.10304 0.1524,-0.20549 0.22859,-0.30824 -0.0138,0.0297 -0.0275,0.0594 -0.0413,0.0892 0,0 -0.34126,0.36825 -0.34126,0.36825 l 0,0 c 0.0124,-0.0312 0.0247,-0.0625 0.0371,-0.0937 0.13624,-0.20023 0.22914,-0.45109 0.43098,-0.58494 0.0708,-0.0469 0.15623,-0.0684 0.22776,-0.11414 0.0499,-0.0319 0.14064,-0.16265 0.14449,-0.10352 0.006,0.0967 -0.0896,0.17175 -0.13445,0.25763 0.4291,-0.68453 0.81465,-1.39647 1.30401,-2.04088 0.4771,-0.44444 1.08346,-0.74304 1.48801,-1.2754 0.49752,-0.46711 1.03321,-0.86034 1.63131,-1.19092 0.60805,-0.39531 1.1428,-0.88017 1.73236,-1.30168 0.62962,-0.47203 0.83525,-0.58544 1.1114,-1.18716 0,0 0.33631,-0.36903 0.33631,-0.36903 z"
       inkscape:connector-curvature="0" />
    <path
       style="fill:#ffffff;stroke:#ffffff;stroke-width:8;stroke-miterlimit:4;stroke-opacity:1;stroke-dasharray:none"
       id="path3129"
       d="m 573.31346,739.21646 c -0.75518,0.8385 -1.67558,1.55205 -2.63004,2.16793 -0.70556,0.30095 -1.28452,0.81187 -1.95869,1.16396 -0.64945,0.34102 -1.20833,0.8164 -1.87285,1.1421 -0.30057,0.13306 -0.15868,0.0733 -0.42491,0.18108 0,0 0.24419,-0.43524 0.24419,-0.43524 l 0,0 c 0.26304,-0.10661 0.1228,-0.0474 0.4199,-0.17954 0.66152,-0.32791 1.21775,-0.80784 1.87097,-1.14174 0.66748,-0.35958 1.25327,-0.85699 1.95341,-1.16315 0.31687,-0.20537 0.52579,-0.33193 0.82926,-0.56793 0.3471,-0.26992 0.78284,-0.83572 1.22197,-0.95668 0.0477,-0.0131 8.9e-4,0.0991 0.001,0.14857 0,0 0.34545,-0.35936 0.34545,-0.35936 z"
       inkscape:connector-curvature="0" />
    <path
       style="fill:#ffffff;stroke:#ffffff;stroke-width:8;stroke-miterlimit:4;stroke-opacity:1;stroke-dasharray:none"
       id="path3131"
       d="m 575.94918,737.69097 c -0.10626,0.73555 -0.49377,1.28948 -0.91426,1.88136 -0.0372,0.0448 -0.14638,0.18114 -0.11173,0.13433 0.063,-0.0851 0.11355,-0.18412 0.19696,-0.24944 0.10408,-0.0815 -0.0676,0.26088 -0.14134,0.37058 -0.11259,0.1674 -0.24153,0.3232 -0.3623,0.4848 -0.29781,0.0814 -0.53865,0.24428 -0.77466,0.44407 -0.0664,0.057 -0.1288,0.11816 -0.18403,0.18589 0,0 0.22507,-0.45149 0.22507,-0.45149 l 0,0 c 0.0604,-0.063 0.12337,-0.12332 0.19067,-0.17895 0.23692,-0.19281 0.48969,-0.33904 0.77186,-0.44602 -0.56838,0.93225 0.25434,-0.70707 0.40903,-0.74112 -0.46379,0.69494 0.44278,-0.76302 0.37027,-1.05412 0,0 0.32446,-0.37989 0.32446,-0.37989 z"
       inkscape:connector-curvature="0" />
    <path
       style="fill:#ffffff;stroke:#ffffff;stroke-width:8;stroke-miterlimit:4;stroke-opacity:1;stroke-dasharray:none"
       id="path3133"
       d="m 576.45366,734.21655 c -0.002,0.78875 -0.002,1.5775 -0.002,2.36626 -0.0553,0.48779 0.0961,1.01845 -0.0514,1.49202 -0.14266,0.26435 -0.31239,0.51773 -0.52613,0.72961 0,0 0.22712,-0.44744 0.22712,-0.44744 l 0,0 c 0.29915,-0.32121 -0.36324,0.54375 -0.0385,0.0863 0.18789,-0.45325 -9.7e-4,-1.00926 0.0694,-1.48644 -2.3e-4,-0.78728 1.8e-4,-1.57456 -0.002,-2.36184 0,0 0.32326,-0.37849 0.32326,-0.37849 z"
       inkscape:connector-curvature="0" />
    <path
       style="fill:#ffffff;stroke:#ffffff;stroke-width:8;stroke-miterlimit:4;stroke-opacity:1;stroke-dasharray:none"
       id="path3135"
       d="m 570.18174,745.42335 c -1.77869,-0.44507 -3.55129,-0.92668 -5.28551,-1.5242 -0.48456,-0.18676 -0.2675,-0.0969 -0.65344,-0.26391 0,0 0.27689,-0.41234 0.27689,-0.41234 l 0,0 c 0.37998,0.17106 0.16598,0.079 0.64446,0.27043 1.72541,0.61552 3.49749,1.09797 5.28067,1.5141 0,0 -0.26307,0.41592 -0.26307,0.41592 z"
       inkscape:connector-curvature="0" />
    <path
       style="fill:#000000;stroke:#000000;stroke-width:8;stroke-miterlimit:4;stroke-opacity:1;stroke-dasharray:none"
       id="path3137"
       d="m 585.03996,749.87391 c -0.009,0.73234 -0.0612,1.44439 0.19573,2.13947 0.25483,0.50769 0.38622,1.13371 0.85143,1.49467 0.28886,0.24019 0.33266,0.61191 0.57278,0.88688 0,0 -0.29654,0.40266 -0.29654,0.40266 l 0,0 c -0.24249,-0.27439 -0.2881,-0.6331 -0.56489,-0.88175 -0.47363,-0.37037 -0.61041,-0.99539 -0.86906,-1.51649 -0.26861,-0.69806 -0.22288,-1.40802 -0.21272,-2.14694 0,0 0.32327,-0.3785 0.32327,-0.3785 z"
       inkscape:connector-curvature="0" />
    <path
       style="fill:#000000;stroke:#000000;stroke-width:8;stroke-miterlimit:4;stroke-opacity:1;stroke-dasharray:none"
       id="path3139"
       d="m 587.67499,758.89541 c 0.33778,0.6552 0.95733,1.06164 1.44209,1.58876 0.12788,0.20216 0.30794,0.35047 0.49218,0.49709 0,0 -0.28867,0.40676 -0.28867,0.40676 l 0,0 c -0.18571,-0.14897 -0.36994,-0.29772 -0.49674,-0.50407 -0.48237,-0.53185 -1.1047,-0.93909 -1.44976,-1.59113 0,0 0.3009,-0.39741 0.3009,-0.39741 z"
       inkscape:connector-curvature="0" />
    <path
       style="fill:#000000;stroke:#000000;stroke-width:8;stroke-miterlimit:4;stroke-opacity:1;stroke-dasharray:none"
       id="path3141"
       d="m 584.66197,748.82504 c -0.0924,-0.51225 -0.39235,-0.91269 -0.61327,-1.36676 -0.22958,-0.61605 -0.41454,-1.25 -0.62637,-1.87356 -0.0245,-0.0911 -0.0489,-0.18216 -0.0734,-0.27324 0,0 0.31261,-0.38578 0.31261,-0.38578 l 0,0 c 0.0235,0.0905 0.0471,0.18093 0.0706,0.27139 0.20791,0.62287 0.39833,1.25311 0.62179,1.86935 0.21857,0.45698 0.52745,0.8539 0.61985,1.36871 0,0 -0.31188,0.38989 -0.31188,0.38989 z"
       inkscape:connector-curvature="0" />
    <path
       style="fill:#ffffff;stroke:#ffffff;stroke-width:8;stroke-miterlimit:4;stroke-opacity:1;stroke-dasharray:none"
       id="path3147"
       d="m 505.51871,796.77135 c 0.45808,0.51463 0.93375,1.01414 1.37425,1.5439 3.13518,3.77044 3.02282,3.88527 6.42548,8.19634 3.25436,4.12318 6.1438,7.67189 9.71578,11.55776 1.85768,2.02092 3.8144,3.94852 5.7216,5.92279 6.24242,5.95124 12.65175,11.71122 19.25625,17.2559 0,0 -0.2102,0.29442 -0.2102,0.29442 l 0,0 c -6.56193,-5.60123 -12.94628,-11.39567 -19.1966,-17.34384 -1.90944,-1.97194 -3.86672,-3.89865 -5.72832,-5.91582 -3.64127,-3.94558 -6.41866,-7.34793 -9.75013,-11.51429 -3.15856,-3.95012 -3.49838,-4.6185 -6.4958,-8.09624 -0.44452,-0.51575 -0.92869,-0.99596 -1.39303,-1.49395 0,0 0.28072,-0.40697 0.28072,-0.40697 z"
       inkscape:connector-curvature="0" />
    <path
       style="fill:#ffffff;stroke:#ffffff;stroke-width:8;stroke-miterlimit:4;stroke-opacity:1;stroke-dasharray:none"
       id="path3149"
       d="m 522.91439,817.17128 c -0.043,3.32604 0.041,6.65324 -0.073,9.97782 -0.24478,1.75275 -0.23753,3.627 -0.92582,5.28486 -0.28989,0.47293 -0.44532,1.21505 -1.0383,1.36179 0,0 0.24807,-0.43152 0.24807,-0.43152 l 0,0 c 0.30439,-0.10093 0.31074,-0.15737 0.0419,0.23411 -0.31049,0.45207 0.66397,-1.23441 0.41394,-0.80321 0.71711,-1.65544 0.7068,-3.54422 0.96457,-5.30231 0.12125,-3.31362 0.0473,-6.63051 0.0478,-9.94583 0,0 0.32089,-0.37571 0.32089,-0.37571 z"
       inkscape:connector-curvature="0" />
    <path
       style="fill:#ffffff;stroke:#ffffff;stroke-width:8;stroke-miterlimit:4;stroke-opacity:1;stroke-dasharray:none"
       id="path3151"
       d="m 520.89586,820.52348 c -2.1e-4,1.98898 -0.50776,3.93307 -0.90445,5.8699 -0.29098,1.79857 -1.2379,3.16937 -2.60582,4.32218 -1.07057,0.91695 -2.40873,1.20495 -3.76418,1.40826 -1.79588,0.20459 -3.60583,0.22314 -5.41117,0.23944 -0.86246,0.005 -1.72497,0.007 -2.58743,0.002 0,0 0.2604,-0.42429 0.2604,-0.42429 l 0,0 c 0.85929,0.007 1.71858,0.0177 2.57793,0.0121 1.80312,-0.0126 3.61129,-0.03 5.40431,-0.24137 1.35072,-0.20945 2.67908,-0.50886 3.74341,-1.42559 0.32801,-0.27984 0.96864,-0.74885 1.1927,-1.10847 0.45927,-0.73712 0.67767,-1.59844 0.87635,-2.43193 0.39698,-1.92626 0.91105,-3.86282 0.8935,-5.84236 0,0 0.32445,-0.37988 0.32445,-0.37988 z"
       inkscape:connector-curvature="0" />
    <path
       style="fill:#ffffff;stroke:#ffffff;stroke-width:8;stroke-miterlimit:4;stroke-opacity:1;stroke-dasharray:none"
       id="path3153"
       d="m 500.35291,793.23814 c 1.91127,1.83839 4.0888,3.37225 6.01404,5.20078 0.63891,0.60681 1.24373,1.24853 1.86559,1.87279 2.95236,3.32536 5.7258,6.80695 8.53826,10.25099 0.83307,0.96256 1.53646,2.03257 2.38921,2.97695 1.17354,1.38006 2.44088,2.67745 3.53177,4.1255 0.19785,0.33332 0.45799,0.6114 0.73528,0.87727 0,0 -0.29103,0.40202 -0.29103,0.40202 l 0,0 c -0.27773,-0.27038 -0.54015,-0.55126 -0.73537,-0.89049 -1.07818,-1.45581 -2.33788,-2.75849 -3.52905,-4.1208 -0.87274,-0.93092 -1.53463,-2.04016 -2.37441,-3.00199 -2.79011,-3.46349 -5.55728,-6.95299 -8.51451,-10.27563 -0.62227,-0.62229 -1.22717,-1.26244 -1.8668,-1.86687 -1.93006,-1.82386 -4.11316,-3.34364 -6.05529,-5.14819 0,0 0.29231,-0.40233 0.29231,-0.40233 z"
       inkscape:connector-curvature="0" />
    <path
       style="fill:#ffffff;stroke:#ffffff;stroke-width:8;stroke-miterlimit:4;stroke-opacity:1;stroke-dasharray:none"
       id="path3159"
       d="m 490.7849,782.87678 c 0.47243,0.3193 0.9824,0.58909 1.41729,0.95789 2.77661,2.35467 4.93065,5.39481 7.38499,8.05685 3.32148,3.60257 3.20491,3.3161 6.96589,6.59019 5.79333,4.3152 11.96233,8.11911 18.1853,11.78088 0,0 -0.23411,0.33976 -0.23411,0.33976 l 0,0 c -6.1958,-3.71052 -12.35,-7.53534 -18.15827,-11.8314 -3.79553,-3.2933 -3.62351,-2.96025 -6.98013,-6.57895 -2.45494,-2.64661 -4.62241,-5.67252 -7.42275,-7.9854 -0.43908,-0.36264 -0.95337,-0.6231 -1.43006,-0.93465 0,0 0.27185,-0.39517 0.27185,-0.39517 z"
       inkscape:connector-curvature="0" />
    <path
       style="fill:#ffffff;stroke:#ffffff;stroke-width:8;stroke-miterlimit:4;stroke-opacity:1;stroke-dasharray:none"
       id="path3161"
       d="m 490.6051,785.78341 c 6.99399,6.32034 12.90561,13.72 19.2976,20.62527 5.84835,6.31798 8.32498,8.7682 14.33692,14.91861 8.18352,8.11165 4.23804,4.35201 11.79087,11.32654 0,0 -0.16694,0.23152 -0.16694,0.23152 l 0,0 c -7.50594,-7.03924 -3.57992,-3.25246 -11.7371,-11.40266 -5.97959,-6.1188 -8.51341,-8.63722 -14.34741,-14.90549 -2.21788,-2.38297 -4.39355,-4.80489 -6.58309,-7.21391 -4.12208,-4.53527 -8.10368,-9.27977 -12.86559,-13.17872 0,0 0.27474,-0.40116 0.27474,-0.40116 z"
       inkscape:connector-curvature="0" />
    <path
       style="fill:#ffffff;stroke:#ffffff;stroke-width:8;stroke-miterlimit:4;stroke-opacity:1;stroke-dasharray:none"
       id="path3163"
       d="m 518.89495,824.20553 c 2.9711,9.67562 5.50943,19.47878 7.70025,29.35851 0,0 -0.22217,0.27178 -0.22217,0.27178 l 0,0 c -2.13213,-9.86781 -4.60333,-19.67443 -7.76399,-29.26794 0,0 0.28591,-0.36235 0.28591,-0.36235 z"
       inkscape:connector-curvature="0" />
    <path
       style="fill:#ffffff;stroke:#ffffff;stroke-width:8;stroke-miterlimit:4;stroke-opacity:1;stroke-dasharray:none"
       id="path3165"
       d="m 518.8714,812.36496 c 0.0332,10.48425 -0.48247,20.96047 -1.17489,31.41877 0,0 -0.21904,0.25297 -0.21904,0.25297 l 0,0 c 0.72561,-10.41637 1.26668,-20.85596 1.0778,-31.30159 0,0 0.31613,-0.37015 0.31613,-0.37015 z"
       inkscape:connector-curvature="0" />
    <path
       style="fill:#ffffff;stroke:#ffffff;stroke-width:8;stroke-miterlimit:4;stroke-opacity:1;stroke-dasharray:none"
       id="path3167"
       d="m 519.99426,822.39094 c -1.11768,1.30946 -2.92709,1.86119 -4.43556,2.59994 -2.24746,1.08246 -4.37105,2.45903 -6.75689,3.24025 -0.57911,0.18963 -1.17534,0.32226 -1.76302,0.48338 -3.49495,0.6783 -7.05533,0.9737 -10.59571,1.3286 -1.24704,-0.0245 -2.63828,0.52873 -3.84161,0.0976 0,0 0.27053,-0.40922 0.27053,-0.40922 l 0,0 c 1.19212,0.42569 2.57507,-0.12191 3.80996,-0.087 3.53614,-0.34566 7.09493,-0.61902 10.58136,-1.31961 0.58731,-0.16362 1.18317,-0.2992 1.76193,-0.49087 2.38401,-0.78953 4.50853,-2.16612 6.7574,-3.24908 1.51901,-0.7473 3.31851,-1.31153 4.43855,-2.63943 0,0 -0.22694,0.44541 -0.22694,0.44541 z"
       inkscape:connector-curvature="0" />
    <path
       style="fill:#ffffff;stroke:#ffffff;stroke-width:8;stroke-miterlimit:4;stroke-opacity:1;stroke-dasharray:none"
       id="path3171"
       d="m 501.17433,830.90934 c -1.37247,0.19066 -2.81025,0.45869 -4.18763,0.15499 -0.61713,-0.13608 -1.21384,-0.35224 -1.82075,-0.52836 -6.80022,-2.87366 -12.83368,-7.19875 -19.13333,-10.98715 -2.90424,-1.89695 -6.13177,-3.29312 -8.90548,-5.39791 -1.15735,-0.87823 -2.26074,-1.83296 -3.29308,-2.85523 -2.07702,-2.05676 -4.09331,-4.73418 -5.90547,-7.01619 -2.54738,-3.32005 -4.89761,-6.77652 -7.21508,-10.25776 0,0 0.26524,-0.34996 0.26524,-0.34996 l 0,0 c 2.29232,3.50568 4.62268,6.98361 7.16892,10.31332 1.8238,2.2989 3.80603,4.94059 5.90349,7.00715 3.64777,3.59404 7.88885,5.63429 12.21059,8.22459 6.28358,3.80842 12.3084,8.15969 19.14856,10.94407 0.60852,0.16892 1.20752,0.37691 1.82555,0.50676 1.37921,0.28977 2.81874,0.0244 4.18796,-0.18877 0,0 -0.24949,0.43045 -0.24949,0.43045 z"
       inkscape:connector-curvature="0" />
    <path
       style="fill:#ffffff;stroke:#ffffff;stroke-width:8;stroke-miterlimit:4;stroke-opacity:1;stroke-dasharray:none"
       id="path3173"
       d="m 505.26959,828.3213 c -5.23416,-0.24848 -10.39728,-1.41398 -15.5413,-2.34855 -6.1758,-1.33998 -12.85906,-2.15253 -18.54877,-5.10282 -2.61704,-1.35702 -3.50311,-2.35013 -5.68412,-4.24781 0,0 0.2328,-0.32508 0.2328,-0.32508 l 0,0 c 2.1598,1.88525 3.07401,2.90163 5.66264,4.25705 5.71337,2.99156 12.31892,3.79242 18.53235,5.1129 5.16247,0.91188 10.35238,2.07576 15.60743,2.22834 0,0 -0.26103,0.42597 -0.26103,0.42597 z"
       inkscape:connector-curvature="0" />
    <path
       style="fill:#ffffff;stroke:#ffffff;stroke-width:8;stroke-miterlimit:4;stroke-opacity:1;stroke-dasharray:none"
       id="path3175"
       d="m 486.57506,824.72092 c -2.71272,-0.86058 -5.41078,-1.80549 -7.88529,-3.24297 -1.84628,-1.07254 -3.61417,-2.27471 -5.42125,-3.41206 -8.73673,-6.19501 -17.25108,-12.75303 -25.37104,-19.74201 -6.74002,-5.80124 -13.08894,-12.04375 -19.40865,-18.29243 -2.7839,-2.77939 -5.43906,-5.68008 -8.03949,-8.62974 0,0 0.25253,-0.34254 0.25253,-0.34254 l 0,0 c 2.5649,2.99126 5.19018,5.92982 7.95745,8.73755 6.27434,6.30349 12.5886,12.58647 19.32998,18.39815 8.11187,6.99317 16.64371,13.53364 25.45614,19.6153 1.82335,1.11148 3.61031,2.285 5.47005,3.33445 2.4971,1.40912 5.19959,2.3458 7.93401,3.1592 0,0 -0.27444,0.4171 -0.27444,0.4171 z"
       inkscape:connector-curvature="0" />
    <path
       style="fill:#ffffff;stroke:#ffffff;stroke-width:8;stroke-miterlimit:4;stroke-opacity:1;stroke-dasharray:none"
       id="path3177"
       d="m 487.40868,825.73094 c -1.60963,-0.38954 -3.26783,-0.89384 -4.57825,-1.97313 -1.25607,-1.03452 -2.28393,-2.31962 -3.46899,-3.43478 -1.93884,-1.8245 -3.9148,-3.6095 -5.90087,-5.38247 -2.44508,-2.18272 -4.92798,-4.32271 -7.39196,-6.48407 -10.03454,-8.50396 -19.23757,-17.91917 -27.53465,-28.11959 -3.2786,-4.0307 -4.56404,-5.87175 -7.49004,-9.85946 -0.80635,-1.07559 -1.61269,-2.15117 -2.41904,-3.22676 0,0 0.22947,-0.30626 0.22947,-0.30626 l 0,0 c 0.79827,1.08654 1.59654,2.17309 2.39482,3.25963 2.90445,4.03208 4.1562,5.86694 7.43039,9.93611 8.2455,10.24752 17.4497,19.6682 27.50968,28.14788 3.94125,3.4178 9.43765,8.12638 13.38198,11.74553 1.19374,1.09533 2.23668,2.35824 3.50085,3.37147 1.32387,1.06107 2.98492,1.55071 4.60162,1.90906 0,0 -0.26501,0.41684 -0.26501,0.41684 z"
       inkscape:connector-curvature="0" />
    <path
       style="fill:#000000;stroke:#000000;stroke-width:8;stroke-miterlimit:4;stroke-opacity:1;stroke-dasharray:none"
       id="path3179"
       d="m 507.73503,826.80529 c -4.89192,-0.14071 -9.74391,-0.90116 -14.56335,-1.7027 -1.6985,-0.39794 -3.43179,-0.66914 -5.0955,-1.19384 -4.87626,-1.53785 -7.90959,-3.27664 -12.4846,-5.79364 -4.88348,-2.68671 -11.8159,-6.73593 -16.46811,-9.71259 -2.67738,-1.71309 -5.27391,-3.54937 -7.91086,-5.32405 -8.52904,-6.22684 -4.53207,-3.19155 -12.02315,-9.06327 0,0 0.17381,-0.24522 0.17381,-0.24522 l 0,0 c 7.4509,5.92505 3.47152,2.86613 11.97299,9.13122 2.6348,1.7772 5.22661,3.61987 7.90441,5.33161 4.7975,3.06671 11.4642,6.92286 16.50361,9.65811 4.51842,2.45247 7.69743,4.22991 12.51956,5.72668 1.66812,0.51778 3.40495,0.78054 5.10742,1.1708 4.83884,0.77126 9.71389,1.53123 14.62384,1.59249 0,0 -0.26007,0.4244 -0.26007,0.4244 z"
       inkscape:connector-curvature="0" />
    <path
       style="fill:#000000;stroke:#000000;stroke-width:8;stroke-miterlimit:4;stroke-opacity:1;stroke-dasharray:none"
       id="path3181"
       d="m 332.79775,523.55501 c -13.4638,11.45028 -23.76965,25.89759 -32.89194,40.89949 -7.01368,12.05021 -12.67928,24.85443 -16.19664,38.36992 -2.10217,8.07762 -2.53832,12.0766 -3.84989,20.29379 -1.62701,11.97913 -2.36371,24.05307 -2.72289,36.12898 0,0 -1.27834,1.48746 -1.27834,1.48746 l 0,0 c 0.38493,-12.09999 1.13325,-24.19762 2.75432,-36.20232 1.29621,-8.16525 1.74945,-12.28055 3.82803,-20.30781 3.50397,-13.53193 9.16496,-26.35191 16.17452,-38.41858 10.05058,-15.90673 20.57604,-31.77035 35.09651,-44.015 0,0 -0.91368,1.76407 -0.91368,1.76407 z"
       inkscape:connector-curvature="0" />
    <path
       style="fill:#000000;stroke:#000000;stroke-width:8;stroke-miterlimit:4;stroke-opacity:1;stroke-dasharray:none"
       id="path3189"
       d="m 353.12545,417.18839 c 9.09584,20.35891 14.26949,42.19979 18.93937,63.92304 2.06078,11.29696 2.66401,19.74036 -6.59454,27.69604 -4.7575,3.51069 -10.05434,6.16469 -15.21914,9.00876 -4.10895,2.48544 -8.80327,3.62462 -13.46908,4.52524 0,0 1.0062,-1.71486 1.0062,-1.71486 l 0,0 c 4.65156,-0.90659 9.31751,-2.06111 13.41081,-4.54828 5.15275,-2.85109 10.45623,-5.48405 15.18228,-9.02867 0.17795,-0.15675 2.66094,-2.1498 3.13765,-3.00586 3.68245,-6.61279 2.7202,-14.32742 1.34496,-21.46485 -4.61345,-21.70203 -9.73841,-43.5397 -18.94091,-63.82211 0,0 1.2024,-1.56845 1.2024,-1.56845 z"
       inkscape:connector-curvature="0" />
    <path
       style="fill:#ffffff;stroke:#ffffff;stroke-width:8;stroke-miterlimit:4;stroke-opacity:1;stroke-dasharray:none"
       id="path3191"
       d="m 427.35545,784.76989 c 1.71223,1.4504 3.3844,2.94645 5.07312,4.42429 0.90739,1.09927 2.1351,1.78088 3.26253,2.60376 0.56721,0.54149 1.21408,0.94994 1.88687,1.34187 2.54012,1.52985 4.56891,3.69706 6.52424,5.89236 2.0351,2.4286 4.1116,4.82208 6.33954,7.07632 0.93737,0.96866 1.82449,1.98385 2.62907,3.06492 0.21238,0.43495 0.53172,0.73503 0.85559,1.06644 0.12562,0.16083 0.0538,0.0873 0.21701,0.21908 0,0 -0.29115,0.41006 -0.29115,0.41006 l 0,0 c -0.1718,-0.13728 -0.0992,-0.0616 -0.22217,-0.22276 -0.32137,-0.33646 -0.65165,-0.63096 -0.85857,-1.07339 -0.80013,-1.08234 -1.68521,-2.09766 -2.61765,-3.06869 -2.22484,-2.2592 -4.30049,-4.65516 -6.33639,-7.08484 -1.95061,-2.19236 -3.97839,-4.35364 -6.52176,-5.86887 -0.67778,-0.38825 -1.32247,-0.80206 -1.8908,-1.34551 -1.12859,-0.82419 -2.35654,-1.50863 -3.2629,-2.61084 -1.68546,-1.47874 -3.35237,-2.97837 -5.07276,-4.41631 0,0 0.28618,-0.40789 0.28618,-0.40789 z"
       inkscape:connector-curvature="0" />
    <path
       style="fill:#ffffff;stroke:#ffffff;stroke-width:8;stroke-miterlimit:4;stroke-opacity:1;stroke-dasharray:none"
       id="path3193"
       d="m 431.88855,788.49941 c 1.10324,0.002 2.20647,0.001 3.30971,-1.9e-4 0.94458,-0.0896 1.81072,0.22597 2.72329,0.43844 2.15697,0.40039 4.22186,1.07966 6.20499,2.00808 0.76237,0.33082 1.54526,0.71641 2.12535,1.32491 0.26828,0.35664 0.51776,0.72705 0.76639,1.09754 0.48595,0.86338 0.70957,1.85889 1.01112,2.79819 0.32197,1.04612 0.48111,2.13017 0.8899,3.14864 0.29361,0.75638 0.72217,1.43662 1.13289,2.1307 0.62617,0.92549 1.47015,1.74852 2.36197,2.42301 1.52086,1.05682 2.846,2.32728 4.14576,3.63682 1.21513,1.26876 1.93527,2.88429 2.75946,4.41233 0,0 -0.30456,0.39439 -0.30456,0.39439 l 0,0 c -0.8167,-1.52808 -1.53258,-3.14216 -2.74321,-4.41018 -1.29892,-1.30698 -2.62372,-2.57388 -4.14346,-3.62798 -0.89804,-0.6761 -1.74604,-1.50451 -2.37977,-2.43165 -0.41072,-0.69676 -0.845,-1.37661 -1.13821,-2.13601 -0.41458,-1.01846 -0.57245,-2.10406 -0.89107,-3.15304 -0.2996,-0.93459 -0.5237,-1.92396 -1.00464,-2.7839 -0.24554,-0.36965 -0.49453,-0.73726 -0.75821,-1.09429 -0.5715,-0.60835 -1.35361,-0.98538 -2.10762,-1.31777 -1.97646,-0.93475 -4.03796,-1.61314 -6.19277,-2.0075 -0.90968,-0.20791 -1.77857,-0.50797 -2.71883,-0.42443 -1.10316,-0.002 -2.20633,-0.002 -3.30949,-1.9e-4 0,0 0.26101,-0.42592 0.26101,-0.42592 z"
       inkscape:connector-curvature="0" />
    <path
       style="fill:#ffffff;stroke:#ffffff;stroke-width:8;stroke-miterlimit:4;stroke-opacity:1;stroke-dasharray:none"
       id="path3195"
       d="m 451.12206,802.32326 c 4.05644,1.20787 8.0907,2.79339 11.68524,5.05209 2.02918,1.24259 3.07615,3.23303 4.02867,5.32185 0.4929,1.0777 1.12584,2.06766 1.90334,2.95858 0.42216,0.62793 1.26052,0.71156 1.76627,1.19439 0.42232,0.5646 1.06184,0.75144 1.66953,1.05452 1.04062,0.56779 1.81871,1.4296 2.60941,2.28694 0.45098,0.4811 0.91876,0.94602 1.39148,1.40565 0,0 -0.2949,0.40692 -0.2949,0.40692 l 0,0 c -0.47168,-0.46229 -0.94062,-0.92765 -1.39077,-1.41111 -0.7863,-0.85343 -1.5579,-1.71282 -2.59519,-2.27553 -0.61269,-0.30311 -1.25841,-0.4926 -1.68367,-1.06109 -0.4987,-0.48753 -1.35271,-0.56572 -1.76803,-1.19915 -0.78257,-0.89387 -1.4167,-1.88911 -1.91121,-2.97209 -0.94584,-2.08238 -1.98106,-4.06968 -4.00044,-5.31229 -3.58505,-2.26327 -7.61285,-3.86228 -11.67463,-5.03485 0,0 0.2649,-0.41483 0.2649,-0.41483 z"
       inkscape:connector-curvature="0" />
    <path
       style="fill:#ffffff;stroke:#ffffff;stroke-width:8;stroke-miterlimit:4;stroke-opacity:1;stroke-dasharray:none"
       id="path3197"
       d="m 456.86597,810.09281 c 0.71812,2.62083 1.85918,5.1239 3.09529,7.53898 0.49228,1.13712 1.24873,2.02898 2.19691,2.80395 0.24114,0.1849 0.45847,0.38642 0.76735,0.40919 0.65277,0.12411 1.31224,0.25016 1.97165,0.35475 0.41609,0.14811 0.80202,0.36713 1.20593,0.54655 0.11029,0.0537 0.42447,-0.11272 -0.10725,0.23038 -0.007,0.005 0.0411,-0.0909 0.0547,-0.28482 0,0 0.32863,-0.38173 0.32863,-0.38173 l 0,0 c -0.003,0.31492 -0.17642,1.02361 -0.55686,0.85393 -0.39886,-0.17942 -0.78092,-0.3969 -1.19319,-0.54201 -0.65854,-0.10609 -1.31587,-0.23441 -1.97041,-0.34991 -0.31748,-0.0312 -0.54347,-0.23692 -0.7905,-0.42881 -0.95144,-0.78292 -1.71733,-1.67656 -2.20722,-2.82427 -1.23102,-2.41804 -2.37068,-4.92054 -3.10736,-7.53567 0,0 0.31237,-0.39051 0.31237,-0.39051 z"
       inkscape:connector-curvature="0" />
    <path
       style="fill:#ffffff;stroke:#ffffff;stroke-width:8;stroke-miterlimit:4;stroke-opacity:1;stroke-dasharray:none"
       id="path3199"
       d="m 464.62434,811.8876 c 6.69846,6.22758 13.87588,11.91808 21.43407,17.06205 4.28503,2.77145 9.03988,4.72359 13.88132,6.28734 1.07217,0.31178 2.14466,0.65369 3.25789,0.78067 0,0 -0.26676,0.42402 -0.26676,0.42402 l 0,0 c -1.11329,-0.13637 -2.18514,-0.48257 -3.2572,-0.79964 -4.83799,-1.58125 -9.59305,-3.54008 -13.87499,-6.32047 -7.54836,-5.16033 -14.71004,-10.86515 -21.45483,-17.04192 0,0 0.2805,-0.39205 0.2805,-0.39205 z"
       inkscape:connector-curvature="0" />
    <path
       style="fill:#ffffff;stroke:#ffffff;stroke-width:8;stroke-miterlimit:4;stroke-opacity:1;stroke-dasharray:none"
       id="path3201"
       d="m 463.54578,809.01688 c 1.74003,1.73397 3.18504,3.73287 4.81829,5.56056 0.63211,0.70736 1.30217,1.37986 1.95326,2.06979 3.93229,4.14281 8.4078,7.71768 13.0642,11.00644 1.13335,0.77057 2.3089,1.47605 3.53307,2.09152 0,0 -0.27974,0.4118 -0.27974,0.4118 l 0,0 c -1.22166,-0.62454 -2.39569,-1.33613 -3.5281,-2.11138 -4.64789,-3.30576 -9.12401,-6.88288 -13.06543,-11.02071 -0.65317,-0.68869 -1.32523,-1.35994 -1.95951,-2.06607 -1.63692,-1.82234 -3.08511,-3.81789 -4.83439,-5.54071 0,0 0.29835,-0.40124 0.29835,-0.40124 z"
       inkscape:connector-curvature="0" />
    <path
       style="fill:#ffffff;stroke:#ffffff;stroke-width:8;stroke-miterlimit:4;stroke-opacity:1;stroke-dasharray:none"
       id="path3203"
       d="m 466.74463,812.36263 c 2.78285,1.1991 4.9379,3.41963 7.06649,5.50644 3.73062,3.8841 7.76721,7.45684 11.8902,10.91517 1.17661,0.96777 2.24365,2.05755 3.39516,3.05264 0,0 -0.28882,0.40348 -0.28882,0.40348 l 0,0 c -1.14745,-1.00045 -2.20868,-2.09673 -3.38368,-3.0674 -4.11517,-3.46943 -8.15066,-7.04412 -11.89105,-10.92008 -2.12681,-2.07411 -4.27991,-4.29215 -7.06094,-5.47194 0,0 0.27264,-0.41831 0.27264,-0.41831 z"
       inkscape:connector-curvature="0" />
    <path
       style="fill:#ffffff;stroke:#ffffff;stroke-width:8;stroke-miterlimit:4;stroke-opacity:1;stroke-dasharray:none"
       id="path3207"
       d="m 463.27644,815.64075 c 4.98983,3.90574 9.76569,8.06861 14.71374,12.02747 2.98374,2.24135 5.89218,4.74762 9.37576,6.20153 1.41452,0.59036 2.49598,0.81539 3.96965,1.19696 3.18596,0.69541 6.44369,0.88755 9.6942,0.95051 3.15467,0.0955 6.29341,-0.0379 9.39741,-0.61282 1.0917,-0.0819 2.10896,-0.67158 3.19185,-0.75265 0,0 -0.25818,0.42924 -0.25818,0.42924 l 0,0 c -1.07795,0.0981 -2.09338,0.65449 -3.18056,0.74325 -3.1072,0.56691 -6.24973,0.69917 -9.40615,0.6083 -3.25254,-0.0646 -6.5113,-0.26816 -9.69871,-0.96457 -1.47842,-0.38422 -2.5578,-0.60924 -3.97639,-1.20429 -3.48394,-1.46142 -6.38811,-3.97884 -9.3707,-6.22661 -4.94416,-3.96056 -9.72078,-8.12246 -14.73841,-11.99001 0,0 0.28649,-0.40631 0.28649,-0.40631 z"
       inkscape:connector-curvature="0" />
    <path
       style="fill:#ffffff;stroke:#ffffff;stroke-width:8;stroke-miterlimit:4;stroke-opacity:1;stroke-dasharray:none"
       id="path3209"
       d="m 476.78685,822.46443 c 4.13698,1.22043 7.87703,3.44744 11.70142,5.3808 1.23202,0.62283 2.48578,1.2017 3.72867,1.80254 6.17391,2.27609 12.61507,4.13258 19.18277,4.8304 3.20984,0.34105 4.43077,0.20991 7.55492,0.12212 3.69359,-0.2717 7.29845,-1.05616 10.56042,-2.83424 0,0 -0.23709,0.43381 -0.23709,0.43381 l 0,0 c -3.26879,1.75635 -6.87153,2.53007 -10.56211,2.79245 -3.12426,0.0808 -4.34538,0.20878 -7.55469,-0.13785 -6.57057,-0.70966 -13.01291,-2.57272 -19.19678,-4.8333 -1.24493,-0.5989 -2.50094,-1.1753 -3.73479,-1.7967 -3.82649,-1.92715 -7.56834,-4.15927 -11.7176,-5.34227 0,0 0.27486,-0.41776 0.27486,-0.41776 z"
       inkscape:connector-curvature="0" />
    <path
       style="fill:#ffffff;stroke:#ffffff;stroke-width:8;stroke-miterlimit:4;stroke-opacity:1;stroke-dasharray:none"
       id="path3211"
       d="m 464.44272,813.68974 c 1.18979,3.25668 2.48646,6.45193 4.18862,9.47903 0.85007,1.24474 1.19339,1.94798 2.4197,2.90167 3.16555,2.4618 7.19971,3.55534 10.9932,4.56536 5.42888,1.08842 10.99688,1.4973 16.52926,1.21037 2.59983,-0.13483 4.84079,-0.5053 7.40188,-0.86748 5.15273,-0.85426 10.20727,-2.07381 15.06883,-3.98676 1.54815,-0.77271 3.10564,-1.57432 4.36085,-2.78235 0,0 -0.22701,0.44293 -0.22701,0.44293 l 0,0 c -1.26387,1.19442 -2.81992,1.99316 -4.36923,2.75788 -4.86278,1.90162 -9.91701,3.11478 -15.06773,3.9629 -2.5631,0.35841 -4.80077,0.72452 -7.4024,0.85698 -5.53742,0.28193 -11.11032,-0.12624 -16.54542,-1.20786 -3.80041,-1.0104 -7.84812,-2.10513 -11.02398,-4.56415 -1.23397,-0.95545 -1.57687,-1.65944 -2.43067,-2.90889 -0.84614,-1.50439 -1.08519,-1.84993 -1.79759,-3.44431 -0.74423,-1.6656 -1.34812,-3.38097 -1.99852,-5.08153 -0.12285,-0.3212 -0.27559,-0.63016 -0.41338,-0.94524 0,0 0.31359,-0.38855 0.31359,-0.38855 z"
       inkscape:connector-curvature="0" />
    <path
       style="fill:#ffffff;stroke:#ffffff;stroke-width:8;stroke-miterlimit:4;stroke-opacity:1;stroke-dasharray:none"
       id="path3213"
       d="m 467.41554,811.73252 c 0.39615,2.43872 0.89082,4.91997 2.1091,7.10621 0.24613,0.44169 0.56546,0.8384 0.84819,1.25759 0.38211,0.38008 0.72739,0.80118 1.14634,1.14022 1.02792,0.83186 2.3307,1.49381 3.49307,2.09013 2.0869,1.07061 4.20386,1.89734 6.40924,2.68704 6.35132,1.61252 12.99492,2.12059 19.51843,2.59213 3.09084,0.19058 6.19967,0.0465 9.23921,-0.56997 1.31051,-0.26581 2.48112,-0.63397 3.75788,-1.00676 1.81196,-0.64962 3.57916,-1.4458 5.05552,-2.69847 0,0 -0.23067,0.44322 -0.23067,0.44322 l 0,0 c -1.48563,1.23784 -3.25169,2.03026 -5.06461,2.67258 -1.2825,0.37153 -2.44348,0.73412 -3.7602,0.99905 -3.04213,0.6121 -6.15227,0.75696 -9.24471,0.55783 -5.5232,-0.40891 -11.25189,-0.82322 -16.68524,-1.89914 -0.95818,-0.18974 -1.89771,-0.46383 -2.84656,-0.69574 -2.20859,-0.78922 -4.3267,-1.61799 -6.41696,-2.6881 -1.16571,-0.59678 -2.47671,-1.2601 -3.50865,-2.09228 -0.42191,-0.34023 -0.76981,-0.76318 -1.15471,-1.14477 -0.28472,-0.42105 -0.60636,-0.81935 -0.85416,-1.26313 -1.22086,-2.18637 -1.71634,-4.6676 -2.12965,-7.10443 0,0 0.31914,-0.38321 0.31914,-0.38321 z"
       inkscape:connector-curvature="0" />
    <path
       style="fill:#ffffff;stroke:#ffffff;stroke-width:8;stroke-miterlimit:4;stroke-opacity:1;stroke-dasharray:none"
       id="path3215"
       d="m 468.09572,811.28381 c 1.97448,4.86163 4.65388,9.4635 7.86486,13.61515 0.66225,0.85626 1.38753,1.66187 2.08129,2.4928 2.53897,2.6678 5.52362,4.87747 9.01737,6.12185 1.99507,0.71059 3.49848,0.92741 5.58221,1.34313 4.44669,0.76002 8.93552,1.22908 13.4099,1.79308 0.76162,0.15286 1.52796,0.16079 2.29851,0.12492 0,0 -0.25831,0.42557 -0.25831,0.42557 l 0,0 c -0.77134,0.0297 -1.53867,0.0167 -2.30016,-0.13814 -4.47056,-0.57852 -8.95614,-1.05521 -13.40109,-1.81311 -2.09019,-0.41593 -3.59234,-0.63101 -5.59319,-1.34453 -3.50024,-1.24822 -6.48966,-3.46512 -9.03046,-6.14107 -0.69365,-0.83289 -1.41856,-1.64071 -2.08097,-2.49866 -3.20592,-4.15233 -5.88385,-8.74766 -7.89682,-13.58968 0,0 0.30686,-0.39131 0.30686,-0.39131 z"
       inkscape:connector-curvature="0" />
    <path
       style="fill:#ffffff;stroke:#ffffff;stroke-width:8;stroke-miterlimit:4;stroke-opacity:1;stroke-dasharray:none"
       id="path3217"
       d="m 469.8369,811.41441 c 0.44348,0.22664 0.90163,0.42659 1.33042,0.67991 2.32542,1.3738 3.73667,2.49051 6.08327,4.10539 1.76376,1.21379 3.53758,2.41292 5.31206,3.61097 2.06587,1.39479 4.13929,2.77836 6.20893,4.16753 2.09291,1.41576 4.18582,2.83151 6.27873,4.24727 5.52635,3.77738 11.1287,7.43915 16.81013,10.97818 0,0 -0.26308,0.37987 -0.26308,0.37987 l 0,0 c -5.66531,-3.56453 -11.2559,-7.24393 -16.77923,-11.02531 -5.93185,-4.01108 -11.90689,-7.95932 -17.82317,-11.99324 -2.32307,-1.58395 -3.78582,-2.7238 -6.10041,-4.069 -0.42951,-0.24962 -0.88872,-0.4442 -1.33309,-0.6663 0,0 0.27544,-0.41527 0.27544,-0.41527 z"
       inkscape:connector-curvature="0" />
    <path
       style="fill:#ffffff;stroke:#ffffff;stroke-width:8;stroke-miterlimit:4;stroke-opacity:1;stroke-dasharray:none"
       id="path3219"
       d="m 488.17367,830.16421 c 7.08712,0.90608 14.2605,1.42804 21.40969,1.25428 1.93659,-0.0471 3.86939,-0.19531 5.80409,-0.29296 7.47732,-0.60687 14.98746,-1.69053 22.04612,-4.31478 1.21463,-0.44048 2.35827,-1.02503 3.3558,-1.84547 0,0 -0.23083,0.44174 -0.23083,0.44174 l 0,0 c -1.00405,0.80692 -2.14745,1.38537 -3.36052,1.82054 -7.0612,2.5929 -14.56257,3.66524 -22.03283,4.2648 -1.93542,0.0974 -3.86898,0.24437 -5.80625,0.29223 -7.16232,0.17693 -14.34498,-0.33721 -21.44975,-1.20823 0,0 0.26448,-0.41215 0.26448,-0.41215 z"
       inkscape:connector-curvature="0" />
    <path
       style="fill:#ffffff;stroke:#ffffff;stroke-width:8;stroke-miterlimit:4;stroke-opacity:1;stroke-dasharray:none"
       id="path3221"
       d="m 485.3805,826.18696 c 3.22207,2.18034 7.10689,2.05182 10.85935,2.25179 3.54643,0.0663 7.19709,0.24956 10.68603,-0.55161 1.52594,-0.35041 2.36473,-0.73319 3.83471,-1.29617 4.02532,-1.59351 7.96183,-3.39525 11.91755,-5.15039 0.91761,-0.38031 1.8452,-0.78834 2.62408,-1.41629 0,0 -0.23302,0.44458 -0.23302,0.44458 l 0,0 c -0.78755,0.61307 -1.71007,1.02039 -2.62786,1.39694 -3.95704,1.74739 -7.89493,3.54101 -11.91526,5.14122 -1.4869,0.5679 -2.29935,0.94127 -3.84235,1.29094 -3.49105,0.79112 -7.14066,0.59877 -10.68709,0.53302 -2.70607,-0.14102 -5.51853,-0.16105 -8.15743,-0.87463 -0.99969,-0.27032 -1.87531,-0.83207 -2.74828,-1.36314 0,0 0.28957,-0.40626 0.28957,-0.40626 z"
       inkscape:connector-curvature="0" />
    <path
       style="fill:none;stroke:#000000;stroke-width:8;stroke-linecap:butt;stroke-linejoin:miter;stroke-opacity:1"
       d="m 324.28571,380.93361 64.28572,70"
       id="path3227"
       inkscape:connector-curvature="0" />
    <path
       sodipodi:type="arc"
       style="fill:#ffffff;stroke:#000000;stroke-width:8;stroke-miterlimit:4;stroke-opacity:1;stroke-dasharray:none"
       id="path3229"
       sodipodi:cx="371.42856"
       sodipodi:cy="323.79074"
       sodipodi:rx="40"
       sodipodi:ry="12.857142"
       d="m 411.42856,323.79074 a 40,12.857142 0 1 1 -80,0 40,12.857142 0 1 1 80,0 z"
       transform="matrix(0.71837358,0.69565753,-0.69565753,0.71837358,257.85156,-133.19905)" />
    <path
       style="fill:none;stroke:#000000;stroke-width:3;stroke-linecap:butt;stroke-linejoin:miter;stroke-opacity:1"
       d="m 298.57143,353.79075 25.71428,-22.85714"
       id="path3231"
       inkscape:connector-curvature="0" />
    <path
       style="fill:none;stroke:#000000;stroke-width:3;stroke-linecap:butt;stroke-linejoin:miter;stroke-opacity:1"
       d="m 333.42857,323.21933 27.14286,-24.28572"
       id="path3233"
       inkscape:connector-curvature="0" />
    <path
       style="fill:none;stroke:#000000;stroke-width:3;stroke-linecap:butt;stroke-linejoin:miter;stroke-opacity:1"
       d="m 370.42857,290.79076 27.14286,-24.28572"
       id="path3233-2"
       inkscape:connector-curvature="0" />
  </g>
</svg>
