<?xml version="1.0" encoding="UTF-8" standalone="no"?>
<!-- Created with Inkscape (http://www.inkscape.org/) -->

<svg
   xmlns:dc="http://purl.org/dc/elements/1.1/"
   xmlns:cc="http://creativecommons.org/ns#"
   xmlns:rdf="http://www.w3.org/1999/02/22-rdf-syntax-ns#"
   xmlns:svg="http://www.w3.org/2000/svg"
   xmlns="http://www.w3.org/2000/svg"
   xmlns:sodipodi="http://sodipodi.sourceforge.net/DTD/sodipodi-0.dtd"
   xmlns:inkscape="http://www.inkscape.org/namespaces/inkscape"
   width="744.09448819"
   height="1052.3622047"
   id="svg2"
   version="1.1"
   inkscape:version="0.48.4 r9939"
   sodipodi:docname="New document 1">
  <defs
     id="defs4" />
  <sodipodi:namedview
     id="base"
     pagecolor="#ffffff"
     bordercolor="#666666"
     borderopacity="1.0"
     inkscape:pageopacity="0.0"
     inkscape:pageshadow="2"
     inkscape:zoom="0.7"
     inkscape:cx="454.28571"
     inkscape:cy="573.92167"
     inkscape:document-units="px"
     inkscape:current-layer="layer1"
     showgrid="false"
     inkscape:window-width="1366"
     inkscape:window-height="718"
     inkscape:window-x="0"
     inkscape:window-y="27"
     inkscape:window-maximized="1" />
  <metadata
     id="metadata7">
    <rdf:RDF>
      <cc:Work
         rdf:about="">
        <dc:format>image/svg+xml</dc:format>
        <dc:type
           rdf:resource="http://purl.org/dc/dcmitype/StillImage" />
        <dc:title></dc:title>
      </cc:Work>
    </rdf:RDF>
  </metadata>
  <g
     inkscape:label="Layer 1"
     inkscape:groupmode="layer"
     id="layer1">
    <path
       sodipodi:type="arc"
       style="fill:#ffffff;stroke:#000000;stroke-width:10;stroke-miterlimit:4;stroke-opacity:1;stroke-dasharray:none;opacity:1"
       id="path2985"
       sodipodi:cx="341.43155"
       sodipodi:cy="268.4838"
       sodipodi:rx="66.670067"
       sodipodi:ry="66.670067"
       d="m 408.10162,268.4838 a 66.670067,66.670067 0 1 1 -133.34014,0 66.670067,66.670067 0 1 1 133.34014,0 z" />
    <path
       d="m 123.23861,124.032 a 22.223356,21.213203 0 1 1 -44.446715,0 22.223356,21.213203 0 1 1 44.446715,0 z"
       sodipodi:ry="21.213203"
       sodipodi:rx="22.223356"
       sodipodi:cy="124.032"
       sodipodi:cx="101.01525"
       id="path2989"
       style="fill:#ffffff;stroke:#000000;stroke-width:8;stroke-miterlimit:4;stroke-opacity:1;stroke-dasharray:none"
       sodipodi:type="arc"
       transform="translate(267.90011,139.19998)" />
    <path
       style="fill:#000000;stroke:none"
       id="path3039"
       d="m 341.68613,306.11162 c -1.21858,-0.46223 -2.47353,-0.84029 -3.76108,-1.0502 -1.05704,0.0436 -1.86219,-0.47166 -2.79052,-0.90838 -1.28474,-0.5446 -2.70537,-0.55666 -4.07806,-0.61405 -1.70624,-0.0587 -3.41336,-0.0256 -5.12011,-0.0311 -1.44724,0.036 -2.86538,0.41154 -4.30554,0.58022 -0.6322,0.34145 -1.40491,0.38406 -2.05141,0.66712 -0.26441,0.11577 -0.48628,0.31397 -0.74657,0.43873 -0.70914,0.2487 -0.90258,0.86958 -1.65439,1.05284 -0.30798,0.70702 -1.17148,0.55565 -1.62643,1.00401 -0.28558,0.41788 -0.81943,0.31719 -1.21072,0.4956 -0.0947,0.0432 -0.14895,0.14543 -0.22343,0.21814 -0.1168,0.0525 -0.2336,0.10501 -0.35041,0.15752 -1.03458,0.25683 -2.02664,0.56723 -3.07722,0.76252 -1.36884,0.0972 -2.66884,0.39098 -3.98459,0.75814 -0.77247,0.25728 -1.58611,0.32746 -2.39524,0.34007 -0.11375,0.003 -0.23551,-0.0338 -0.34126,0.008 -0.0777,0.0309 -0.0952,0.14126 -0.16184,0.19173 -0.26798,0.20276 -0.65002,0.32349 -0.94942,0.48181 -0.21478,0.18557 -0.41346,0.0785 -0.66989,0.07 0,0 6.82612,-8.21736 6.82612,-8.21736 l 0,0 c 0.1751,-0.0698 0.19214,-0.24402 0.4102,-0.26869 0.57477,-0.24212 1.11054,-0.46295 1.74984,-0.39993 0.75078,-0.0809 1.48436,-0.23309 2.21128,-0.43954 1.32198,-0.31423 2.66137,-0.45744 3.99411,-0.71436 0.98749,-0.25928 2.00215,-0.51239 2.91666,-0.9733 0.57537,-0.31583 1.22133,-0.49239 1.74664,-0.91118 0.65477,-0.20003 1.03406,-0.72956 1.66305,-0.98105 0.49716,-0.47869 1.01286,-0.77429 1.66518,-1.01038 0.94716,-0.43834 2.00645,-0.66754 3.02626,-0.86403 1.45688,-0.20916 2.91046,-0.53763 4.3906,-0.47103 1.71744,-0.01 3.43554,0.0127 5.15184,0.0756 1.50854,0.0847 3.04555,0.16266 4.42687,0.84208 0.85281,0.39921 1.67406,0.62968 2.61268,0.72591 1.30449,0.30997 2.57255,0.747 3.85212,1.14373 0,0 -7.14532,7.84064 -7.14532,7.84064 z"
       inkscape:connector-curvature="0" />
    <path
       style="fill:#000000;stroke:none"
       id="path3039-5"
       d="m 344.89532,306.06435 c 1.21858,-0.46223 2.47353,-0.84029 3.76108,-1.0502 1.05704,0.0436 1.86219,-0.47166 2.79052,-0.90838 1.28474,-0.5446 2.70537,-0.55666 4.07806,-0.61405 1.70624,-0.0587 3.41336,-0.0256 5.12011,-0.0311 1.44724,0.036 2.86538,0.41154 4.30554,0.58022 0.6322,0.34145 1.40491,0.38406 2.05141,0.66712 0.26441,0.11577 0.48628,0.31397 0.74657,0.43873 0.70914,0.2487 0.90258,0.86958 1.65439,1.05284 0.30798,0.70702 1.17148,0.55565 1.62643,1.00401 0.28558,0.41788 0.81943,0.31719 1.21072,0.4956 0.0947,0.0432 0.14895,0.14543 0.22343,0.21814 0.1168,0.0525 0.2336,0.10501 0.35041,0.15752 1.03458,0.25683 2.02664,0.56723 3.07722,0.76252 1.36884,0.0972 2.66884,0.39098 3.98459,0.75814 0.77247,0.25728 1.58611,0.32746 2.39524,0.34007 0.11375,0.003 0.23551,-0.0338 0.34126,0.008 0.0777,0.0309 0.0952,0.14126 0.16184,0.19173 0.26798,0.20276 0.65002,0.32349 0.94942,0.48181 0.21478,0.18557 0.41346,0.0785 0.66989,0.07 0,0 -6.82612,-8.21736 -6.82612,-8.21736 l 0,0 c -0.1751,-0.0698 -0.19214,-0.24402 -0.4102,-0.26869 -0.57477,-0.24212 -1.11054,-0.46295 -1.74984,-0.39993 -0.75078,-0.0809 -1.48436,-0.23309 -2.21128,-0.43954 -1.32198,-0.31423 -2.66137,-0.45744 -3.99411,-0.71436 -0.98749,-0.25928 -2.00215,-0.51239 -2.91666,-0.9733 -0.57537,-0.31583 -1.22133,-0.49239 -1.74664,-0.91118 -0.65477,-0.20003 -1.03406,-0.72956 -1.66305,-0.98105 -0.49716,-0.47869 -1.01286,-0.77429 -1.66518,-1.01038 -0.94716,-0.43834 -2.00645,-0.66754 -3.02626,-0.86403 -1.45688,-0.20916 -2.91046,-0.53763 -4.3906,-0.47103 -1.71744,-0.01 -3.43554,0.0127 -5.15184,0.0756 -1.50854,0.0847 -3.04555,0.16266 -4.42687,0.84208 -0.85281,0.39921 -1.67406,0.62968 -2.61268,0.72591 -1.30449,0.30997 -2.57255,0.747 -3.85212,1.14373 0,0 7.14532,7.84064 7.14532,7.84064 z"
       inkscape:connector-curvature="0" />
    <path
       style="fill:#000000;stroke:none"
       id="path3835"
       d="m 392.47231,270.97452 c 1.85975,5.07817 2.69317,10.51146 3.52483,15.83981 0.8533,5.78497 0.79687,11.64402 1.1813,17.46711 0.17657,2.67457 0.60167,7.57062 0.83082,10.28489 0.90696,9.64625 1.08325,19.33673 1.24307,29.01757 0.0476,6.96398 -0.0355,13.93911 1.27514,20.80138 1.11824,4.43104 3.12375,8.49806 6.14333,11.92567 1.28315,1.23242 1.88047,2.09213 3.61276,1.25008 0.34387,-0.21899 0.68571,-0.35665 0.98161,-0.64212 0.0816,-0.0787 0.31669,-0.3247 0.23514,-0.24589 -2.31415,2.23636 -2.78592,3.13008 -2.11537,1.94225 0.54706,-1.47712 0.0343,-0.23454 2.84242,-2.86059 0,0 -2.23536,2.75681 -2.23536,2.75681 l 0,0 c 2.34436,-2.5179 2.48889,-3.51204 2.18716,-2.07341 -0.70925,1.72797 -2.42058,3.06477 -4.07818,3.89285 -1.77142,0.6272 -2.69129,-0.34593 -3.87526,-1.61085 -2.97869,-3.53102 -5.021,-7.65698 -6.18017,-12.13297 -1.3135,-6.92247 -1.16782,-13.95144 -1.16257,-20.97335 -0.13499,-9.67895 -0.37573,-19.36142 -1.22095,-29.00916 -0.13855,-1.72957 -0.69899,-8.67829 -0.81379,-10.30918 -0.40671,-5.77803 -0.48453,-11.58571 -1.29323,-17.32935 -0.81317,-5.25953 -1.60079,-10.69464 -3.68556,-15.61951 0,0 2.60286,-2.37204 2.60286,-2.37204 z"
       inkscape:connector-curvature="0" />
    <path
       style="fill:#000000;stroke:none"
       id="path3845"
       d="m 348.51473,330.68462 c -1.10087,33.16657 -0.96537,66.35137 -1.71796,99.52518 -1.67561,32.5164 -5.26729,64.93609 -11.22018,96.94875 -1.18283,5.73677 -0.62299,3.13649 -1.65663,7.80573 0,0 -10.75143,8.74382 -10.75143,8.74382 l 0,0 c 1.30357,-4.8494 0.59393,-2.14907 2.10594,-8.10698 7.29612,-32.29925 11.55259,-65.23075 13.18919,-98.30307 0.56724,-32.48012 0.51021,-64.96904 -0.69268,-97.43739 0,0 10.74375,-9.17604 10.74375,-9.17604 z"
       inkscape:connector-curvature="0" />
    <path
       style="fill:#000000;stroke:none"
       id="path3849"
       d="m 333.76716,532.76301 c -0.38894,1.6344 -0.7753,3.26942 -1.16683,4.9032 -1.6987,7.0884 -1.90745,8.84992 -4.79659,16.11902 -5.48949,13.81159 -13.56384,26.41185 -21.06548,39.17187 -14.88874,23.5585 -29.61995,47.26919 -45.81398,69.96523 -5.49797,6.84655 -11.20693,16.41417 -19.12411,20.12145 -1.42181,0.26146 -2.86731,0.35584 -4.30924,0.41688 0,0 9.11864,-10.81537 9.11864,-10.81537 l 0,0 c 1.31376,-0.11335 2.67445,-0.17516 3.85375,-0.83118 3.74011,-2.35765 9.22881,-8.62342 -7.40489,7.90349 -0.55299,0.54945 1.05128,-1.1517 1.55784,-1.74423 2.39581,-2.80238 3.19495,-3.90726 5.66554,-7.06136 16.85158,-22.74697 31.96118,-46.74302 47.00116,-70.7056 8.69435,-15.05898 18.49184,-30.08583 23.26837,-46.9929 0.64104,-2.26903 0.96866,-4.61516 1.46884,-6.91934 0.32737,-1.50812 0.67584,-3.01158 1.01376,-4.51737 0,0 10.73322,-9.01379 10.73322,-9.01379 z"
       inkscape:connector-curvature="0" />
  </g>
</svg>
